# Blender v2.79 (sub 0) OBJ File: ''
# www.blender.org
mtllib buildingCorridorOpen.mtl
o buildingCorridorOpen
v -5.000000 0.730651 -5.000001
v -5.000000 0.030650 -5.000001
v -5.000000 0.030648 4.999999
v -5.000000 0.730650 4.999999
v -4.518438 0.030650 -5.000001
v -4.518438 0.730651 -5.000001
v 5.000000 0.030650 -5.000001
v 5.000000 0.730651 -5.000001
v 5.000000 0.730650 4.999999
v 5.000000 0.030648 4.999999
v 3.363406 9.757586 5.000000
v 3.363406 9.757587 -5.000000
v 2.522556 10.080260 -5.000000
v 2.522556 10.080258 5.000000
v -2.522555 10.080258 5.000000
v -2.522555 10.080260 -5.000000
v -3.363406 9.757587 -5.000000
v -3.363406 9.757586 5.000000
v 4.518439 0.030650 -5.000001
v 4.518439 0.730651 -5.000001
v 4.518439 0.030648 4.999999
v 4.518439 0.730650 4.999999
v -4.518438 0.030648 4.999999
v -4.518438 0.730650 4.999999
v 5.000000 1.530648 -5.000000
v 5.000000 2.730649 -5.000000
v 5.000000 2.730648 5.000000
v 5.000000 1.530646 5.000000
v -4.518438 1.530648 -5.000000
v -5.000000 1.530648 -5.000000
v -5.000000 2.730649 -5.000000
v -4.518438 2.730649 -5.000000
v -5.000000 1.530646 5.000000
v -5.000000 2.730648 5.000000
v 4.518439 1.530648 -5.000000
v 4.518439 2.730649 -5.000000
v 4.518439 1.530646 5.000000
v 4.518439 2.730648 5.000000
v 4.700002 2.730649 -4.700003
v 4.518439 2.730649 -4.700003
v 4.700002 2.730648 4.700001
v 4.518439 2.730648 4.700001
v -4.518438 2.730649 -4.700003
v -4.700002 2.730649 -4.700003
v -4.700002 2.730648 4.700001
v -4.518438 2.730648 5.000000
v -4.518438 2.730648 4.700001
v -4.518438 1.530646 5.000000
v -5.000000 6.548251 -5.000000
v -5.000000 5.830652 -5.000000
v -5.000000 5.830650 5.000000
v -5.000000 6.548249 5.000000
v -4.518438 5.830650 4.700002
v -4.518438 5.830650 5.000000
v -4.700002 5.830650 4.700002
v -4.700002 5.830652 -4.700002
v -4.518438 5.830652 -5.000000
v -4.518438 5.830652 -4.700002
v 5.000000 6.548251 -5.000000
v 5.000000 6.548249 5.000000
v 1.681705 10.402920 -4.999999
v 1.681705 10.402918 5.000001
v -1.681705 10.402918 5.000001
v -1.681705 10.402920 -4.999999
v 5.000000 5.830652 -5.000000
v 5.000000 5.830650 5.000000
v -1.541816 9.647918 -5.000000
v -1.541816 9.647916 5.000000
v -2.822425 9.156502 5.000000
v -2.822425 9.156504 -5.000000
v 1.541816 9.647918 -5.000000
v 1.541816 9.647916 5.000000
v 4.700002 5.830650 4.700002
v 4.518439 5.830650 5.000000
v 4.518439 5.830650 4.700002
v 4.700002 5.830652 -4.700002
v 4.518439 5.830652 -5.000000
v 4.518439 5.830652 -4.700002
v 2.822425 9.156504 -5.000000
v 2.822425 9.156502 5.000000
vt 1.181106 22.834650
vt 1.181106 10.629920
vt 38.188980 10.629920
vt 38.188980 22.834650
vt 37.474159 10.629920
vt 38.188980 10.629920
vt 38.188980 22.834650
vt 37.474159 22.834650
vt -1.181103 10.629920
vt -1.181103 22.834650
vt -38.188980 22.834650
vt -38.188980 10.629920
vt -1.895913 10.629920
vt -1.181103 10.629920
vt -1.181103 22.834650
vt -1.895913 22.834650
vt 1.181106 10.629920
vt 1.895916 10.629920
vt 1.895916 22.834650
vt 1.181106 22.834650
vt -1.181103 10.629920
vt -1.181103 22.834650
vt -38.188980 22.834650
vt -38.188980 10.629920
vt 1.181106 22.834650
vt 1.181106 10.629920
vt 38.188980 10.629920
vt 38.188980 22.834650
vt -38.188980 10.629920
vt -37.474159 10.629920
vt -37.474159 22.834650
vt -38.188980 22.834650
vt 0.000001 25.659821
vt 0.000001 22.834650
vt 39.370079 22.834650
vt 39.370079 25.659821
vt -37.474159 38.188980
vt -37.474159 39.370079
vt -39.370079 39.370079
vt -38.188980 38.188980
vt -38.188980 1.181106
vt -39.370079 0.000001
vt -37.474159 0.000001
vt -37.474159 1.181106
vt 0.000001 22.859171
vt 0.000001 37.042412
vt -39.370079 37.042412
vt -39.370079 22.859171
vt -39.370079 23.281111
vt 0.000001 23.281111
vt 0.000001 26.826920
vt -39.370079 26.826920
vt 39.370079 -9.929785
vt 0.000001 -9.929785
vt 0.000001 -13.475590
vt 39.370079 -13.475590
vt 0.000001 19.157030
vt 0.000001 4.973796
vt 39.370079 4.973796
vt 39.370079 19.157030
vt 13.064160 39.370079
vt 13.064160 0.000001
vt 26.305920 0.000001
vt 26.305920 39.370079
vt 0.000001 22.834650
vt 0.000001 25.659821
vt -39.370079 25.659821
vt -39.370079 22.834650
vt 0.000001 -10.480520
vt -39.370079 -10.480520
vt -39.370079 -15.880780
vt 0.000001 -15.880780
vt -25.755180 0.000001
vt -13.614900 0.000001
vt -13.614900 39.370079
vt -25.755180 39.370079
vt -1.181103 38.188980
vt 0.000001 0.000001
vt 0.000001 39.370079
vt -1.895913 39.370079
vt -1.895913 38.188980
vt -1.181103 1.181106
vt -1.895913 0.000001
vt -1.895913 1.181106
vt 0.000001 26.276180
vt 0.000001 20.875931
vt 39.370079 20.875931
vt 39.370079 26.276180
vt 37.474159 22.834650
vt 39.370079 22.834650
vt 39.370079 25.659821
vt 30.796961 35.928551
vt 32.926800 38.295029
vt 25.755180 37.863258
vt 6.443287 38.295029
vt 13.614900 37.863258
vt 8.573119 35.928551
vt 1.895916 22.834650
vt 29.616360 39.565361
vt 9.753726 39.565361
vt 26.305920 40.835701
vt 13.064160 40.835701
vt 0.000001 35.901779
vt 0.000001 21.203640
vt 1.181106 21.203640
vt 39.370079 35.901779
vt 38.188980 21.203640
vt 39.370079 21.203640
vt 0.000001 3.318261
vt 0.000001 18.016399
vt -39.370079 18.016399
vt -1.181103 3.318261
vt -38.188980 3.318261
vt -39.370079 3.318261
vt -1.895913 22.834650
vt 0.000001 22.834650
vt 0.000001 25.659821
vt -8.573116 35.928551
vt -6.443285 38.295029
vt -13.614900 37.863258
vt -25.755180 37.863258
vt -32.926788 38.295029
vt -30.796961 35.928551
vt -39.370079 25.659821
vt -39.370079 22.834650
vt -37.474159 22.834650
vt -9.753723 39.565361
vt -29.616350 39.565361
vt -13.064160 40.835701
vt -26.305920 40.835701
vt 0.000001 2.755905
vt 0.000001 5.905513
vt -39.370079 5.905513
vt -39.370079 2.755905
vt 37.474159 2.755905
vt 39.370079 2.755905
vt 39.370079 5.905513
vt 37.474159 5.905513
vt 0.000001 5.905513
vt 0.000001 2.755905
vt 39.370079 2.755905
vt 39.370079 5.905513
vt 1.895916 2.755905
vt 1.895916 5.905513
vt -1.895913 2.755905
vt 0.000001 2.755905
vt 0.000001 5.905513
vt -1.895913 5.905513
vt -39.370079 2.755905
vt -37.474159 2.755905
vt -37.474159 5.905513
vt -39.370079 5.905513
vt 0.000001 5.905513
vt 0.000001 2.755905
vt 39.370079 2.755905
vt 39.370079 5.905513
vt 0.000001 2.755905
vt 0.000001 5.905513
vt -39.370079 5.905513
vt -39.370079 2.755905
vt 0.000001 10.629920
vt -39.370079 10.629920
vt 39.370079 10.629920
vt 37.474159 10.629920
vt 0.000001 10.629920
vt 39.370079 10.629920
vt 1.895916 10.629920
vt 0.000001 10.629920
vt -1.895913 10.629920
vt 1.181106 1.181106
vt 0.000001 39.370079
vt 0.000001 0.000001
vt 1.895916 0.000001
vt 1.895916 1.181106
vt 1.181106 38.188980
vt 1.895916 39.370079
vt 1.895916 38.188980
vt 37.474159 1.181106
vt 37.474159 0.000001
vt 39.370079 0.000001
vt 38.188980 1.181106
vt 38.188980 38.188980
vt 39.370079 39.370079
vt 37.474159 39.370079
vt 37.474159 38.188980
vt -37.474159 10.629920
vt -39.370079 10.629920
vt 0.000001 10.629920
vt 39.370079 10.629920
vt 0.000001 10.629920
vt -39.370079 10.629920
vt 0.000001 0.000001
vt 0.000001 0.000001
vt 0.000001 0.000001
vt 0.000001 0.000001
vt 0.000001 0.000001
vt 0.000001 0.000001
vt 0.000001 0.000001
vt 0.000001 0.000001
vt 0.000001 0.000001
vt 0.000001 0.000001
vt -39.370079 25.659821
vt -39.370079 22.834650
vt 0.000001 22.834650
vt -39.370079 25.659821
vt -39.370079 22.834650
vt 0.000001 22.834650
vt -39.370079 25.659821
vt -39.370079 22.834650
vt 0.000001 22.834650
vt -39.370079 25.659821
vt -39.370079 22.834650
vt 0.000001 22.834650
vt 1.895916 5.905513
vt 0.000001 5.905513
vt 1.895916 5.905513
vt 0.000001 5.905513
vt 0.000001 2.755905
vt -37.474159 22.834650
vt -38.188980 22.834650
vt -38.188980 10.629920
vt -37.474159 22.834650
vt -38.188980 22.834650
vt -38.188980 10.629920
vt 0.000001 10.629920
vt -1.895913 10.629920
vt -1.895913 5.905513
vt 0.000001 10.629920
vt -1.895913 10.629920
vt -1.895913 5.905513
vt -37.474159 5.905513
vt -39.370079 5.905513
vt -37.474159 5.905513
vt -39.370079 5.905513
vt -39.370079 2.755905
vt -39.370079 5.905513
vt -39.370079 2.755905
vt 0.000001 2.755905
vt -39.370079 5.905513
vt -39.370079 2.755905
vt -39.370079 5.905513
vt -39.370079 2.755905
vt 0.000001 2.755905
vt -39.370079 5.905513
vt -39.370079 2.755905
vt 0.000001 2.755905
vt -39.370079 5.905513
vt -39.370079 2.755905
vt 0.000001 2.755905
vt -39.370079 5.905513
vt -39.370079 2.755905
vt 0.000001 2.755905
vn -1.0000 0.0039 0.0000
vn -0.0039 0.0039 -1.0000
vn 1.0000 0.0039 0.0000
vn -0.0039 0.0039 1.0000
vn -0.0039 -1.0000 -0.0000
vn 0.8902 0.4510 -0.0646
vn 0.3558 0.9345 0.0000
vn 0.3559 0.9345 -0.0000
vn -0.3558 0.9345 -0.0000
vn -0.3559 0.9345 0.0000
vn -0.8902 0.4510 -0.0646
vn -0.0039 1.0000 0.0000
vn 0.3558 -0.9345 -0.0000
vn -0.3558 -0.9345 -0.0000
vn -0.8902 -0.4510 -0.0646
vn 0.8902 -0.4510 -0.0646
usemtl glass
s 1
f 56/1/1 44/2/1 45/3/1
f 45/3/1 55/4/1 56/1/1
f 43/5/2 44/6/2 56/7/2
f 56/7/2 58/8/2 43/5/2
f 39/9/3 76/10/3 73/11/3
f 73/11/3 41/12/3 39/9/3
f 42/13/4 41/14/4 73/15/4
f 73/15/4 75/16/4 42/13/4
f 39/17/2 40/18/2 78/19/2
f 78/19/2 76/20/2 39/17/2
f 43/21/3 58/22/3 53/23/3
f 53/23/3 47/24/3 43/21/3
f 78/25/1 40/26/1 42/27/1
f 42/27/1 75/28/1 78/25/1
f 45/29/4 47/30/4 53/31/4
f 53/31/4 55/32/4 45/29/4
usemtl metal
f 49/33/1 50/34/1 51/35/1
f 51/35/1 52/36/1 49/33/1
f 53/37/5 54/38/5 51/39/5
f 51/39/5 55/40/5 53/37/5
f 51/39/5 56/41/5 55/40/5
f 56/41/5 51/39/5 50/42/5
f 56/41/5 50/42/5 57/43/5
f 57/43/5 58/44/5 56/41/5
f 59/45/6 12/46/6 11/47/6
f 11/47/6 60/48/6 59/45/6
f 14/49/7 13/50/7 61/51/7
f 61/51/7 62/52/8 14/49/7
f 63/53/9 64/54/10 16/55/9
f 16/55/9 15/56/10 63/53/9
f 17/57/11 49/58/11 52/59/11
f 52/59/11 18/60/11 17/57/11
f 62/61/12 61/62/12 64/63/12
f 64/63/12 63/64/12 62/61/12
f 65/65/3 59/66/3 60/67/3
f 60/67/3 66/68/3 65/65/3
f 67/69/13 68/70/13 69/71/13
f 69/71/13 70/72/13 67/69/13
f 67/73/5 71/74/5 72/75/5
f 72/75/5 68/76/5 67/73/5
f 73/77/5 65/78/5 66/79/5
f 66/79/5 74/80/5 73/77/5
f 74/80/5 75/81/5 73/77/5
f 65/78/5 73/77/5 76/82/5
f 76/82/5 77/83/5 65/78/5
f 76/82/5 78/84/5 77/83/5
f 71/85/14 79/86/14 80/87/14
f 80/87/14 72/88/14 71/85/14
f 57/89/2 50/90/2 49/91/2
f 49/91/2 70/92/2 57/89/2
f 49/91/2 17/93/2 70/92/2
f 17/93/2 67/94/2 70/92/2
f 67/94/2 17/93/2 12/95/2
f 71/96/2 67/94/2 12/95/2
f 79/97/2 71/96/2 12/95/2
f 79/97/2 12/95/2 59/66/2
f 79/97/2 59/66/2 65/65/2
f 65/65/2 77/98/2 79/97/2
f 17/93/2 16/99/2 12/95/2
f 16/99/2 13/100/2 12/95/2
f 16/99/2 64/101/2 13/100/2
f 64/101/2 61/102/2 13/100/2
f 79/103/15 77/104/15 78/105/15
f 78/105/15 80/106/15 79/103/15
f 78/105/15 75/107/15 80/106/15
f 75/107/15 74/108/15 80/106/15
f 57/109/16 70/110/16 69/111/16
f 69/111/16 58/112/16 57/109/16
f 69/111/16 53/113/16 58/112/16
f 69/111/16 54/114/16 53/113/16
f 74/115/4 66/116/4 60/117/4
f 60/117/4 80/118/4 74/115/4
f 60/117/4 11/119/4 80/118/4
f 11/119/4 72/120/4 80/118/4
f 11/119/4 68/121/4 72/120/4
f 68/121/4 11/119/4 18/122/4
f 69/123/4 68/121/4 18/122/4
f 69/123/4 18/122/4 52/124/4
f 69/123/4 52/124/4 51/125/4
f 51/125/4 54/126/4 69/123/4
f 11/119/4 14/127/4 18/122/4
f 14/127/4 15/128/4 18/122/4
f 14/127/4 62/129/4 15/128/4
f 62/129/4 63/130/4 15/128/4
f 8/131/3 25/132/3 28/133/3
f 28/133/3 9/134/3 8/131/3
f 6/135/2 1/136/2 30/137/2
f 30/137/2 29/138/2 6/135/2
f 30/139/1 1/140/1 4/141/1
f 4/141/1 33/142/1 30/139/1
f 8/131/2 20/143/2 35/144/2
f 35/144/2 25/132/2 8/131/2
f 22/145/4 9/146/4 28/147/4
f 28/147/4 37/148/4 22/145/4
f 4/149/4 24/150/4 48/151/4
f 48/151/4 33/152/4 4/149/4
f 35/153/1 20/154/1 22/155/1
f 22/155/1 37/156/1 35/153/1
f 6/157/3 29/158/3 48/159/3
f 48/159/3 24/160/3 6/157/3
usemtl pipe
f 25/132/3 26/161/3 27/162/3
f 27/162/3 28/133/3 25/132/3
f 29/138/2 30/137/2 31/163/2
f 31/163/2 32/164/2 29/138/2
f 31/165/1 30/139/1 33/142/1
f 33/142/1 34/166/1 31/165/1
f 25/132/2 35/144/2 36/167/2
f 36/167/2 26/161/2 25/132/2
f 37/148/4 28/147/4 27/168/4
f 27/168/4 38/169/4 37/148/4
f 39/170/12 27/171/12 26/172/12
f 26/172/12 36/173/12 39/170/12
f 36/173/12 40/174/12 39/170/12
f 27/171/12 39/170/12 41/175/12
f 41/175/12 38/176/12 27/171/12
f 41/175/12 42/177/12 38/176/12
f 43/178/12 32/179/12 31/180/12
f 31/180/12 44/181/12 43/178/12
f 31/180/12 45/182/12 44/181/12
f 45/182/12 31/180/12 34/183/12
f 45/182/12 34/183/12 46/184/12
f 46/184/12 47/185/12 45/182/12
f 33/152/4 48/151/4 46/186/4
f 46/186/4 34/187/4 33/152/4
f 36/188/1 35/153/1 37/156/1
f 37/156/1 40/26/1 36/188/1
f 37/156/1 42/27/1 40/26/1
f 37/156/1 38/189/1 42/27/1
f 29/158/3 32/190/3 43/21/3
f 43/21/3 48/159/3 29/158/3
f 43/21/3 47/24/3 48/159/3
f 47/24/3 46/191/3 48/159/3
usemtl defaultMat
f 1/192/1 2/193/1 3/194/1
f 3/194/1 4/195/1 1/192/1
f 5/196/2 2/193/2 1/192/2
f 1/192/2 6/197/2 5/196/2
f 7/198/3 8/199/3 9/200/3
f 9/200/3 10/201/3 7/198/3
f 11/202/8 12/203/8 13/204/7
f 13/205/7 14/206/7 11/207/8
f 15/208/10 16/209/9 17/210/10
f 17/211/10 18/212/10 15/213/10
f 7/214/2 19/215/2 20/154/2
f 20/216/2 8/217/2 7/218/2
f 21/219/4 10/220/4 9/221/4
f 9/222/4 22/223/4 21/224/4
f 23/225/12 5/226/12 2/227/12
f 2/228/12 3/229/12 23/230/12
f 3/231/4 23/232/4 24/160/4
f 24/233/4 4/234/4 3/235/4
f 20/236/1 19/237/1 21/238/1
f 21/239/1 22/240/1 20/154/1
f 5/241/3 6/242/3 24/243/3
f 24/244/3 23/245/3 5/246/3
f 10/247/12 7/248/12 19/249/12
f 19/250/12 21/251/12 10/252/12
