# Blender v2.79 (sub 0) OBJ File: ''
# www.blender.org
mtllib consoleScreen.mtl
o consoleScreen
v 2.279603 0.007334 -1.005993
v 2.279603 0.007333 1.056096
v -2.279603 0.007333 1.056096
v -2.279603 0.007334 -1.005993
v 2.279603 0.623037 -1.005993
v -2.279603 0.623037 -1.005993
v -2.279603 1.211061 -1.187328
v 2.279603 1.211061 -1.187328
v -2.279603 1.615679 -1.187328
v 2.279603 1.615679 -1.187328
v -1.709702 2.020296 -1.187328
v 1.709701 2.020296 -1.187328
v 2.279603 3.207335 -0.000289
v -2.279603 3.207335 -0.000289
v -2.279603 3.607332 -0.000288
v -2.279603 3.607332 0.299709
v -2.279603 3.607332 0.453316
v -2.279603 3.607332 0.753320
v 2.279603 3.607332 -0.000288
v 2.279603 3.607332 0.299709
v 2.279603 3.607332 0.453316
v 2.279603 3.607332 0.753320
v 2.279603 6.507336 0.453316
v 2.279603 6.507336 0.299710
v -2.279603 6.507336 0.299710
v -2.279603 6.507336 0.453316
v -2.064619 3.822317 0.299709
v -2.064619 6.292356 0.299710
v -2.064619 6.292356 0.376516
v -2.064619 3.822317 0.376516
v 2.064618 6.292356 0.299710
v 2.064618 6.292356 0.376516
v 2.064618 3.822317 0.299709
v 2.064618 3.822317 0.376516
v 2.064618 3.822317 0.453316
v 2.064618 6.292356 0.453316
v -2.064619 6.292356 0.453316
v -2.064619 3.822317 0.453316
vt 17.949619 11.708190
vt 0.000001 11.708190
vt 2.243704 5.099028
vt 15.705920 5.099028
vt -17.103230 15.019620
vt -0.846384 15.019620
vt -0.846384 24.744160
vt -17.103230 24.744160
vt 0.000001 0.000001
vt 0.000001 0.000001
vt 0.000001 0.000001
vt 0.000001 0.000001
vt 0.000001 0.000001
vt 0.000001 0.000001
vt 0.000001 0.000001
vt 0.000001 0.000001
vt 0.000001 0.000001
vt 0.000001 0.000001
vt 0.000001 0.000001
vt 0.000001 0.000001
vt 0.000001 0.000001
vt 0.000001 0.000001
vt 2.243704 5.099028
vt 15.705920 5.099028
vt 17.949619 11.708190
vt 2.243704 5.099028
vt 15.705920 5.099028
vt 17.949619 11.708190
vt 15.705920 5.099028
vt 15.705920 5.099028
vt 17.949619 11.708190
vt 15.705920 5.099028
vt 17.949619 11.708190
vt 15.705920 5.099028
vt 17.949619 11.708190
vt 2.243704 5.099028
vt 15.705920 5.099028
vt 17.949619 11.708190
vt 2.243704 5.099028
vt 15.705920 5.099028
vt 17.949619 11.708190
vt 2.243704 5.099028
vt 15.705920 5.099028
vt 17.949619 11.708190
vt 15.705920 5.099028
vt 17.949619 11.708190
vt 15.705920 5.099028
vt 17.949619 11.708190
vt 15.705920 5.099028
vt 17.949619 11.708190
vt 15.705920 5.099028
vt 17.949619 11.708190
vt 2.243704 5.099028
vt 15.705920 5.099028
vt 2.243704 5.099028
vt 15.705920 5.099028
vt 17.949619 11.708190
vt 2.243704 5.099028
vt 2.243704 5.099028
vt 17.949619 11.708190
vt 2.243704 5.099028
vt 2.243704 5.099028
vt 15.705920 5.099028
vt 17.949619 11.708190
vt 2.243704 5.099028
vt 15.705920 5.099028
vt 17.949619 11.708190
vt 2.243704 5.099028
vt 2.243704 5.099028
vt 15.705920 5.099028
vt 17.949619 11.708190
vt 2.243704 5.099028
vt 15.705920 5.099028
vt 17.949619 11.708190
vt 2.243704 5.099028
vt 15.705920 5.099028
vt 17.949619 11.708190
vt 15.705920 5.099028
vt 17.949619 11.708190
vt 2.243704 5.099028
vt 15.705920 5.099028
vt 15.705920 5.099028
vt 17.949619 11.708190
vt 2.243704 5.099028
vt 15.705920 5.099028
vt 17.949619 11.708190
vt 17.949619 11.708190
vt 2.243704 5.099028
vt 15.705920 5.099028
vt 17.949619 11.708190
vt 15.705920 5.099028
vt 15.705920 5.099028
vt 17.949619 11.708190
vt 2.243704 5.099028
vt 15.705920 5.099028
vt 17.949619 11.708190
vt 17.949619 11.708190
vt 2.243704 5.099028
vt 15.705920 5.099028
vt 17.949619 11.708190
vt 2.243704 5.099028
vt 15.705920 5.099028
vt 2.243704 5.099028
vt 17.949619 11.708190
vt 17.949619 11.708190
vt 15.705920 5.099028
vn -0.0039 0.7098 -0.7044
vn -0.0039 0.0039 1.0000
vn -0.0039 -1.0000 -0.0000
vn -0.0039 -0.1451 -0.9894
vn -0.0039 0.0039 -1.0000
vn 0.3883 0.5529 -0.7372
vn -0.3882 0.5530 -0.7372
vn -1.0000 0.0039 0.0000
vn 1.0000 0.0039 0.0000
vn -0.0039 0.0824 0.9966
vn -0.0039 1.0000 0.0000
usemtl glass
s 1
f 14/1/1 13/2/1 12/3/1
f 12/3/1 11/4/1 14/1/1
usemtl portal
f 30/5/2 34/6/2 32/7/2
f 32/7/2 29/8/2 30/5/2
usemtl defaultMat
f 1/9/3 2/10/3 3/11/3
f 3/11/3 4/12/3 1/9/3
f 5/13/4 6/14/4 7/15/4
f 7/15/4 8/16/4 5/13/4
f 6/14/4 5/13/4 1/9/5
f 1/9/5 4/12/5 6/14/4
f 8/16/4 7/15/4 9/17/5
f 9/17/5 10/18/5 8/16/4
f 9/17/5 11/19/5 10/18/5
f 11/19/5 12/20/5 10/18/5
f 10/18/6 12/20/6 13/21/6
f 11/19/7 9/17/7 14/22/7
f 6/23/8 4/24/8 3/25/8
f 3/26/8 14/27/8 6/28/8
f 3/26/8 15/29/8 14/1/8
f 3/26/8 16/30/8 15/31/8
f 3/26/8 17/32/8 16/33/8
f 3/26/8 18/34/8 17/35/8
f 9/36/8 7/37/8 6/28/8
f 6/23/8 14/27/8 9/38/8
f 13/39/9 19/40/9 20/41/9
f 8/42/9 10/43/9 13/44/9
f 13/39/9 5/45/9 8/46/9
f 13/39/9 1/47/9 5/48/9
f 13/39/9 2/49/9 1/50/9
f 13/39/9 20/51/9 2/52/9
f 20/53/9 21/54/9 2/52/9
f 21/55/9 22/56/9 2/52/9
f 3/26/10 2/49/10 22/57/10
f 22/58/10 18/34/10 3/25/10
f 21/55/11 20/51/11 16/33/11
f 16/59/11 17/32/11 21/60/11
f 13/39/5 14/27/5 15/31/5
f 15/61/5 19/40/5 13/44/5
f 23/62/11 24/63/11 25/64/11
f 25/65/11 26/66/11 23/67/11
f 25/65/8 16/30/8 17/35/8
f 17/68/8 26/66/8 25/64/8
f 20/53/9 24/63/9 23/67/9
f 23/62/9 21/54/9 20/41/9
f 27/69/9 28/70/9 29/71/9
f 29/72/9 30/73/9 27/74/9
f 31/75/3 32/76/3 29/71/3
f 29/72/3 28/70/3 31/77/3
f 31/75/8 33/78/8 34/79/8
f 34/80/8 32/76/8 31/77/8
f 34/80/11 33/78/11 27/74/11
f 27/69/11 30/73/11 34/79/11
f 27/69/5 20/51/5 16/33/5
f 16/59/5 25/81/5 27/74/5
f 25/65/5 28/70/5 27/74/5
f 25/65/5 31/82/5 28/83/5
f 33/84/5 24/63/5 20/41/5
f 20/53/5 27/85/5 33/86/5
f 33/84/5 31/82/5 24/87/5
f 31/75/5 25/81/5 24/87/5
f 20/53/11 19/40/11 15/31/11
f 15/61/11 16/30/11 20/41/11
f 35/88/2 17/32/2 21/60/2
f 21/55/2 23/89/2 35/90/2
f 23/62/2 36/91/2 35/90/2
f 23/62/2 37/92/2 36/93/2
f 38/94/2 26/66/2 17/35/2
f 17/68/2 35/95/2 38/96/2
f 38/94/2 37/92/2 26/97/2
f 37/98/2 23/89/2 26/97/2
f 22/58/11 21/54/11 17/35/11
f 17/68/11 18/34/11 22/57/11
f 35/88/11 34/99/11 30/100/11
f 30/101/11 38/102/11 35/90/11
f 32/103/8 34/99/8 35/90/8
f 35/88/8 36/91/8 32/104/8
f 32/103/3 36/91/3 37/105/3
f 37/98/3 29/106/3 32/104/3
f 30/101/9 29/106/9 37/105/9
f 37/98/9 38/102/9 30/100/9
