# Blender v2.79 (sub 0) OBJ File: ''
# www.blender.org
mtllib frameLow.mtl
o frameLow
v 3.577915 2.300072 3.577914
v 3.577915 1.900069 3.577914
v -3.577914 1.900069 3.577914
v 4.227090 1.900069 3.577914
v 4.227090 1.400071 3.577914
v -3.577914 2.300072 3.577914
v -4.227089 1.900069 3.577914
v -3.577914 1.400071 3.577914
v -3.577914 1.900070 -3.577915
v -3.577914 2.300073 -3.577915
v -3.577914 1.400072 -3.577915
v -3.577914 1.400072 -4.227090
v -3.577914 1.900069 4.227090
v -3.577914 1.900071 -4.227090
v 3.577915 1.900071 -4.227090
v -4.227089 1.900070 -3.577915
v 3.577915 2.300073 -3.577915
v 4.227090 2.300072 4.227090
v 4.227090 2.300073 -4.227090
v -4.227089 2.300073 -4.227090
v -4.227089 2.300072 4.227090
v 4.227090 1.900070 -3.577915
v 4.227090 1.400072 -4.227090
v 4.227090 1.400072 -3.577915
v 4.227090 1.400070 4.227089
v 3.577915 1.900070 -3.577915
v 3.577915 1.900069 4.227090
v 3.577915 1.400072 -3.577915
v 3.577915 1.400071 3.577914
v 3.577915 1.400070 4.227089
v 3.577915 1.400072 -4.227090
v -3.577914 1.400070 4.227089
v -4.227089 1.400071 3.577914
v -4.227089 1.400072 -3.577915
v -4.227089 1.400070 4.227089
v -4.227089 1.400072 -4.227090
v 4.227090 0.000071 -4.227090
v 4.227090 0.000070 -3.577916
v 3.577915 0.000070 -3.577916
v 3.577915 0.000071 -4.227090
v 4.227090 0.500070 -4.227090
v 3.577915 0.500070 -4.227090
v 4.227090 0.500069 -3.577916
v 3.577915 0.500069 -3.577916
v 4.227090 0.000069 3.577914
v 4.227090 0.000069 4.227089
v 3.577915 0.000069 4.227089
v 3.577915 0.000069 3.577914
v 4.227090 0.500068 3.577914
v 4.227090 0.500068 4.227089
v 3.577915 0.500068 4.227089
v 3.577915 0.500068 3.577914
v -3.577914 0.000069 3.577914
v -3.577914 0.000069 4.227089
v -4.227089 0.000069 4.227089
v -4.227089 0.000069 3.577914
v -4.227089 0.500068 3.577914
v -4.227089 0.500068 4.227089
v -3.577914 0.500068 3.577914
v -3.577914 0.500068 4.227089
v -3.577914 0.000071 -4.227090
v -3.577914 0.000070 -3.577916
v -4.227089 0.000070 -3.577916
v -4.227089 0.000071 -4.227090
v -3.577914 0.500070 -4.227090
v -3.577914 0.500069 -3.577916
v -4.227089 0.500069 -3.577916
v -4.227089 0.500070 -4.227090
vt 3.042948 2.362206
vt 3.042948 -1.181105
vt 5.598768 -1.181105
vt 5.598768 2.362206
vt -3.042948 -1.181105
vt -3.042948 2.362206
vt -5.598759 2.362206
vt -5.598759 -1.181105
vt -5.598759 -1.181105
vt -3.042948 -1.181105
vt -3.042948 2.362206
vt -5.598759 2.362206
vt 3.042948 2.362206
vt 3.042948 -1.181105
vt 5.598768 -1.181105
vt 5.598768 2.362206
vt -3.042948 -1.181105
vt -3.042948 2.362206
vt -5.598759 2.362206
vt -5.598759 -1.181105
vt -36.327129 -1.181105
vt -33.771309 -1.181105
vt -33.771309 2.362206
vt -36.327129 2.362206
vt 3.042948 2.362206
vt 3.042948 -1.181105
vt 5.598768 -1.181105
vt 5.598768 2.362206
vt 33.771320 -1.181105
vt 36.327129 -1.181105
vt 36.327129 2.362206
vt 33.771320 2.362206
vt 33.771320 2.362206
vt 33.771320 -1.181105
vt 36.327129 -1.181105
vt 36.327129 2.362206
vt 33.771320 -1.181105
vt 36.327129 -1.181105
vt 36.327129 2.362206
vt 33.771320 2.362206
vt -33.771309 -1.181105
vt -33.771309 2.362206
vt -36.327129 2.362206
vt -36.327129 -1.181105
vt -36.327129 -1.181105
vt -33.771309 -1.181105
vt -33.771309 2.362206
vt -36.327129 2.362206
vt -33.771309 -1.181105
vt -33.771309 2.362206
vt -36.327129 2.362206
vt -36.327129 -1.181105
vt -5.598759 -1.181105
vt -3.042948 -1.181105
vt -3.042948 2.362206
vt -5.598759 2.362206
vt 33.771320 2.362206
vt 33.771320 -1.181105
vt 36.327129 -1.181105
vt 36.327129 2.362206
vt 3.042948 -1.181105
vt 5.598768 -1.181105
vt 5.598768 2.362206
vt 3.042948 2.362206
vt 0.000004 0.000004
vt 0.000004 0.000004
vt -36.327129 0.000004
vt 0.000004 0.000004
vt -36.327129 0.000004
vt 0.000004 0.000004
vt 0.000004 0.000004
vt -36.327129 0.000004
vt 0.000004 0.000004
vt -36.327129 0.000004
vt 0.000004 0.000004
vt 0.000004 0.000004
vt -36.327129 0.000004
vt 0.000004 0.000004
vt -36.327129 0.000004
vt -36.327129 0.000004
vt 0.000004 0.000004
vt -36.327129 0.000004
vt -36.327129 0.000004
vt 0.000004 0.000004
vt -36.327129 0.000004
vt 0.000004 0.000004
vt -36.327129 0.000004
vt 0.000004 0.000004
vt 0.000004 0.000004
vt 0.000004 0.000004
vt -36.327129 0.000004
vt 0.000004 0.000004
vt 0.000004 0.000004
vt -36.327129 0.000004
vt -36.327129 0.000004
vt -36.327129 0.000004
vt 0.000004 0.000004
vt -36.327129 0.000004
vt 0.000004 0.000004
vt 0.000004 0.000004
vt -36.327129 0.000004
vt -36.327129 0.000004
vt 0.000004 0.000004
vt -36.327129 0.000004
vt 0.000004 0.000004
vt 0.000004 0.000004
vt 0.000004 0.000004
vt 0.000004 0.000004
vt 0.000004 0.000004
vt 0.000004 0.000004
vt -36.327129 0.000004
vt 0.000004 0.000004
vt -36.327129 0.000004
vt 0.000004 0.000004
vt 0.000004 0.000004
vt 0.000004 0.000004
vt -36.327129 0.000004
vt -36.327129 0.000004
vt 0.000004 0.000004
vt -36.327129 0.000004
vt 0.000004 0.000004
vt -36.327129 0.000004
vt -36.327129 0.000004
vt 0.000004 0.000004
vt -36.327129 0.000004
vt 0.000004 0.000004
vt 0.000004 0.000004
vt -36.327129 0.000004
vt -36.327129 0.000004
vt 5.598768 -1.181105
vt 5.598768 2.362206
vt 3.042948 2.362206
vt 5.598768 -1.181105
vt 5.598768 2.362206
vt 3.042948 2.362206
vt 5.598768 -1.181105
vt 5.598768 2.362206
vt 3.042948 2.362206
vt 5.598768 -1.181105
vt 5.598768 2.362206
vt 3.042948 2.362206
vt 5.598768 2.362206
vt 3.042948 2.362206
vt 5.598768 -1.181105
vt 5.598768 2.362206
vt 3.042948 2.362206
vt 5.598768 2.362206
vt 3.042948 2.362206
vt 3.042948 -1.181105
vt 5.598768 2.362206
vt 3.042948 2.362206
vt 3.042948 -1.181105
vt 3.042948 2.362206
vt 3.042948 -1.181105
vt 5.598768 2.362206
vt 3.042948 2.362206
vt 5.598768 2.362206
vt 3.042948 -1.181105
vt 5.598768 2.362206
vt 3.042948 2.362206
vt 3.042948 -1.181105
vt 5.598768 2.362206
vt 3.042948 2.362206
vt 3.042948 -1.181105
vt 5.598768 2.362206
vt 3.042948 2.362206
vt 3.042948 -1.181105
vt 3.042948 2.362206
vt 3.042948 -1.181105
vt 5.598768 2.362206
vt 5.598768 2.362206
vt 3.042948 2.362206
vt 3.042948 -1.181105
vt 5.598768 2.362206
vt 3.042948 2.362206
vt 3.042948 -1.181105
vt 3.042948 2.362206
vt 3.042948 -1.181105
vt 5.598768 2.362206
vt 3.042948 2.362206
vt 5.598768 2.362206
vn -0.0039 0.0039 -1.0000
vn 1.0000 0.0039 0.0000
vn -0.0039 0.0039 1.0000
vn -1.0000 0.0039 -0.0000
vn -0.0039 -1.0000 -0.0000
vn -0.0039 1.0000 0.0000
usemtl metal
s 1
f 23/1/1 41/2/1 42/3/1
f 42/3/1 31/4/1 23/1/1
f 41/5/2 23/6/2 24/7/2
f 24/7/2 43/8/2 41/5/2
f 44/9/3 43/10/3 24/11/3
f 24/11/3 28/12/3 44/9/3
f 31/13/4 42/14/4 44/15/4
f 44/15/4 28/16/4 31/13/4
f 65/17/2 12/18/2 11/19/2
f 11/19/2 66/20/2 65/17/2
f 67/21/3 66/22/3 11/23/3
f 11/23/3 34/24/3 67/21/3
f 36/25/4 68/26/4 67/27/4
f 67/27/4 34/28/4 36/25/4
f 65/29/1 68/30/1 36/31/1
f 36/31/1 12/32/1 65/29/1
f 33/33/4 57/34/4 58/35/4
f 58/35/4 35/36/4 33/33/4
f 59/37/1 57/38/1 33/39/1
f 33/39/1 8/40/1 59/37/1
f 59/41/2 8/42/2 32/43/2
f 32/43/2 60/44/2 59/41/2
f 58/45/3 60/46/3 32/47/3
f 32/47/3 35/48/3 58/45/3
f 49/49/2 5/50/2 25/51/2
f 25/51/2 50/52/2 49/49/2
f 51/53/3 50/54/3 25/55/3
f 25/55/3 30/56/3 51/53/3
f 29/57/4 52/58/4 51/59/4
f 51/59/4 30/60/4 29/57/4
f 49/61/1 52/62/1 29/63/1
f 29/63/1 5/64/1 49/61/1
usemtl defaultMat
f 1/65/1 2/66/1 3/67/1
f 2/66/1 4/68/1 5/69/1
f 3/70/1 6/71/1 1/72/1
f 7/73/1 3/70/1 8/74/1
f 9/75/2 10/76/2 6/77/2
f 9/75/2 11/78/2 12/79/2
f 6/71/2 3/70/2 9/80/2
f 8/81/2 3/70/2 13/82/2
f 9/75/5 3/70/5 7/83/5
f 9/75/5 14/84/5 15/85/5
f 13/86/5 3/70/5 2/87/5
f 7/73/5 16/88/5 9/80/5
f 17/89/6 18/90/6 19/91/6
f 18/90/6 17/89/6 1/72/6
f 19/92/6 20/93/6 17/94/6
f 20/93/6 10/76/6 17/94/6
f 20/93/6 6/71/6 10/95/6
f 6/71/6 20/93/6 21/96/6
f 1/65/6 6/71/6 21/96/6
f 1/65/6 21/97/6 18/98/6
f 22/99/2 23/100/2 19/91/2
f 23/100/2 22/99/2 24/101/2
f 19/92/2 18/90/2 22/102/2
f 18/90/2 4/68/2 22/102/2
f 18/90/2 5/103/2 4/104/2
f 18/90/2 25/105/2 5/69/2
f 22/99/5 4/68/5 2/87/5
f 2/66/5 26/106/5 22/102/5
f 15/107/5 26/106/5 9/80/5
f 2/66/5 27/108/5 13/82/5
f 17/89/4 26/106/4 2/87/4
f 28/109/4 26/106/4 15/85/4
f 2/66/4 1/65/4 17/94/4
f 2/66/4 29/110/4 30/111/4
f 28/109/3 24/112/3 22/102/3
f 22/99/3 26/106/3 28/113/3
f 26/106/3 17/89/3 10/95/3
f 15/107/4 31/114/4 28/113/4
f 13/86/2 32/115/2 8/74/2
f 8/81/1 33/116/1 7/83/1
f 10/76/3 9/75/3 26/117/3
f 9/75/3 16/88/3 34/118/3
f 5/103/1 29/110/1 2/87/1
f 30/119/3 25/105/3 18/98/3
f 18/90/3 27/108/3 30/111/3
f 18/90/3 13/86/3 27/120/3
f 13/86/3 18/90/3 21/96/3
f 32/115/3 13/86/3 21/96/3
f 21/97/3 35/121/3 32/122/3
f 30/119/4 27/108/4 2/87/4
f 7/73/4 33/116/4 35/123/4
f 16/88/4 7/73/4 21/96/4
f 34/124/4 16/88/4 20/125/4
f 16/88/4 21/97/4 20/125/4
f 7/73/4 35/121/4 21/96/4
f 20/93/4 36/126/4 34/118/4
f 12/127/1 36/126/1 20/125/1
f 20/93/1 14/84/1 12/79/1
f 20/93/1 15/107/1 14/128/1
f 15/107/1 20/93/1 19/91/1
f 31/114/1 15/107/1 19/91/1
f 19/92/1 23/100/1 31/129/1
f 12/127/2 14/84/2 9/80/2
f 34/124/3 11/78/3 9/80/3
f 37/130/5 38/131/5 39/132/5
f 39/133/5 40/134/5 37/135/5
f 41/136/1 37/137/1 40/138/1
f 40/139/1 42/140/1 41/141/1
f 37/130/2 41/142/2 43/143/2
f 43/144/2 38/131/2 37/135/2
f 39/133/3 38/131/3 43/143/3
f 43/144/3 44/145/3 39/132/3
f 42/3/4 40/134/4 39/132/4
f 39/133/4 44/145/4 42/146/4
f 45/147/5 46/148/5 47/149/5
f 47/150/5 48/151/5 45/152/5
f 45/147/2 49/153/2 50/154/2
f 50/155/2 46/148/2 45/152/2
f 47/150/3 46/148/3 50/154/3
f 50/155/3 51/156/3 47/149/3
f 52/157/4 48/151/4 47/149/4
f 47/150/4 51/156/4 52/158/4
f 45/147/1 48/151/1 52/158/1
f 52/157/1 49/153/1 45/152/1
f 53/159/5 54/160/5 55/161/5
f 55/162/5 56/163/5 53/164/5
f 57/165/4 56/163/4 55/161/4
f 55/162/4 58/166/4 57/167/4
f 53/159/1 56/163/1 57/167/1
f 57/165/1 59/168/1 53/164/1
f 53/159/2 59/168/2 60/169/2
f 60/170/2 54/160/2 53/164/2
f 55/162/3 54/160/3 60/169/3
f 60/170/3 58/166/3 55/161/3
f 61/171/5 62/172/5 63/173/5
f 63/174/5 64/175/5 61/176/5
f 61/171/2 65/177/2 66/178/2
f 66/179/2 62/172/2 61/176/2
f 63/174/3 62/172/3 66/178/3
f 66/179/3 67/180/3 63/173/3
f 68/181/4 64/175/4 63/173/4
f 63/174/4 67/180/4 68/26/4
f 61/171/1 64/175/1 68/26/1
f 68/181/1 65/177/1 61/176/1
