# Blender v2.79 (sub 0) OBJ File: ''
# www.blender.org
mtllib frameLowTile.mtl
o frameLowTile
v 3.577913 2.304153 3.577912
v 3.577913 1.904153 3.577911
v -3.577912 1.904153 3.577911
v -3.577912 2.304153 3.577912
v -4.227091 1.904153 3.577911
v -3.577912 1.404145 3.577911
v -4.227091 1.404145 3.577911
v 4.227092 1.404145 3.577911
v 3.577913 1.404145 3.577911
v 4.227092 1.904153 3.577911
v -3.577912 1.904155 -3.577913
v -3.577912 2.304154 -3.577913
v -3.577912 1.904153 4.227091
v -3.577912 1.404145 4.227090
v -3.577912 1.404146 -4.227093
v -3.577912 1.904155 -4.227093
v -3.577912 1.404146 -3.577913
v -4.227091 1.904155 -3.577913
v 3.577913 1.904155 -4.227093
v 3.577913 1.904155 -3.577913
v 4.227092 1.904155 -3.577913
v 3.577913 1.904153 4.227091
v 4.227092 1.404146 -4.227093
v 4.227092 2.304154 -4.227093
v 4.227092 2.304152 4.227091
v 4.227092 1.404145 4.227090
v 4.227092 1.404146 -3.577913
v 3.577913 2.304154 -3.577913
v 3.577913 1.404146 -4.227093
v 3.577913 1.404146 -3.577913
v 3.577913 1.404145 4.227090
v -4.227091 1.404146 -3.577913
v -4.227091 2.304152 4.227091
v -4.227091 1.404145 4.227090
v -4.227091 2.304154 -4.227093
v -4.227091 1.404146 -4.227093
v 4.227092 0.004150 -4.227093
v 4.227092 0.004150 -3.577913
v 3.577913 0.004150 -3.577913
v 3.577913 0.004150 -4.227093
v 4.227092 0.504148 -4.227093
v 3.577913 0.504148 -4.227093
v 4.227092 0.504148 -3.577913
v 3.577913 0.504148 -3.577913
v 4.227092 0.004148 3.577911
v 4.227092 0.004148 4.227090
v 3.577913 0.004148 4.227090
v 3.577913 0.004148 3.577911
v 4.227092 0.504147 3.577911
v 4.227092 0.504147 4.227090
v 3.577913 0.504147 4.227090
v 3.577913 0.504147 3.577911
v -3.577912 0.004148 3.577911
v -3.577912 0.004148 4.227090
v -4.227091 0.004148 4.227090
v -4.227091 0.004148 3.577911
v -4.227091 0.504147 3.577911
v -4.227091 0.504147 4.227090
v -3.577912 0.504147 3.577911
v -3.577912 0.504147 4.227090
v -3.577912 0.004150 -4.227093
v -3.577912 0.004150 -3.577913
v -4.227091 0.004150 -3.577913
v -4.227091 0.004150 -4.227093
v -3.577912 0.504148 -4.227093
v -3.577912 0.504148 -3.577913
v -4.227091 0.504148 -3.577913
v -4.227091 0.504148 -4.227093
v 3.256572 2.704153 -3.256573
v 3.256572 2.304154 -3.256573
v 3.256572 2.304153 3.256571
v 3.256572 2.704152 3.256571
v 3.256572 3.104152 -3.256573
v 3.256572 3.104151 3.256571
v 5.000002 2.304154 -4.096863
v 5.000002 3.104152 -4.096863
v 5.000002 3.104151 4.096862
v 5.000002 2.304152 4.096862
v -3.256571 2.304154 -3.256573
v -3.256571 2.704153 -3.256573
v -3.256571 3.104152 -3.256573
v -3.256571 2.704152 3.256571
v -3.256571 2.304153 3.256571
v -3.256571 3.104151 3.256571
v -4.096862 2.304152 5.000000
v 4.096863 2.304152 5.000000
v 4.096863 3.104151 5.000000
v -4.096862 3.104151 5.000000
v -4.096862 3.104152 -5.000002
v -4.096862 2.304154 -5.000002
v -5.000000 2.304154 -4.096863
v -5.000000 3.104152 -4.096863
v -5.000000 3.104151 4.096862
v -5.000000 2.304152 4.096862
v 4.096863 2.304154 -5.000002
v 4.096863 3.104152 -5.000002
v 4.096863 3.104152 -4.096863
v -4.096862 3.104152 -4.096863
v -4.096862 3.104151 4.096862
v 4.096863 3.104151 4.096862
vt 3.042949 2.362207
vt 3.042949 -1.181106
vt 5.598768 -1.181106
vt 5.598768 2.362207
vt -3.042949 -1.181106
vt -3.042949 2.362207
vt -5.598759 2.362207
vt -5.598759 -1.181106
vt -5.598759 -1.181106
vt -3.042949 -1.181106
vt -3.042949 2.362207
vt -5.598759 2.362207
vt 3.042949 2.362207
vt 3.042949 -1.181106
vt 5.598768 -1.181106
vt 5.598768 2.362207
vt -3.042949 -1.181106
vt -3.042949 2.362207
vt -5.598759 2.362207
vt -5.598759 -1.181106
vt -36.327129 -1.181106
vt -33.771320 -1.181106
vt -33.771320 2.362207
vt -36.327129 2.362207
vt 3.042949 2.362207
vt 3.042949 -1.181106
vt 5.598768 -1.181106
vt 5.598768 2.362207
vt 33.771320 -1.181106
vt 36.327129 -1.181106
vt 36.327129 2.362207
vt 33.771320 2.362207
vt 33.771320 2.362207
vt 33.771320 -1.181106
vt 36.327129 -1.181106
vt 36.327129 2.362207
vt 33.771320 -1.181106
vt 36.327129 -1.181106
vt 36.327129 2.362207
vt 33.771320 2.362207
vt -36.327129 -1.181106
vt -33.771320 -1.181106
vt -33.771320 2.362207
vt -36.327129 2.362207
vt -36.327129 -1.181106
vt -33.771320 -1.181106
vt -33.771320 2.362207
vt -36.327129 2.362207
vt -33.771320 -1.181106
vt -33.771320 2.362207
vt -36.327129 2.362207
vt -36.327129 -1.181106
vt -5.598759 -1.181106
vt -3.042949 -1.181106
vt -3.042949 2.362207
vt -5.598759 2.362207
vt 33.771320 2.362207
vt 33.771320 -1.181106
vt 36.327129 -1.181106
vt 36.327129 2.362207
vt 3.042949 -1.181106
vt 5.598768 -1.181106
vt 5.598768 2.362207
vt 3.042949 2.362207
vt 6.863889 7.480323
vt 6.863889 5.905512
vt 32.506199 5.905512
vt 32.506199 7.480323
vt 6.863889 9.055124
vt 32.506199 9.055124
vt -3.555652 5.905512
vt -3.555652 9.055124
vt -35.814419 9.055124
vt -35.814419 5.905512
vt -32.506199 5.905512
vt -6.863879 5.905512
vt -6.863879 7.480323
vt -32.506199 7.480323
vt -6.863879 9.055124
vt -32.506199 9.055124
vt -6.863879 5.905512
vt -6.863879 7.480323
vt -32.506199 7.480323
vt -32.506199 5.905512
vt -32.506199 9.055124
vt -6.863879 9.055124
vt -35.814419 5.905512
vt -3.555652 5.905512
vt -3.555652 9.055124
vt -35.814419 9.055124
vt 25.324619 9.055124
vt 25.324619 5.905512
vt 30.353081 5.905512
vt 30.353081 9.055124
vt -25.324619 5.905512
vt -25.324619 9.055124
vt -30.353081 9.055124
vt -30.353081 5.905512
vt -2.514232 9.055124
vt -2.514232 5.905512
vt 2.514232 5.905512
vt 2.514232 9.055124
vt 3.555662 5.905512
vt 35.814419 5.905512
vt 35.814419 9.055124
vt 3.555662 9.055124
vt -3.042949 36.327129
vt 0.000005 3.555662
vt 0.000005 35.814419
vt -3.555652 39.370079
vt -36.327129 36.327129
vt -35.814419 39.370079
vt -39.370079 35.814419
vt -36.327129 3.042949
vt -3.042949 3.042949
vt -3.555652 0.000005
vt -35.814419 0.000005
vt -39.370079 3.555662
vt 2.514232 5.905512
vt 2.514232 9.055124
vt -2.514232 9.055124
vt -2.514232 5.905512
vt 3.555662 9.055124
vt 3.555662 5.905512
vt 35.814419 5.905512
vt 35.814419 9.055124
vt 3.555662 3.555662
vt 3.555662 0.000005
vt 35.814419 0.000005
vt 35.814419 3.555662
vt 39.370079 3.555662
vt 35.814419 35.814419
vt 35.814419 39.370079
vt 39.370079 35.814419
vt 3.555662 39.370079
vt 0.000005 35.814419
vt 0.000005 3.555662
vt 3.555662 35.814419
vt 6.863889 7.480323
vt 32.506199 7.480323
vt 32.506199 9.055124
vt 6.863889 9.055124
vt 6.863889 5.905512
vt 32.506199 5.905512
vt 3.000005 1.999999
vt 3.000005 4.000002
vt 1.000002 4.000002
vt 1.000002 1.999999
vt 0.000005 0.000005
vt 0.000005 0.000005
vt 0.000005 0.000005
vt 0.000005 0.000005
vt 0.000005 0.000005
vt 0.000005 0.000005
vt 0.000005 0.000005
vt 0.000005 0.000005
vt 0.000005 0.000005
vt 0.000005 0.000005
vt 0.000005 0.000005
vt 0.000005 0.000005
vt 0.000005 0.000005
vt 0.000005 0.000005
vt 0.000005 0.000005
vt 0.000005 0.000005
vt 0.000005 0.000005
vt 0.000005 0.000005
vt 0.000005 0.000005
vt 0.000005 0.000005
vt 0.000005 0.000005
vt 0.000005 0.000005
vt 0.000005 0.000005
vt 0.000005 0.000005
vt 0.000005 0.000005
vt 0.000005 0.000005
vt 0.000005 0.000005
vt 0.000005 0.000005
vt 0.000005 0.000005
vt 0.000005 0.000005
vt 0.000005 0.000005
vt 0.000005 0.000005
vt 0.000005 0.000005
vt 0.000005 0.000005
vt 0.000005 0.000005
vt 0.000005 0.000005
vt 5.598768 -1.181106
vt 5.598768 2.362207
vt 3.042949 2.362207
vt 5.598768 -1.181106
vt 5.598768 2.362207
vt 3.042949 2.362207
vt 5.598768 -1.181106
vt 5.598768 2.362207
vt 3.042949 2.362207
vt 5.598768 -1.181106
vt 5.598768 2.362207
vt 3.042949 2.362207
vt 5.598768 2.362207
vt 3.042949 2.362207
vt 5.598768 -1.181106
vt 5.598768 2.362207
vt 3.042949 2.362207
vt 5.598768 2.362207
vt 3.042949 2.362207
vt 3.042949 -1.181106
vt 5.598768 2.362207
vt 3.042949 2.362207
vt 3.042949 -1.181106
vt 5.598768 2.362207
vt 3.042949 2.362207
vt 5.598768 2.362207
vt 3.042949 2.362207
vt 3.042949 -1.181106
vt 3.042949 -1.181106
vt 5.598768 2.362207
vt 3.042949 2.362207
vt 5.598768 2.362207
vt 3.042949 -1.181106
vt 3.042949 2.362207
vt 5.598768 2.362207
vt 3.042949 2.362207
vt 3.042949 -1.181106
vt 5.598768 2.362207
vt 3.042949 2.362207
vt 3.042949 -1.181106
vt 5.598768 2.362207
vt 3.042949 2.362207
vt 3.042949 -1.181106
vt 3.042949 2.362207
vt 3.042949 -1.181106
vt 5.598768 2.362207
vt 5.598768 2.362207
vt 3.042949 2.362207
vt 3.042949 -1.181106
vt 5.598768 2.362207
vt 3.042949 2.362207
vt 3.042949 -1.181106
vt 3.042949 2.362207
vt 3.042949 -1.181106
vt 5.598768 2.362207
vt 3.042949 2.362207
vt 5.598768 2.362207
vt 6.863889 6.863889
vt 32.506199 6.863889
vt 32.506199 32.506199
vt 6.863889 32.506199
vn -0.0039 0.0039 -1.0000
vn 1.0000 0.0039 0.0000
vn -0.0039 0.0039 1.0000
vn -1.0000 0.0039 -0.0000
vn -0.7098 0.0039 -0.7044
vn 0.7098 0.0039 0.7044
vn -0.7098 0.0039 0.7044
vn -0.0039 -1.0000 -0.0000
vn 0.7098 0.0039 -0.7044
vn 0.7037 0.7105 0.0000
vn -0.0039 1.0000 0.0000
vn -0.7103 0.1170 0.6941
usemtl metal
s 1
f 23/1/1 41/2/1 42/3/1
f 42/3/1 29/4/1 23/1/1
f 41/5/2 23/6/2 27/7/2
f 27/7/2 43/8/2 41/5/2
f 44/9/3 43/10/3 27/11/3
f 27/11/3 30/12/3 44/9/3
f 29/13/4 42/14/4 44/15/4
f 44/15/4 30/16/4 29/13/4
f 65/17/2 15/18/2 17/19/2
f 17/19/2 66/20/2 65/17/2
f 67/21/3 66/22/3 17/23/3
f 17/23/3 32/24/3 67/21/3
f 36/25/4 68/26/4 67/27/4
f 67/27/4 32/28/4 36/25/4
f 65/29/1 68/30/1 36/31/1
f 36/31/1 15/32/1 65/29/1
f 7/33/4 57/34/4 58/35/4
f 58/35/4 34/36/4 7/33/4
f 59/37/1 57/38/1 7/39/1
f 7/39/1 6/40/1 59/37/1
f 60/41/2 59/42/2 6/43/2
f 6/43/2 14/44/2 60/41/2
f 58/45/3 60/46/3 14/47/3
f 14/47/3 34/48/3 58/45/3
f 49/49/2 8/50/2 26/51/2
f 26/51/2 50/52/2 49/49/2
f 51/53/3 50/54/3 26/55/3
f 26/55/3 31/56/3 51/53/3
f 9/57/4 52/58/4 51/59/4
f 51/59/4 31/60/4 9/57/4
f 49/61/1 52/62/1 9/63/1
f 9/63/1 8/64/1 49/61/1
f 69/65/4 70/66/4 71/67/4
f 71/67/4 72/68/4 69/65/4
f 73/69/4 69/65/4 72/68/4
f 72/68/4 74/70/4 73/69/4
f 75/71/2 76/72/2 77/73/2
f 77/73/2 78/74/2 75/71/2
f 79/75/3 70/76/3 69/77/3
f 69/77/3 80/78/3 79/75/3
f 80/78/3 69/77/3 73/79/3
f 73/79/3 81/80/3 80/78/3
f 79/81/2 80/82/2 82/83/2
f 82/83/2 83/84/2 79/81/2
f 84/85/2 82/83/2 80/82/2
f 80/82/2 81/86/2 84/85/2
f 85/87/3 86/88/3 87/89/3
f 87/89/3 88/90/3 85/87/3
f 89/91/5 90/92/5 91/93/5
f 91/93/5 92/94/5 89/91/5
f 78/95/6 77/96/6 87/97/6
f 87/97/6 86/98/6 78/95/6
f 93/99/7 94/100/7 85/101/7
f 85/101/7 88/102/7 93/99/7
f 95/103/1 90/104/1 89/105/1
f 89/105/1 96/106/1 95/103/1
f 25/107/8 75/108/8 78/109/8
f 78/109/8 86/110/8 25/107/8
f 86/110/8 33/111/8 25/107/8
f 86/110/8 85/112/8 33/111/8
f 85/112/8 94/113/8 33/111/8
f 94/113/8 35/114/8 33/111/8
f 75/108/8 25/107/8 24/115/8
f 24/115/8 95/116/8 75/108/8
f 24/115/8 35/114/8 95/116/8
f 35/114/8 90/117/8 95/116/8
f 35/114/8 91/118/8 90/117/8
f 35/114/8 94/113/8 91/118/8
f 95/119/9 96/120/9 76/121/9
f 76/121/9 75/122/9 95/119/9
f 92/123/4 91/124/4 94/125/4
f 94/125/4 93/126/4 92/123/4
f 97/127/10 96/128/11 89/129/11
f 89/129/11 98/130/11 97/127/10
f 89/129/11 92/131/11 98/130/11
f 92/131/11 99/132/11 98/130/11
f 92/131/11 88/133/11 99/132/11
f 92/131/11 93/134/11 88/133/11
f 96/128/11 97/127/10 87/135/11
f 99/132/11 88/133/11 87/135/11
f 96/128/11 87/135/11 77/136/11
f 77/136/11 76/137/11 96/128/11
f 97/127/10 100/138/12 87/135/11
f 100/138/12 99/132/11 87/135/11
f 72/139/1 82/140/1 84/141/1
f 84/141/1 74/142/1 72/139/1
f 82/140/1 72/139/1 71/143/1
f 71/143/1 83/144/1 82/140/1
usemtl net
f 80/145/11 82/146/11 72/147/11
f 72/147/8 80/145/8 69/148/8
usemtl defaultMat
f 1/149/1 2/150/1 3/151/1
f 3/151/1 4/152/1 1/149/1
f 5/153/1 3/151/1 6/154/1
f 6/154/1 7/155/1 5/153/1
f 8/156/1 9/157/1 2/150/1
f 2/150/1 10/158/1 8/156/1
f 11/159/2 12/160/2 4/152/2
f 4/152/2 3/151/2 11/159/2
f 6/154/2 3/151/2 13/161/2
f 13/161/2 14/162/2 6/154/2
f 15/163/2 16/164/2 11/159/2
f 11/159/2 17/165/2 15/163/2
f 11/159/8 3/151/8 5/153/8
f 5/153/8 18/166/8 11/159/8
f 19/167/8 20/168/8 11/159/8
f 11/159/8 16/164/8 19/167/8
f 2/150/8 20/168/8 21/169/8
f 21/169/8 10/158/8 2/150/8
f 13/161/8 3/151/8 2/150/8
f 2/150/8 22/170/8 13/161/8
f 21/169/2 23/171/2 24/172/2
f 24/172/2 25/173/2 21/169/2
f 25/173/2 10/158/2 21/169/2
f 25/173/2 8/156/2 10/158/2
f 25/173/2 26/174/2 8/156/2
f 23/171/2 21/169/2 27/175/2
f 28/176/4 20/168/4 2/150/4
f 2/150/4 1/149/4 28/176/4
f 20/168/4 19/167/4 29/177/4
f 29/177/4 30/178/4 20/168/4
f 2/150/4 9/157/4 31/179/4
f 31/179/4 22/170/4 2/150/4
f 30/178/3 27/175/3 21/169/3
f 21/169/3 20/168/3 30/178/3
f 12/160/3 11/159/3 20/168/3
f 20/168/3 28/176/3 12/160/3
f 32/180/3 17/165/3 11/159/3
f 11/159/3 18/166/3 32/180/3
f 31/179/3 26/174/3 25/173/3
f 25/173/3 22/170/3 31/179/3
f 25/173/3 13/161/3 22/170/3
f 13/161/3 25/173/3 33/181/3
f 14/162/3 13/161/3 33/181/3
f 33/181/3 34/182/3 14/162/3
f 5/153/4 7/155/4 34/182/4
f 5/153/4 34/182/4 33/181/4
f 18/166/4 5/153/4 33/181/4
f 18/166/4 33/181/4 35/183/4
f 32/180/4 18/166/4 35/183/4
f 35/183/4 36/184/4 32/180/4
f 15/163/1 36/184/1 35/183/1
f 35/183/1 16/164/1 15/163/1
f 35/183/1 19/167/1 16/164/1
f 19/167/1 35/183/1 24/172/1
f 29/177/1 19/167/1 24/172/1
f 24/172/1 23/171/1 29/177/1
f 37/185/8 38/186/8 39/187/8
f 39/188/8 40/189/8 37/190/8
f 41/191/1 37/192/1 40/193/1
f 40/194/1 42/195/1 41/196/1
f 37/185/2 41/197/2 43/198/2
f 43/199/2 38/186/2 37/190/2
f 39/188/3 38/186/3 43/198/3
f 43/199/3 44/200/3 39/187/3
f 42/3/4 40/189/4 39/187/4
f 39/188/4 44/200/4 42/201/4
f 45/202/8 46/203/8 47/204/8
f 47/205/8 48/206/8 45/207/8
f 46/208/2 45/209/2 49/61/2
f 49/210/2 50/211/2 46/212/2
f 47/205/3 46/203/3 50/213/3
f 50/214/3 51/215/3 47/204/3
f 52/216/4 48/206/4 47/204/4
f 47/205/4 51/215/4 52/217/4
f 45/202/1 48/206/1 52/217/1
f 52/216/1 49/218/1 45/207/1
f 53/219/8 54/220/8 55/221/8
f 55/222/8 56/223/8 53/224/8
f 57/225/4 56/223/4 55/221/4
f 55/222/4 58/226/4 57/227/4
f 53/219/1 56/223/1 57/227/1
f 57/225/1 59/228/1 53/224/1
f 53/219/2 59/228/2 60/229/2
f 60/230/2 54/220/2 53/224/2
f 55/222/3 54/220/3 60/229/3
f 60/230/3 58/226/3 55/221/3
f 61/231/8 62/232/8 63/233/8
f 63/234/8 64/235/8 61/236/8
f 61/231/2 65/237/2 66/238/2
f 66/239/2 62/232/2 61/236/2
f 63/234/3 62/232/3 66/238/3
f 66/239/3 67/240/3 63/233/3
f 68/241/4 64/235/4 63/233/4
f 63/234/4 67/240/4 68/26/4
f 61/231/1 64/235/1 68/26/1
f 68/241/1 65/237/1 61/236/1
usemtl light
f 73/242/11 100/138/12 97/127/10
f 97/127/10 98/130/11 73/242/11
f 98/130/11 81/243/11 73/242/11
f 98/130/11 84/244/11 81/243/11
f 100/138/12 73/242/11 74/245/11
f 74/245/11 99/132/11 100/138/12
f 74/245/11 84/244/11 99/132/11
f 84/244/11 98/130/11 99/132/11
