# Blender v2.79 (sub 0) OBJ File: ''
# www.blender.org
mtllib metalFenceDouble.mtl
o metalFenceDouble
v -9.096869 2.205575 0.486303
v 9.096868 2.205575 0.486303
v 9.096868 2.597167 0.486303
v -9.096869 2.597167 0.486303
v 9.096868 2.205575 -0.416831
v -9.096869 2.205575 -0.416831
v 9.096868 1.117373 -0.096212
v 9.096868 1.117373 0.165683
v -9.096869 1.117373 0.165683
v -9.096869 1.117373 -0.096212
v 9.096868 1.555368 0.165683
v -9.096869 1.555368 0.165683
v -9.096869 1.555368 -0.096211
v 9.096868 1.555368 -0.096211
v 9.548434 -0.002839 -0.416832
v 9.548434 2.597167 -0.416831
v 9.548434 2.597167 0.034736
v 9.548434 -0.002839 0.034736
v -9.548428 2.597167 -0.416831
v -9.548428 2.597167 0.034736
v -9.548428 -0.002839 -0.416832
v -9.548428 -0.002839 0.034736
v -9.096869 -0.002839 -0.416832
v -9.096869 -0.002840 0.486303
v 9.096868 -0.002840 0.486303
v 9.096868 -0.002839 -0.416832
vt 0.000000 0.000000
vt 0.000000 0.000000
vt 0.000000 0.000000
vt 0.000000 0.000000
vt 0.000000 0.000000
vt 0.000000 0.000000
vt 0.000000 0.000000
vt 0.000000 0.000000
vt 0.000000 0.000000
vt 0.000000 0.000000
vt 0.000000 0.000000
vt 0.000000 0.000000
vt 0.000000 0.000000
vt 0.000000 0.000000
vt 0.000000 0.000000
vt 0.000000 0.000000
vt 0.000000 0.000000
vt 0.000000 0.000000
vt 0.000000 0.000000
vt 0.000000 0.000000
vt 0.000000 0.000000
vt 0.000000 0.000000
vt 0.000000 0.000000
vt 0.000000 0.000000
vt 0.000000 0.000000
vt 0.000000 0.000000
vn -0.0039 0.0039 1.0000
vn -0.0039 -1.0000 -0.0000
vn -0.0039 0.0039 -1.0000
vn 1.0000 0.0039 0.0000
vn -0.0039 1.0000 0.0000
vn -1.0000 0.0039 0.0000
vn -0.7098 0.0039 0.7044
vn 0.7098 0.0039 0.7044
usemtl defaultMat
s 1
f 1/1/1 2/2/1 3/3/1
f 3/3/1 4/4/1 1/1/1
f 5/5/2 2/2/2 1/1/2
f 1/1/2 6/6/2 5/5/2
f 7/7/2 8/8/2 9/9/2
f 9/9/2 10/10/2 7/7/2
f 9/9/1 8/8/1 11/11/1
f 11/11/1 12/12/1 9/9/1
f 7/7/3 10/10/3 13/13/3
f 13/13/3 14/14/3 7/7/3
f 15/15/4 16/16/4 17/17/4
f 17/17/4 18/18/4 15/15/4
f 11/11/5 14/14/5 13/13/5
f 13/13/5 12/12/5 11/11/5
f 17/17/5 16/16/5 19/19/5
f 19/19/5 3/3/5 17/17/5
f 19/19/5 4/4/5 3/3/5
f 19/19/5 20/20/5 4/4/5
f 19/19/6 21/21/6 22/22/6
f 22/22/6 20/20/6 19/19/6
f 13/13/4 23/23/4 6/6/4
f 6/6/4 1/1/4 13/13/4
f 1/1/4 12/12/4 13/13/4
f 1/1/4 9/9/4 12/12/4
f 23/23/4 13/13/4 10/10/4
f 10/10/4 24/24/4 23/23/4
f 10/10/4 9/9/4 24/24/4
f 9/9/4 1/1/4 24/24/4
f 22/22/7 24/24/7 1/1/7
f 1/1/7 20/20/7 22/22/7
f 1/1/7 4/4/7 20/20/7
f 18/18/8 17/17/8 3/3/8
f 3/3/8 25/25/8 18/18/8
f 3/3/8 2/2/8 25/25/8
f 6/6/3 23/23/3 21/21/3
f 21/21/3 19/19/3 6/6/3
f 6/6/3 19/19/3 16/16/3
f 5/5/3 6/6/3 16/16/3
f 5/5/3 16/16/3 15/15/3
f 15/15/3 26/26/3 5/5/3
f 7/7/6 5/5/6 26/26/6
f 26/26/6 25/25/6 7/7/6
f 25/25/6 8/8/6 7/7/6
f 25/25/6 11/11/6 8/8/6
f 5/5/6 7/7/6 14/14/6
f 14/14/6 2/2/6 5/5/6
f 14/14/6 11/11/6 2/2/6
f 11/11/6 25/25/6 2/2/6
