# Blender v2.79 (sub 0) OBJ File: ''
# www.blender.org
mtllib metalStructureBottom.mtl
o metalStructureBottom
v -5.000000 10.067850 -4.096859
v -5.000000 2.967852 -4.096860
v -5.000000 2.967852 -3.072651
v -5.000000 9.267850 -3.072650
v -5.000000 10.067848 4.096861
v -5.000000 9.267848 3.072652
v -5.000000 2.967851 3.072651
v -5.000000 2.967850 4.096860
v 3.072650 2.967852 -4.096860
v 4.096859 2.967852 -4.096860
v 4.096859 10.067850 -4.096859
v 3.072650 9.267850 -4.096859
v -3.072651 9.267850 -4.096859
v -4.096860 10.067850 -4.096859
v -4.096860 2.967852 -4.096860
v -3.072651 2.967852 -4.096860
v -4.096860 2.967850 5.000000
v -4.096860 10.067848 5.000001
v -3.072651 2.967852 -5.000000
v -4.096860 2.967852 -5.000000
v -4.096860 10.067850 -4.999999
v -3.072651 9.267850 -4.999999
v 3.072650 9.267850 -4.999999
v 4.096859 10.067850 -4.999999
v 3.072650 2.967852 -5.000000
v 4.096859 2.967852 -5.000000
v 3.072650 2.967850 5.000000
v 4.096859 2.967850 5.000000
v 4.096859 10.067848 5.000001
v 3.072650 9.267848 5.000001
v -3.072651 9.267848 5.000001
v -3.072651 2.967850 5.000000
v -4.096860 9.267850 -3.072650
v -4.096860 10.067848 4.096861
v -4.096860 9.267848 3.072652
v -4.096860 2.967851 3.072651
v -4.096860 2.967850 4.096860
v -4.096860 2.967852 -3.072651
v -3.072651 2.967850 4.096860
v -3.072651 9.267848 4.096861
v 3.072650 9.267848 4.096861
v 4.096859 10.067848 4.096861
v 4.096859 2.967850 4.096860
v 3.072650 2.967850 4.096860
v 5.000000 10.067848 4.096861
v 5.000000 10.067850 -4.096859
v 5.000000 2.967852 -4.096860
v 5.000000 9.267850 -3.072650
v 5.000000 9.267848 3.072652
v 5.000000 2.967851 3.072651
v 5.000000 2.967850 4.096860
v 5.000000 2.967852 -3.072651
v 4.096859 9.267848 3.072652
v 4.096859 2.967851 3.072651
v 4.096859 9.267850 -3.072650
v 4.096859 2.967852 -3.072651
v 4.096859 0.067850 -4.096860
v 4.096859 0.067850 -5.000000
v 3.072650 0.067850 -5.000000
v 3.072650 0.067850 -4.096860
v 5.000000 0.067850 -3.072652
v 5.000000 0.067850 -4.096860
v 4.096859 0.067850 -3.072652
v -3.072651 0.067850 -4.096860
v -3.072651 0.067850 -5.000000
v -4.096860 0.067850 -5.000000
v -4.096860 0.067850 -4.096860
v -5.000000 0.067850 -4.096860
v -4.096860 0.067850 -3.072652
v -5.000000 0.067850 -3.072652
v -4.096860 0.067848 4.096859
v -4.096860 0.067849 3.072650
v -5.000000 0.067849 3.072650
v -4.096860 0.067848 5.000000
v -5.000000 0.067848 4.096859
v -3.072651 0.067848 5.000000
v -3.072651 0.067848 4.096859
v 5.000000 0.067848 4.096859
v 5.000000 0.067849 3.072650
v 4.096859 0.067849 3.072650
v 4.096859 0.067848 5.000000
v 4.096859 0.067848 4.096859
v 3.072650 0.067848 4.096859
v 3.072650 0.067848 5.000000
vt 3.555662 39.370079
vt 3.555662 11.417330
vt 7.588006 11.417330
vt 7.588006 36.220470
vt 35.814419 39.370079
vt 31.782080 36.220470
vt 31.782080 11.417330
vt 35.814419 11.417330
vt -7.588006 11.417330
vt -3.555652 11.417330
vt -3.555652 39.370079
vt -7.588006 36.220470
vt -31.782080 36.220470
vt -35.814419 39.370079
vt -35.814419 11.417330
vt -31.782080 11.417330
vt -2.514232 11.417330
vt 2.514232 11.417330
vt 2.514232 39.370079
vt -2.514232 39.370079
vt 31.782080 11.417330
vt 35.814419 11.417330
vt 35.814419 39.370079
vt 31.782080 36.220470
vt 7.588006 36.220470
vt 3.555662 39.370079
vt 7.588006 11.417330
vt 3.555662 11.417330
vt -7.588006 11.417330
vt -3.555652 11.417330
vt -3.555652 39.370079
vt -7.588006 36.220470
vt -35.814419 39.370079
vt -31.782080 36.220470
vt -31.782080 11.417330
vt -35.814419 11.417330
vt -7.588006 36.220470
vt -3.555652 39.370079
vt -35.814419 39.370079
vt -31.782080 36.220470
vt -31.782080 11.417330
vt -35.814419 11.417330
vt -7.588006 11.417330
vt -3.555652 11.417330
vt 31.782080 11.417330
vt 35.814419 11.417330
vt 35.814419 39.370079
vt 31.782080 36.220470
vt 7.588006 36.220470
vt 3.555662 39.370079
vt 3.555662 11.417330
vt 7.588006 11.417330
vt 3.555662 3.555662
vt 3.555662 0.000005
vt 35.814419 0.000005
vt 35.814419 3.555662
vt 39.370079 3.555662
vt 35.814419 35.814419
vt 35.814419 39.370079
vt 39.370079 35.814419
vt 3.555662 39.370079
vt 0.000005 35.814419
vt 0.000005 3.555662
vt 3.555662 35.814419
vt -2.514232 11.417330
vt 2.514232 11.417330
vt 2.514232 39.370079
vt -2.514232 39.370079
vt -7.588006 36.220470
vt -3.555652 39.370079
vt -35.814419 39.370079
vt -31.782080 36.220470
vt -31.782080 11.417330
vt -35.814419 11.417330
vt -7.588006 11.417330
vt -3.555652 11.417330
vt 31.782080 36.220470
vt 31.782080 11.417330
vt 35.814419 11.417330
vt 35.814419 39.370079
vt 7.588006 36.220470
vt 3.555662 39.370079
vt 7.588006 11.417330
vt 3.555662 11.417330
vt -25.324619 11.417330
vt -25.324619 39.370079
vt -30.353081 39.370079
vt -30.353081 11.417330
vt -3.555652 11.417330
vt 0.000005 11.417330
vt 0.000005 36.220470
vt -3.555652 36.220470
vt 0.000005 36.220470
vt 0.000005 11.417330
vt 3.555662 11.417330
vt 3.555662 36.220470
vt 25.324619 11.417330
vt 30.353081 11.417330
vt 30.353081 39.370079
vt 25.324619 39.370079
vt -35.814419 11.417330
vt -35.814419 36.220470
vt -39.370079 36.220470
vt -39.370079 11.417330
vt 35.814419 11.417330
vt 39.370079 11.417330
vt 39.370079 36.220470
vt 35.814419 36.220470
vt -39.370079 11.417330
vt -35.814419 11.417330
vt -35.814419 36.220470
vt -39.370079 36.220470
vt -3.555652 11.417330
vt 0.000005 11.417330
vt 0.000005 36.220470
vt -3.555652 36.220470
vt 35.814419 36.220470
vt 35.814419 11.417330
vt 39.370079 11.417330
vt 39.370079 36.220470
vt 0.000005 11.417330
vt 3.555662 11.417330
vt 3.555662 36.220470
vt 0.000005 36.220470
vt 0.000005 7.588006
vt 0.000005 31.782080
vt -3.555652 31.782080
vt -3.555652 7.588006
vt -35.814419 7.588006
vt -35.814419 31.782080
vt -39.370079 31.782080
vt -39.370079 7.588006
vt -7.588006 0.000005
vt -7.588006 3.555662
vt -31.782080 3.555662
vt -31.782080 0.000005
vt -7.588006 35.814419
vt -7.588006 39.370079
vt -31.782080 39.370079
vt -31.782080 35.814419
vt 3.555662 36.220470
vt 0.000005 36.220470
vt 0.000005 11.417330
vt 3.555662 36.220470
vt 0.000005 36.220470
vt 0.000005 11.417330
vt 3.555662 36.220470
vt 0.000005 36.220470
vt 0.000005 11.417330
vt 3.555662 36.220470
vt 0.000005 36.220470
vt 0.000005 11.417330
vt 0.000005 36.220470
vt 0.000005 11.417330
vt 3.555662 36.220470
vt 0.000005 36.220470
vt 0.000005 11.417330
vt 3.555662 36.220470
vt 0.000005 36.220470
vt 0.000005 11.417330
vt 0.000005 36.220470
vt 0.000005 11.417330
vt 3.555662 36.220470
vt 0.000005 36.220470
vt 0.000005 36.220470
vt 0.000005 11.417330
vt 3.555662 36.220470
vt 0.000005 36.220470
vt 0.000005 11.417330
vt 3.555662 36.220470
vt 0.000005 36.220470
vt 0.000005 11.417330
vt 0.000005 36.220470
vt 0.000005 11.417330
vt 3.555662 36.220470
vt 0.000005 36.220470
vt 0.000005 11.417330
vt 3.555662 36.220470
vt 0.000005 36.220470
vt 3.555662 36.220470
vt 0.000005 36.220470
vt 0.000005 11.417330
vt 3.555662 36.220470
vt 0.000005 36.220470
vt 0.000005 11.417330
vt 3.555662 36.220470
vt 0.000005 36.220470
vt 0.000005 36.220470
vt 0.000005 11.417330
vt 3.555662 36.220470
vt 0.000005 11.417330
vt 3.555662 36.220470
vt 0.000005 36.220470
vt 0.000005 11.417330
vt 0.000005 11.417330
vt 3.555662 36.220470
vt 3.555662 36.220470
vt 0.000005 36.220470
vt 0.000005 11.417330
vt 3.555662 36.220470
vt 3.555662 36.220470
vt 3.555662 36.220470
vt 0.000005 36.220470
vt 0.000005 11.417330
vt 3.555662 36.220470
vt 0.000005 36.220470
vt 0.000005 11.417330
vt 0.000005 36.220470
vt 0.000005 11.417330
vt 3.555662 36.220470
vt 0.000005 36.220470
vt 0.000005 36.220470
vt 0.000005 11.417330
vt 3.555662 36.220470
vt 0.000005 36.220470
vt 0.000005 11.417330
vt 3.555662 36.220470
vt 0.000005 36.220470
vt 3.555662 36.220470
vt 3.555662 36.220470
vt 3.555662 36.220470
vt 0.000005 11.417330
vt 3.555662 36.220470
vt 0.000005 11.417330
vt 0.000005 11.417330
vt 0.000005 11.417330
vt 0.000005 36.220470
vt 0.000005 36.220470
vt 3.555662 36.220470
vt 0.000005 36.220470
vt 0.000005 11.417330
vt 3.555662 36.220470
vt 0.000005 36.220470
vt 0.000005 11.417330
vt 0.000005 36.220470
vt 0.000005 11.417330
vt 3.555662 36.220470
vt 0.000005 36.220470
vt 3.555662 36.220470
vt 0.000005 36.220470
vt 3.555662 36.220470
vt 0.000005 36.220470
vt 0.000005 11.417330
vt 3.555662 36.220470
vt 0.000005 36.220470
vt 0.000005 11.417330
vt 0.000005 36.220470
vt 0.000005 11.417330
vt 3.555662 36.220470
vt 0.000005 36.220470
vt 3.555662 36.220470
vt 0.000005 36.220470
vt 3.555662 36.220470
vt 0.000005 36.220470
vt 0.000005 11.417330
vt 0.000005 36.220470
vt 0.000005 36.220470
vt 3.555662 36.220470
vt 3.555662 36.220470
vt 0.000005 11.417330
vt 0.000005 11.417330
vt 0.000005 11.417330
vt 0.000005 11.417330
vt 0.000005 11.417330
vt 3.555662 36.220470
vt 0.000005 36.220470
vt 0.000005 11.417330
vt 3.555662 36.220470
vt 0.000005 36.220470
vt 0.000005 11.417330
vt 0.000005 36.220470
vt 0.000005 11.417330
vt 3.555662 36.220470
vt 0.000005 36.220470
vt 0.000005 11.417330
vt 3.555662 36.220470
vt 0.000005 36.220470
vt 0.000005 11.417330
vt 0.000005 11.417330
vt 3.555662 36.220470
vt 0.000005 36.220470
vt 3.555662 36.220470
vt 0.000005 36.220470
vt 0.000005 11.417330
vt 0.000005 11.417330
vt 3.555662 36.220470
vt 0.000005 36.220470
vt 3.555662 36.220470
vt 3.555662 36.220470
vt 0.000005 11.417330
vn -1.0000 0.0039 0.0000
vn -0.0039 0.0039 1.0000
vn -0.7098 0.0039 0.7044
vn -0.0039 0.0039 -1.0000
vn 1.0000 0.0039 0.0000
vn -0.7092 -0.5047 0.4923
vn -0.0039 1.0000 0.0000
vn -0.2634 0.4805 -0.8365
vn 0.7098 0.0039 -0.7044
vn 0.7098 0.0039 0.7044
vn -0.7098 0.0039 -0.7044
vn -0.0039 -1.0000 -0.0000
vn 0.0166 -0.9999 0.0000
vn 0.4164 -0.9092 -0.0000
vn -0.0038 1.0000 -0.0000
vn -0.0041 1.0000 -0.0002
vn -0.0040 1.0000 -0.0001
vn -0.5938 0.2932 -0.7493
usemtl metal
s 1
f 1/1/1 2/2/1 3/3/1
f 3/3/1 4/4/1 1/1/1
f 4/4/1 5/5/1 1/1/1
f 4/4/1 6/6/1 5/5/1
f 6/6/1 7/7/1 5/5/1
f 7/7/1 8/8/1 5/5/1
f 9/9/2 10/10/2 11/11/2
f 11/11/2 12/12/2 9/9/2
f 11/11/2 13/13/2 12/12/2
f 13/13/2 11/11/2 14/14/2
f 13/13/2 14/14/2 15/15/2
f 15/15/2 16/16/2 13/13/2
f 8/17/3 17/18/3 18/19/3
f 18/19/3 5/20/3 8/17/3
f 19/21/4 20/22/4 21/23/4
f 21/23/4 22/24/4 19/21/4
f 21/23/4 23/25/4 22/24/4
f 23/25/4 21/23/4 24/26/4
f 25/27/4 23/25/4 24/26/4
f 24/26/4 26/28/4 25/27/4
f 27/29/2 28/30/2 29/31/2
f 29/31/2 30/32/2 27/29/2
f 30/32/2 29/31/2 18/33/2
f 31/34/2 30/32/2 18/33/2
f 32/35/2 31/34/2 18/33/2
f 18/33/2 17/36/2 32/35/2
f 33/37/5 14/38/5 34/39/5
f 34/39/5 35/40/5 33/37/5
f 34/39/5 36/41/5 35/40/5
f 34/39/5 37/42/5 36/41/5
f 14/38/5 33/37/5 38/43/5
f 38/43/5 15/44/5 14/38/5
f 39/45/4 37/46/4 34/47/4
f 34/47/4 40/48/4 39/45/4
f 34/47/4 41/49/4 40/48/4
f 41/49/4 34/47/4 42/50/4
f 41/49/4 42/50/4 43/51/4
f 43/51/4 44/52/4 41/49/4
f 11/53/6 24/54/7 21/55/7
f 21/55/7 14/56/7 11/53/6
f 21/55/7 1/57/7 14/56/7
f 1/57/7 34/58/7 14/56/7
f 1/57/7 18/59/7 34/58/7
f 1/57/7 5/60/7 18/59/7
f 24/54/7 11/53/6 29/61/7
f 34/58/7 18/59/7 29/61/7
f 24/54/7 29/61/7 45/62/7
f 45/62/7 46/63/7 24/54/7
f 11/53/6 42/64/8 29/61/7
f 42/64/8 34/58/7 29/61/7
f 47/65/9 26/66/9 24/67/9
f 24/67/9 46/68/9 47/65/9
f 48/69/5 46/70/5 45/71/5
f 45/71/5 49/72/5 48/69/5
f 45/71/5 50/73/5 49/72/5
f 45/71/5 51/74/5 50/73/5
f 46/70/5 48/69/5 52/75/5
f 52/75/5 47/76/5 46/70/5
f 53/77/1 54/78/1 43/79/1
f 53/77/1 43/79/1 42/80/1
f 55/81/1 53/77/1 42/80/1
f 55/81/1 42/80/1 11/82/1
f 56/83/1 55/81/1 11/82/1
f 11/82/1 10/84/1 56/83/1
f 51/85/10 45/86/10 29/87/10
f 29/87/10 28/88/10 51/85/10
f 56/89/2 52/90/2 48/91/2
f 48/91/2 55/92/2 56/89/2
f 23/93/1 25/94/1 9/95/1
f 9/95/1 12/96/1 23/93/1
f 20/97/11 2/98/11 1/99/11
f 1/99/11 21/100/11 20/97/11
f 39/101/5 40/102/5 31/103/5
f 31/103/5 32/104/5 39/101/5
f 36/105/4 7/106/4 6/107/4
f 6/107/4 35/108/4 36/105/4
f 3/109/2 38/110/2 33/111/2
f 33/111/2 4/112/2 3/109/2
f 16/113/5 19/114/5 22/115/5
f 22/115/5 13/116/5 16/113/5
f 41/117/1 44/118/1 27/119/1
f 27/119/1 30/120/1 41/117/1
f 50/121/4 54/122/4 53/123/4
f 53/123/4 49/124/4 50/121/4
f 48/125/12 49/126/12 53/127/12
f 53/127/12 55/128/12 48/125/12
f 33/129/12 35/130/12 6/131/12
f 6/131/12 4/132/12 33/129/12
f 23/133/12 12/134/12 13/135/12
f 13/135/12 22/136/12 23/133/12
f 41/137/12 30/138/12 31/139/12
f 31/139/12 40/140/12 41/137/12
usemtl defaultMat
f 57/141/13 58/142/7 59/143/7
f 59/144/7 60/145/7 57/146/13
f 61/147/7 62/148/7 58/149/7
f 58/150/7 63/151/7 61/152/7
f 58/150/7 57/153/13 63/154/7
f 64/155/7 65/156/7 66/157/7
f 66/158/7 67/159/7 64/160/7
f 66/158/7 68/161/7 67/162/7
f 68/163/7 69/164/7 67/162/7
f 68/163/7 70/165/7 69/166/7
f 71/167/7 72/168/7 73/169/7
f 73/170/7 74/171/7 71/172/7
f 73/170/7 75/173/7 74/174/7
f 76/175/7 77/176/7 71/172/7
f 71/167/7 74/171/7 76/177/7
f 10/178/14 26/179/7 25/94/7
f 25/180/7 9/181/7 10/182/14
f 52/183/7 47/184/7 26/185/7
f 26/186/7 56/187/15 52/90/7
f 26/186/7 10/188/14 56/189/15
f 60/190/2 57/153/2 10/182/2
f 10/178/2 9/181/2 60/191/2
f 9/192/1 25/193/1 59/143/1
f 59/144/1 60/145/1 9/194/1
f 26/186/4 58/142/4 59/143/4
f 59/144/4 25/193/4 26/185/4
f 58/150/9 26/179/9 47/195/9
f 47/196/9 62/148/9 58/149/9
f 62/197/5 47/184/5 52/90/5
f 52/183/5 61/198/5 62/199/5
f 63/200/2 61/198/2 52/90/2
f 52/183/2 56/187/2 63/154/2
f 56/201/1 10/188/1 57/146/1
f 57/141/1 63/151/1 56/189/1
f 16/202/7 19/203/7 20/204/7
f 20/205/7 15/206/7 16/207/7
f 20/205/7 2/208/7 15/209/7
f 2/210/7 38/211/7 15/209/7
f 2/210/7 3/212/7 38/213/7
f 65/214/5 19/203/5 16/207/5
f 16/202/5 64/215/5 65/216/5
f 15/217/2 67/159/2 64/160/2
f 64/155/2 16/218/2 15/209/2
f 67/219/5 15/206/5 38/213/5
f 38/220/5 69/164/5 67/162/5
f 70/221/2 69/164/2 38/213/2
f 38/220/2 3/212/2 70/222/2
f 3/223/1 2/208/1 68/224/1
f 68/163/1 70/165/1 3/225/1
f 66/158/11 68/161/11 2/226/11
f 2/210/11 20/227/11 66/157/11
f 65/214/4 66/228/4 20/204/4
f 20/205/4 19/203/4 65/216/4
f 78/229/7 79/230/7 80/231/16
f 80/232/16 81/233/17 78/234/7
f 80/232/16 82/235/18 81/236/17
f 82/237/18 83/238/7 81/236/17
f 83/239/7 84/240/7 81/236/17
f 51/241/7 50/242/7 54/243/16
f 54/244/16 28/245/17 51/246/7
f 54/244/16 43/247/18 28/248/17
f 43/249/18 44/250/7 28/248/17
f 44/251/7 27/252/7 28/248/17
f 79/253/4 80/254/4 54/243/4
f 54/244/4 50/242/4 79/255/4
f 79/253/5 50/242/5 51/246/5
f 51/241/5 78/256/5 79/255/5
f 78/229/10 51/257/10 28/248/10
f 28/258/10 81/233/10 78/234/10
f 84/259/2 81/233/2 28/248/2
f 28/258/2 27/252/2 84/260/2
f 44/251/1 83/238/1 84/260/1
f 84/259/1 27/252/1 44/261/1
f 43/249/4 82/235/4 83/262/4
f 83/239/4 44/250/4 43/263/4
f 54/244/1 80/254/1 82/264/1
f 82/237/1 43/247/1 54/243/1
f 37/265/7 36/266/7 7/267/7
f 7/268/7 17/269/7 37/270/7
f 7/268/7 8/271/7 17/272/7
f 32/273/7 39/274/7 37/270/7
f 37/265/7 17/269/7 32/275/7
f 72/276/4 73/277/4 7/267/4
f 7/268/4 36/266/4 72/278/4
f 71/167/5 72/168/5 36/279/5
f 36/280/5 37/281/5 71/172/5
f 77/282/4 71/283/4 37/270/4
f 37/265/4 39/274/4 77/284/4
f 76/175/5 77/176/5 39/285/5
f 39/286/5 32/287/5 76/177/5
f 17/288/2 74/171/2 76/177/2
f 76/175/2 32/287/2 17/272/2
f 75/289/3 74/171/3 17/272/3
f 17/288/3 8/271/3 75/290/3
f 7/268/1 73/277/1 75/290/1
f 75/289/1 8/271/1 7/267/1
