# Blender v2.79 (sub 0) OBJ File: ''
# www.blender.org
mtllib metalTileConnectStraight.mtl
o metalTileConnectStraight
v 5.000000 0.407195 3.256577
v 5.000000 0.407197 -3.256577
v -5.000000 0.407197 -3.256577
v -5.000000 0.407195 3.256577
v 5.000000 0.007195 3.256577
v 5.000000 0.007195 5.000000
v -5.000000 0.007195 5.000000
v -5.000000 0.007195 3.256577
v -5.000000 0.807197 -5.000000
v -5.000000 0.007197 -5.000000
v -5.000000 0.007197 -3.256577
v -5.000000 0.807197 -4.096860
v -5.000000 0.807197 -3.256577
v -5.000000 0.807195 3.256577
v -5.000000 0.807195 4.096860
v -5.000000 0.807195 5.000000
v 5.000000 0.807195 3.256577
v 5.000000 0.007197 -5.000000
v 5.000000 0.007197 -3.256577
v 5.000000 0.807197 -3.256577
v 5.000000 0.807195 5.000000
v 5.000000 0.807195 4.096860
v 5.000000 0.807197 -4.096860
v 5.000000 0.807197 -5.000000
vt 0.000005 32.506199
vt 0.000005 39.370079
vt -39.370079 39.370079
vt -39.370079 32.506199
vt 0.000005 3.149608
vt 0.000005 0.000005
vt 6.863889 0.000005
vt 3.555662 3.149608
vt 6.863889 3.149608
vt 6.863889 1.574807
vt 32.506199 1.574807
vt 32.506199 0.000005
vt 39.370079 0.000005
vt 32.506199 3.149608
vt 35.814419 3.149608
vt 39.370079 3.149608
vt 0.000005 0.000005
vt 39.370079 0.000005
vt 39.370079 1.574807
vt 0.000005 1.574807
vt 0.000005 3.149608
vt 39.370079 3.149608
vt 0.000005 0.000005
vt 0.000005 6.863889
vt -39.370079 6.863889
vt -39.370079 0.000005
vt -39.370079 0.000005
vt 0.000005 0.000005
vt 0.000005 1.574807
vt -39.370079 1.574807
vt 0.000005 3.149608
vt -39.370079 3.149608
vt 0.000005 39.370079
vt 0.000005 35.814419
vt 39.370079 35.814419
vt 39.370079 39.370079
vt -32.506199 1.574807
vt -32.506199 3.149608
vt -35.814419 3.149608
vt -32.506199 0.000005
vt -39.370079 0.000005
vt -39.370079 3.149608
vt -39.370079 0.000005
vt 0.000005 0.000005
vt 0.000005 3.149608
vt -39.370079 3.149608
vt 0.000005 3.555662
vt 0.000005 0.000005
vt 39.370079 0.000005
vt 39.370079 3.555662
vt 0.000005 3.149608
vt -3.555652 3.149608
vt -6.863879 0.000005
vt -6.863879 3.149608
vt -6.863879 1.574807
vt 39.370079 0.000005
vt 39.370079 3.149608
vt 0.464649 4.000002
vt 3.535358 1.999999
vt 0.464649 1.999999
vt 3.535358 4.000002
vt 0.000005 32.506199
vt 39.370079 32.506199
vt 0.000005 6.863889
vt 39.370079 6.863889
vn -0.0039 -1.0000 -0.0000
vn -1.0000 0.0039 0.0000
vn 0.0000 0.0039 -1.0000
vn -0.0039 0.0039 -1.0000
vn -0.0039 0.0039 1.0000
vn -0.0039 1.0000 0.0000
vn 1.0000 0.0039 0.0000
usemtl metal
s 1
f 5/1/1 6/2/1 7/3/1
f 7/3/1 8/4/1 5/1/1
f 9/5/2 10/6/2 11/7/2
f 11/7/2 12/8/2 9/5/2
f 11/7/2 13/9/2 12/8/2
f 11/7/2 3/10/3 13/9/2
f 4/11/2 8/12/2 7/13/2
f 7/13/2 14/14/2 4/11/2
f 7/13/2 15/15/2 14/14/2
f 7/13/2 16/16/2 15/15/2
f 5/17/4 8/18/4 4/19/4
f 4/19/4 1/20/4 5/17/4
f 17/21/4 1/20/4 4/19/4
f 4/19/4 14/22/4 17/21/4
f 18/23/1 19/24/1 11/25/1
f 11/25/1 10/26/1 18/23/1
f 11/27/5 19/28/5 2/29/5
f 2/29/5 3/30/5 11/27/5
f 3/30/5 2/29/5 20/31/5
f 20/31/5 13/32/5 3/30/5
f 21/33/6 22/34/6 15/35/6
f 15/35/6 16/36/6 21/33/6
f 1/37/7 17/38/7 22/39/7
f 22/39/7 5/40/7 1/37/7
f 22/39/7 6/41/7 5/40/7
f 22/39/7 21/42/7 6/41/7
f 7/43/5 6/44/5 21/45/5
f 21/45/5 16/46/5 7/43/5
f 23/47/6 24/48/6 9/49/6
f 9/49/6 12/50/6 23/47/6
f 18/23/7 24/51/7 23/52/7
f 23/52/7 19/53/7 18/23/7
f 23/52/7 20/54/7 19/53/7
f 20/54/7 2/55/3 19/53/7
f 18/23/4 10/56/4 9/57/4
f 9/57/4 24/51/4 18/23/4
usemtl net
f 1/58/1 3/59/1 2/60/1
f 3/59/1 1/58/1 4/61/1
usemtl light
f 22/34/6 17/62/6 14/63/6
f 14/63/6 15/35/6 22/34/6
f 20/64/6 23/47/6 12/50/6
f 12/50/6 13/65/6 20/64/6
