# Blender v2.79 (sub 0) OBJ File: ''
# www.blender.org
mtllib metalTileConnectCornerInner.mtl
o metalTileConnectCornerInner
v 5.597990 0.006083 4.694849
v 5.597990 0.806083 4.694849
v 4.694849 0.806083 5.597989
v 4.694849 0.006083 5.597989
v 5.597990 0.006084 -4.402011
v 5.597990 0.806084 -4.402011
v 3.854567 0.406084 -4.402011
v 3.854567 0.006084 -4.402011
v 3.854567 0.006083 3.854566
v 3.854567 0.406083 3.854566
v 3.854567 0.806084 -4.402011
v 3.854567 0.806083 3.854566
v -4.402010 0.006083 3.854566
v -4.402010 0.406083 3.854566
v -4.402010 0.806083 3.854566
v -4.402010 0.006083 5.597989
v -4.402010 0.806083 5.597989
v -4.402010 0.806083 4.694849
v 4.694849 0.806084 -4.402011
v 4.694849 0.806083 4.694849
v -4.402010 0.806084 -4.402011
v -4.402010 0.006084 -4.402011
v -4.402010 0.006084 -2.658588
v -4.402010 0.806084 -3.498871
v -4.402010 0.806084 -2.658588
v -4.402010 0.406084 -2.658588
v -2.658587 0.406084 -4.402011
v -2.658587 0.006084 -4.402011
v -2.658587 0.806084 -4.402011
v -3.498870 0.806084 -4.402011
vt -25.324619 -0.000000
vt -25.324619 3.149601
vt -30.353069 3.149601
vt -30.353069 -0.000000
vt -0.000000 -0.000000
vt -0.000000 3.149601
vt -35.814419 3.149601
vt -35.814419 -0.000000
vt -0.000000 1.574813
vt -0.000000 -0.000000
vt 32.506210 -0.000000
vt 32.506210 1.574813
vt -0.000000 3.149601
vt 32.506210 3.149601
vt 6.863883 -0.000000
vt 39.370090 -0.000000
vt 39.370090 1.574813
vt 6.863883 1.574813
vt 39.370090 3.149601
vt 6.863883 3.149601
vt -6.863884 32.506210
vt -3.555649 39.370090
vt -39.370079 39.370090
vt -39.370079 32.506210
vt -6.863884 -0.000000
vt -0.000000 35.814430
vt -39.370079 -0.000000
vt -3.555649 -0.000000
vt -3.555649 3.149601
vt -39.370079 3.149601
vt 32.506210 1.574813
vt 32.506210 -0.000000
vt 39.370090 -0.000000
vt 32.506210 3.149601
vt 35.814430 3.149601
vt 39.370090 3.149601
vt 6.863883 -0.000000
vt 6.863883 1.574813
vt 3.555661 3.149601
vt 6.863883 3.149601
vt -0.000000 35.814430
vt -0.000000 -0.000000
vt 3.555661 -0.000000
vt 3.555661 39.370090
vt 3.555661 35.814430
vt 39.370090 35.814430
vt 39.370090 39.370090
vt -0.000000 3.149601
vt -0.000000 -0.000000
vt 6.863883 -0.000000
vt 3.555661 3.149601
vt 6.863883 3.149601
vt 6.863883 1.574813
vt 32.506210 1.574813
vt 32.506210 -0.000000
vt 39.370090 -0.000000
vt 39.370090 3.149601
vt 32.506210 3.149601
vt 35.814430 3.149601
vt 35.814430 -0.000000
vt 39.370090 -0.000000
vt 39.370090 3.555661
vt -32.692341 3.149601
vt -32.692341 1.574813
vt -22.985350 1.574813
vt -22.985350 3.149601
vt -32.692341 -0.000000
vt -22.985350 -0.000000
vt -22.985350 1.574813
vt -32.692341 3.149601
vt -22.985350 1.574813
vt -22.985350 3.149601
vt 3.000006 1.464647
vt 3.535354 4.000004
vt 1.000010 4.000004
vt 3.535354 2.000008
vt 1.000010 1.464647
vt 71.173363 1.464647
vt 70.638008 1.464647
vt 70.638008 2.000008
vt 70.415619 14.512190
vt 69.658524 14.635020
vt 70.415619 14.635020
vt 6.863883 -0.000000
vt 6.863883 32.506210
vt 39.370090 32.506210
vn 0.7098 0.0039 0.7044
vn 1.0000 0.0039 0.0000
vn -1.0000 0.0039 0.0000
vn -0.0039 0.0039 -1.0000
vn -0.0039 -1.0000 -0.0000
vn -0.0039 0.0039 1.0000
vn -0.0039 1.0000 0.0000
vn -0.9995 0.0315 0.0000
vn -0.0000 0.0039 1.0000
vn -0.7098 0.0039 -0.7044
usemtl metal
s 1
f 1/1/1 2/2/1 3/3/1
f 3/3/1 4/4/1 1/1/1
f 5/5/2 6/6/2 2/7/2
f 2/7/2 1/8/2 5/5/2
f 7/9/3 8/10/3 9/11/3
f 9/11/3 10/12/3 7/9/3
f 11/13/3 7/9/3 10/12/3
f 10/12/3 12/14/3 11/13/3
f 9/15/4 13/16/4 14/17/4
f 14/17/4 10/18/4 9/15/4
f 10/18/4 14/17/4 15/19/4
f 15/19/4 12/20/4 10/18/4
f 9/21/5 4/22/5 16/23/5
f 16/23/5 13/24/5 9/21/5
f 4/22/5 9/21/5 8/25/5
f 4/22/5 8/25/5 5/5/5
f 5/5/5 1/26/5 4/22/5
f 16/27/6 4/28/6 3/29/6
f 3/29/6 17/30/6 16/27/6
f 14/31/3 13/32/3 16/33/3
f 16/33/3 15/34/3 14/31/3
f 16/33/3 18/35/3 15/34/3
f 16/33/3 17/36/3 18/35/3
f 5/5/4 8/37/4 7/38/4
f 7/38/4 6/6/4 5/5/4
f 7/38/4 19/39/4 6/6/4
f 7/38/4 11/40/4 19/39/4
f 2/41/7 6/42/7 19/43/7
f 19/43/7 3/44/7 2/41/7
f 19/43/7 20/45/8 3/44/7
f 20/45/8 18/46/7 3/44/7
f 18/46/7 17/47/7 3/44/7
f 21/48/3 22/49/3 23/50/3
f 23/50/3 24/51/3 21/48/3
f 23/50/3 25/52/3 24/51/3
f 23/50/3 26/53/9 25/52/3
f 27/54/4 28/55/4 22/56/4
f 22/56/4 21/57/4 27/54/4
f 21/57/4 29/58/4 27/54/4
f 21/57/4 30/59/4 29/58/4
f 30/60/7 21/61/7 24/62/7
f 25/63/1 26/64/1 27/65/1
f 27/65/1 29/66/1 25/63/1
f 26/64/1 23/67/1 28/68/1
usemtl defaultMat
f 25/69/7 29/66/7 30/70/7
f 30/71/7 24/72/7 25/63/7
usemtl net
f 27/73/7 14/74/7 10/75/7
f 27/73/7 26/76/7 14/74/7
f 10/75/5 27/73/5 7/77/5
f 28/78/7 22/79/7 23/80/7
f 28/81/10 26/82/10 27/83/10
usemtl light
f 20/45/8 19/43/7 11/84/7
f 11/84/7 12/85/7 20/45/8
f 12/85/7 18/46/7 20/45/8
f 12/85/7 15/86/7 18/46/7
