# Blender v2.79 (sub 0) OBJ File: ''
# www.blender.org
mtllib metalTileLarge.mtl
o metalTileLarge
v 9.096872 0.003239 -10.000001
v 9.096872 0.803239 -10.000001
v 10.000003 0.803239 -9.096870
v 10.000003 0.003239 -9.096870
v -9.999997 0.803236 9.096869
v -9.999997 0.003236 9.096869
v -9.096868 0.003236 9.999999
v -9.096868 0.803236 9.999999
v -9.096868 0.803239 -10.000001
v -9.096868 0.003239 -10.000001
v -9.999997 0.003239 -9.096870
v -9.999997 0.803239 -9.096870
v -8.256568 0.003239 -8.256568
v 8.256570 0.003239 -8.256568
v 8.256570 0.403248 -8.256568
v -8.256568 0.403248 -8.256568
v 8.256570 0.803239 -8.256568
v -8.256568 0.803239 -8.256568
v -8.256568 0.403246 8.256570
v -8.256568 0.003236 8.256570
v -8.256568 0.803236 8.256570
v 8.256570 0.003236 8.256570
v 8.256570 0.403246 8.256570
v 8.256570 0.803236 8.256570
v 9.096872 0.003236 9.999999
v 9.096872 0.803236 9.999999
v 10.000003 0.003236 9.096869
v 10.000003 0.803236 9.096869
v 9.096872 0.803239 -9.096870
v -9.096868 0.803239 -9.096870
v -9.096868 0.803236 9.096869
v 9.096872 0.803236 9.096869
vt 2.514232 0.000005
vt 2.514232 3.149608
vt -2.514223 3.149608
vt -2.514223 0.000005
vt -2.514223 3.149608
vt -2.514223 0.000005
vt 2.514232 0.000005
vt 2.514232 3.149608
vt 53.163460 3.149608
vt 53.163460 0.000005
vt 58.191921 0.000005
vt 58.191921 3.149608
vt -71.876266 0.000005
vt -6.863879 0.000005
vt -6.863879 1.574806
vt -71.876266 1.574806
vt -6.863879 3.149608
vt -71.876266 3.149608
vt -6.863879 0.000005
vt -6.863879 1.574806
vt -71.876266 1.574806
vt -71.876266 0.000005
vt -71.876266 3.149608
vt -6.863879 3.149608
vt 6.863888 0.000005
vt 71.876266 0.000005
vt 71.876266 1.574806
vt 6.863888 1.574806
vt 71.876266 3.149608
vt 6.863888 3.149608
vt -75.184502 0.000005
vt -3.555652 0.000005
vt -3.555652 3.149608
vt -75.184502 3.149608
vt 0.000005 3.555652
vt 0.000005 75.184502
vt -3.555652 -78.740158
vt -3.555652 0.000005
vt -6.863879 71.876266
vt -75.184502 -78.740158
vt -71.876266 71.876266
vt -71.876266 6.863888
vt -6.863879 6.863888
vt -75.184502 0.000005
vt -78.740158 75.184502
vt -78.740158 3.555652
vt -53.163479 0.000005
vt -53.163479 3.149608
vt -58.191929 3.149608
vt -58.191929 0.000005
vt 6.863888 1.574806
vt 6.863888 0.000005
vt 71.876266 0.000005
vt 71.876266 1.574806
vt 6.863888 3.149608
vt 71.876266 3.149608
vt 3.555652 3.555652
vt 3.555652 0.000005
vt 75.184502 0.000005
vt 75.184502 3.555652
vt -78.740158 3.555652
vt 75.184502 75.184502
vt 75.184502 -78.740158
vt -78.740158 75.184502
vt 3.555652 -78.740158
vt 0.000005 75.184502
vt 0.000005 3.555652
vt 3.555652 75.184502
vt -3.555652 0.000005
vt -3.555652 3.149608
vt -75.184502 3.149608
vt -75.184502 0.000005
vt 3.555652 3.149608
vt 3.555652 0.000005
vt 75.184502 0.000005
vt 75.184502 3.149608
vt 3.555652 0.000005
vt 75.184502 0.000005
vt 75.184502 3.149608
vt 3.555652 3.149608
vt 0.999992 7.070712
vt 6.070705 1.999999
vt 0.999992 1.999999
vt 6.070705 7.070712
vt 6.863888 6.863888
vt 71.876266 6.863888
vt 71.876266 71.876266
vt 6.863888 71.876266
vn 0.7098 0.0039 -0.7044
vn -0.7098 0.0039 0.7044
vn -0.7098 0.0039 -0.7044
vn -0.0039 0.0039 1.0000
vn 1.0000 0.0039 0.0000
vn -0.0039 0.0039 -1.0000
vn -0.0039 -1.0000 -0.0000
vn 0.7098 0.0039 0.7044
vn -1.0000 0.0039 0.0000
vn 0.9999 0.0140 0.0000
vn -0.0039 1.0000 0.0000
vn -0.9979 0.0653 0.0000
usemtl metal
s 1
f 1/1/1 2/2/1 3/3/1
f 3/3/1 4/4/1 1/1/1
f 5/5/2 6/6/2 7/7/2
f 7/7/2 8/8/2 5/5/2
f 9/9/3 10/10/3 11/11/3
f 11/11/3 12/12/3 9/9/3
f 13/13/4 14/14/4 15/15/4
f 15/15/4 16/16/4 13/13/4
f 16/16/4 15/15/4 17/17/4
f 17/17/4 18/18/4 16/16/4
f 13/19/5 16/20/5 19/21/5
f 19/21/5 20/22/5 13/19/5
f 21/23/5 19/21/5 16/20/5
f 16/20/5 18/24/5 21/23/5
f 22/25/6 20/26/6 19/27/6
f 19/27/6 23/28/6 22/25/6
f 23/28/6 19/27/6 21/29/6
f 21/29/6 24/30/6 23/28/6
f 7/31/4 25/32/4 26/33/4
f 26/33/4 8/34/4 7/31/4
f 4/35/7 27/36/7 25/37/7
f 25/37/7 1/38/7 4/35/7
f 25/37/7 22/39/7 1/38/7
f 25/37/7 7/40/7 22/39/7
f 7/40/7 20/41/7 22/39/7
f 7/40/7 13/42/7 20/41/7
f 1/38/7 22/39/7 14/43/7
f 14/43/7 10/44/7 1/38/7
f 14/43/7 13/42/7 10/44/7
f 13/42/7 7/40/7 10/44/7
f 7/40/7 6/45/7 10/44/7
f 6/45/7 11/46/7 10/44/7
f 27/47/8 28/48/8 26/49/8
f 26/49/8 25/50/8 27/47/8
f 15/51/9 14/52/9 22/53/9
f 22/53/9 23/54/9 15/51/9
f 17/55/9 15/51/9 23/54/9
f 23/54/9 24/56/9 17/55/9
f 29/57/10 2/58/11 9/59/11
f 9/59/11 30/60/11 29/57/10
f 9/59/11 12/61/11 30/60/11
f 12/61/11 31/62/11 30/60/11
f 12/61/11 8/63/11 31/62/11
f 12/61/11 5/64/11 8/63/11
f 2/58/11 29/57/10 26/65/11
f 31/62/11 8/63/11 26/65/11
f 2/58/11 26/65/11 28/66/11
f 28/66/11 3/67/11 2/58/11
f 29/57/10 32/68/12 26/65/11
f 32/68/12 31/62/11 26/65/11
f 4/69/5 3/70/5 28/71/5
f 28/71/5 27/72/5 4/69/5
f 12/73/9 11/74/9 6/75/9
f 6/75/9 5/76/9 12/73/9
f 1/77/6 10/78/6 9/79/6
f 9/79/6 2/80/6 1/77/6
usemtl net
f 23/81/7 16/82/7 15/83/7
f 16/82/7 23/81/7 19/84/7
usemtl light
f 17/85/11 32/68/12 29/57/10
f 29/57/10 30/60/11 17/85/11
f 30/60/11 18/86/11 17/85/11
f 30/60/11 21/87/11 18/86/11
f 32/68/12 17/85/11 24/88/11
f 24/88/11 31/62/11 32/68/12
f 24/88/11 21/87/11 31/62/11
f 21/87/11 30/60/11 31/62/11
