# Blender v2.79 (sub 0) OBJ File: ''
# www.blender.org
mtllib metalTileSmall.mtl
o metalTileSmall
v 2.500000 0.008232 1.980662
v 2.500000 0.408232 1.980662
v 1.980662 0.408232 2.500000
v 1.980662 0.008232 2.500000
v 1.980662 0.408233 -1.980662
v 1.980662 0.408233 -2.500000
v -1.980662 0.408233 -2.500000
v -1.980662 0.408233 -1.980662
v -2.500000 0.408233 -1.980662
v -1.980662 0.408232 1.980662
v -1.980662 0.408232 2.500000
v -2.500000 0.408232 1.980662
v 2.500000 0.408233 -1.980662
v 1.980662 0.408232 1.980662
v 1.980662 0.008233 -2.500000
v 2.500000 0.008233 -1.980662
v -1.980662 0.008233 -2.500000
v -2.500000 0.008233 -1.980662
v -2.500000 0.008232 1.980662
v -1.980662 0.008232 2.500000
v 1.980662 0.008232 1.980662
v -1.980662 0.008232 1.980662
v -1.980662 0.008233 -1.980662
v 1.980662 0.008233 -1.980662
v 1.523398 0.008232 1.523398
v -1.523398 0.008232 1.523398
v -1.523398 0.008233 -1.523398
v 1.523398 0.008233 -1.523398
v -1.523398 0.208233 -1.523398
v -1.523398 0.408233 -1.523398
v -1.523398 0.408232 1.523398
v -1.523398 0.208232 1.523398
v 1.523398 0.408233 -1.523398
v 1.523398 0.408232 1.523398
v 1.523398 0.208232 1.523398
v 1.523398 0.208233 -1.523398
vt -12.473650 0.000005
vt -12.473650 1.574807
vt -15.365200 1.574807
vt -15.365200 0.000005
vt 2.044642 2.044642
vt 2.044642 0.000005
vt 17.640390 0.000005
vt 17.640390 2.044642
vt 19.685040 2.044642
vt 17.640390 17.640390
vt 17.640390 19.685040
vt 19.685040 17.640390
vt 2.044642 19.685040
vt 0.000005 17.640390
vt 0.000005 2.044642
vt 2.044642 17.640390
vt 1.445779 0.000005
vt 1.445779 1.574807
vt -1.445779 1.574807
vt -1.445779 0.000005
vt 2.044642 0.000005
vt 17.640390 0.000005
vt 17.640390 1.574807
vt 2.044642 1.574807
vt 12.473650 1.574807
vt 12.473650 0.000005
vt 15.365200 0.000005
vt 15.365200 1.574807
vt 2.044642 1.574807
vt 2.044642 0.000005
vt 17.640390 0.000005
vt 17.640390 1.574807
vt -1.445779 1.574807
vt -1.445779 0.000005
vt 1.445779 0.000005
vt 1.445779 1.574807
vt -17.640390 0.000005
vt -2.044642 0.000005
vt -2.044642 1.574807
vt -17.640390 1.574807
vt -2.044642 0.000005
vt -2.044642 1.574807
vt -17.640390 1.574807
vt -17.640390 0.000005
vt -2.044642 17.640390
vt -2.044642 19.685040
vt -17.640390 19.685040
vt -17.640390 17.640390
vt -19.685040 17.640390
vt -17.640390 2.044642
vt -17.640390 0.000005
vt -19.685040 2.044642
vt -2.044642 0.000005
vt 0.000005 2.044642
vt 0.000005 17.640390
vt -2.044642 2.044642
vt -1.999999 5.999998
vt -1.999999 5.000000
vt -1.000002 5.000000
vt -1.000002 5.999998
vt -17.640390 1.574807
vt -17.640390 0.000005
vt -2.044642 0.000005
vt -17.640390 1.574807
vt -17.640390 0.000005
vt -2.044642 0.000005
vt -17.640390 1.574807
vt -17.640390 0.000005
vt -17.640390 0.000005
vt -2.044642 0.000005
vt -17.640390 1.574807
vt -17.640390 0.000005
vt -2.044642 0.000005
vt -17.640390 1.574807
vt -17.640390 0.000005
vt -2.044642 0.000005
vt -2.044642 0.000005
vt -17.640390 1.574807
vt -17.640390 1.574807
vt -17.640390 0.000005
vt -2.044642 0.000005
vt -17.640390 1.574807
vt -17.640390 0.000005
vt -2.044642 0.000005
vt -17.640390 1.574807
vt -17.640390 0.000005
vt -2.044642 0.000005
vt -17.640390 1.574807
vt -17.640390 0.000005
vt -2.044642 0.000005
vt -17.640390 1.574807
vt -17.640390 0.000005
vt -2.044642 0.000005
vt -17.640390 1.574807
vt -17.640390 0.000005
vt -2.044642 0.000005
vt -17.640390 1.574807
vt -17.640390 0.000005
vt -2.044642 0.000005
vt -2.044642 0.000005
vt -17.640390 1.574807
vt -17.640390 0.000005
vt -2.044642 0.000005
vt -17.640390 0.000005
vt -17.640390 0.000005
vt -2.044642 0.000005
vt -17.640390 1.574807
vt -2.044642 0.000005
vt -17.640390 1.574807
vt -17.640390 0.000005
vt -17.640390 0.000005
vt -2.044642 0.000005
vt -1.000002 5.000000
vt -1.000002 5.999998
vt -1.999999 5.999998
vt -1.000002 5.000000
vt -1.000002 5.999998
vt -1.999999 5.999998
vt -1.000002 5.000000
vt -1.000002 5.999998
vt -1.999999 5.999998
vt -1.000002 5.000000
vt -1.000002 5.999998
vt -1.999999 5.999998
vn 0.7098 0.0039 0.7044
vn -0.7092 0.7050 0.0000
vn -0.0039 1.0000 0.0000
vn 0.9999 0.0147 0.0000
vn 0.7098 0.0039 -0.7044
vn -0.0039 0.0039 -1.0000
vn -0.7098 0.0039 -0.7044
vn -1.0000 0.0039 0.0000
vn -0.7098 0.0039 0.7044
vn -0.0039 0.0039 1.0000
vn 1.0000 0.0039 0.0000
vn -0.7092 -0.7050 -0.0000
vn -0.0039 -1.0000 -0.0000
vn 1.0000 -0.0054 -0.0002
usemtl metal
s 1
f 1/1/1 2/2/1 3/3/1
f 3/3/1 4/4/1 1/1/1
f 5/5/2 6/6/3 7/7/3
f 7/7/3 8/8/3 5/5/2
f 7/7/3 9/9/3 8/8/3
f 9/9/3 10/10/3 8/8/3
f 9/9/3 11/11/3 10/10/3
f 9/9/3 12/12/3 11/11/3
f 6/6/3 5/5/2 3/13/3
f 10/10/3 11/11/3 3/13/3
f 6/6/3 3/13/3 2/14/3
f 2/14/3 13/15/3 6/6/3
f 5/5/2 14/16/4 3/13/3
f 14/16/4 10/10/3 3/13/3
f 15/17/5 6/18/5 13/19/5
f 13/19/5 16/20/5 15/17/5
f 15/21/6 17/22/6 7/23/6
f 7/23/6 6/24/6 15/21/6
f 7/25/7 17/26/7 18/27/7
f 18/27/7 9/28/7 7/25/7
f 9/29/8 18/30/8 19/31/8
f 19/31/8 12/32/8 9/29/8
f 12/33/9 19/34/9 20/35/9
f 20/35/9 11/36/9 12/33/9
f 20/37/10 4/38/10 3/39/10
f 3/39/10 11/40/10 20/37/10
f 16/41/11 13/42/11 2/43/11
f 2/43/11 1/44/11 16/41/11
f 21/45/12 4/46/13 20/47/13
f 20/47/13 22/48/13 21/45/12
f 20/47/13 19/49/13 22/48/13
f 19/49/13 23/50/13 22/48/13
f 19/49/13 17/51/13 23/50/13
f 19/49/13 18/52/13 17/51/13
f 4/46/13 21/45/12 15/53/13
f 23/50/13 17/51/13 15/53/13
f 4/46/13 15/53/13 16/54/13
f 16/54/13 1/55/13 4/46/13
f 21/45/12 24/56/14 15/53/13
f 24/56/14 23/50/13 15/53/13
usemtl net
f 35/57/3 36/58/3 29/59/3
f 29/59/3 32/60/3 35/57/3
usemtl defaultMat
f 25/61/13 24/62/14 21/63/12
f 21/64/12 22/65/13 25/66/13
f 22/67/13 26/68/13 25/66/13
f 22/67/13 27/69/13 26/70/13
f 28/71/13 23/72/13 24/73/14
f 24/74/14 25/75/13 28/76/13
f 28/71/13 27/69/13 23/77/13
f 27/78/13 22/65/13 23/77/13
f 29/79/11 30/80/11 31/81/11
f 31/82/11 32/83/11 29/84/11
f 33/85/3 14/86/4 5/87/2
f 5/88/2 8/89/3 33/90/3
f 8/91/3 30/80/3 33/90/3
f 8/91/3 31/92/3 30/93/3
f 34/94/3 10/95/3 14/96/4
f 14/97/4 33/98/3 34/99/3
f 34/94/3 31/92/3 10/100/3
f 31/82/3 8/89/3 10/100/3
f 35/101/6 32/83/6 31/81/6
f 31/82/6 34/102/6 35/103/6
f 29/79/10 36/104/10 33/90/10
f 33/85/10 30/80/10 29/84/10
f 33/85/8 36/104/8 35/103/8
f 35/101/8 34/102/8 33/90/8
f 27/78/11 29/105/11 32/106/11
f 32/107/11 26/68/11 27/108/11
f 36/109/8 28/110/8 25/66/8
f 25/61/8 35/111/8 36/112/8
f 27/113/10 28/114/10 36/115/10
f 36/116/10 29/117/10 27/118/10
f 25/119/6 26/120/6 32/121/6
f 32/122/6 35/123/6 25/124/6
