# Blender v2.79 (sub 0) OBJ File: ''
# www.blender.org
mtllib metalFenceCorner.mtl
o metalFenceCorner
v 6.119529 2.212249 2.074194
v -2.074191 2.212249 2.074194
v -2.074191 2.603828 2.074194
v 6.571104 2.603828 2.074194
v 6.571104 0.003823 2.074194
v 6.119529 0.003823 2.074194
v -2.394806 1.124039 2.074194
v -2.074191 0.003823 2.074194
v -2.656714 1.124039 2.074194
v -2.977331 0.003823 2.074194
v -2.977331 2.212249 2.074194
v -2.656714 1.562042 2.074194
v -2.525765 1.562042 2.074194
v -2.394806 1.562042 2.074194
v -2.525765 1.124039 2.074194
v -2.074191 0.003823 2.977333
v -2.074191 2.212250 -6.119535
v -2.074191 0.003824 -6.571101
v -2.074191 2.603829 -6.571101
v -2.074191 0.003824 -6.119536
v -2.074191 1.562042 2.394810
v -2.074191 2.212249 2.977333
v -2.074191 1.562042 2.525759
v -2.074191 1.562042 2.656716
v -2.074191 1.124039 2.656716
v -2.074191 1.124039 2.394810
v -2.074191 1.124039 2.525759
v 6.571104 2.603828 2.525759
v 6.119529 2.603828 2.977333
v -2.074191 2.603828 2.977333
v -2.977331 2.603828 2.074194
v -2.525765 2.603829 -6.571101
v -2.977331 2.603829 -6.119535
v 6.119529 1.562042 2.656716
v 6.119529 1.562042 2.394810
v 6.571104 0.003823 2.525759
v 6.119529 0.003823 2.977333
v 6.119529 2.212249 2.977333
v -2.977331 2.212250 -6.119535
v -2.656714 1.562043 -6.119535
v -2.656714 1.124040 -6.119536
v 6.119529 1.124039 2.656716
v 6.119529 1.124039 2.394810
v -2.394806 1.124040 -6.119536
v -2.394806 1.562043 -6.119535
v -2.525765 0.003824 -6.571101
v -2.977331 0.003824 -6.119536
vt 0.000000 0.000000
vt 0.000000 0.000000
vt 0.000000 0.000000
vt 0.000000 0.000000
vt 0.000000 0.000000
vt 0.000000 0.000000
vt 0.000000 0.000000
vt 0.000000 0.000000
vt 0.000000 0.000000
vt 0.000000 0.000000
vt 0.000000 0.000000
vt 0.000000 0.000000
vt 0.000000 0.000000
vt 0.000000 0.000000
vt 0.000000 0.000000
vt 0.000000 0.000000
vt 0.000000 0.000000
vt 0.000000 0.000000
vt 0.000000 0.000000
vt 0.000000 0.000000
vt 0.000000 0.000000
vt 0.000000 0.000000
vt 0.000000 0.000000
vt 0.000000 0.000000
vt 0.000000 0.000000
vt 0.000000 0.000000
vt 0.000000 0.000000
vt 0.000000 0.000000
vt 0.000000 0.000000
vt 0.000000 0.000000
vt 0.000000 0.000000
vt 0.000000 0.000000
vt 0.000000 0.000000
vt 0.000000 0.000000
vt 0.000000 0.000000
vt 0.000000 0.000000
vt 0.000000 0.000000
vt 0.000000 0.000000
vt 0.000000 0.000000
vt 0.000000 0.000000
vt 0.000000 0.000000
vt 0.000000 0.000000
vt 0.000000 0.000000
vt 0.000000 0.000000
vt 0.000000 0.000000
vt 0.000000 0.000000
vt 0.000000 0.000000
vn -0.0039 0.0039 -1.0000
vn -0.0039 -1.0000 -0.0000
vn 1.0000 0.0039 -0.0000
vn -0.0039 1.0000 -0.0000
vn 0.0287 -0.0143 -0.9995
vn 0.7098 0.0039 0.7044
vn 0.7091 0.0039 0.7051
vn 0.7097 0.0039 0.7045
vn -0.7044 0.0040 0.7098
vn -1.0000 0.0039 0.0000
vn -0.0039 0.0039 1.0000
vn -0.7098 0.0039 -0.7044
vn -0.7098 0.0040 -0.7044
vn -0.7098 0.0039 0.7044
vn -0.7097 0.0039 0.7045
vn 0.7044 0.0040 0.7098
usemtl defaultMat
s 1
f 1/1/1 2/2/1 3/3/1
f 1/1/1 3/3/1 4/4/1
f 1/1/1 4/4/1 5/5/1
f 5/5/1 6/6/1 1/1/1
f 7/7/1 2/2/1 8/8/1
f 8/8/1 9/9/1 7/7/1
f 9/9/1 8/8/1 10/10/1
f 10/10/1 11/11/1 9/9/1
f 11/11/1 12/12/1 9/9/1
f 11/11/1 13/13/1 12/12/1
f 11/11/1 14/14/1 13/13/1
f 7/7/1 14/14/1 2/2/1
f 14/14/1 11/11/1 2/2/1
f 13/13/1 14/14/1 7/7/1
f 9/9/1 15/15/1 7/7/1
f 7/7/1 15/15/1 13/13/1
f 8/8/2 16/16/2 10/10/2
f 17/17/3 18/18/3 19/19/3
f 19/19/3 3/3/3 17/17/3
f 3/3/3 2/2/3 17/17/3
f 18/18/3 17/17/3 20/20/3
f 21/21/3 8/8/3 2/2/3
f 2/2/3 22/22/3 21/21/3
f 22/22/3 23/23/3 21/21/3
f 22/22/3 24/24/3 23/23/3
f 22/22/3 25/25/3 24/24/3
f 8/8/3 21/21/3 26/26/3
f 26/26/3 21/21/3 23/23/3
f 26/26/3 16/16/3 8/8/3
f 25/25/3 22/22/3 16/16/3
f 26/26/3 27/27/3 16/16/3
f 27/27/3 25/25/3 16/16/3
f 23/23/3 27/27/3 26/26/3
f 28/28/4 4/4/4 3/3/5
f 3/3/5 29/29/4 28/28/4
f 3/3/5 30/30/4 29/29/4
f 3/3/5 19/19/4 30/30/4
f 19/19/4 31/31/4 30/30/4
f 19/19/4 32/32/4 31/31/4
f 32/32/4 33/33/4 31/31/4
f 34/34/4 23/23/4 24/24/4
f 21/21/4 23/23/4 34/34/4
f 34/34/4 35/35/4 21/21/4
f 36/36/6 28/28/6 29/29/6
f 29/29/7 37/37/8 36/36/6
f 29/29/7 38/38/9 37/37/8
f 33/33/10 39/39/10 11/11/10
f 11/11/10 31/31/10 33/33/10
f 17/17/2 2/2/2 11/11/2
f 11/11/2 39/39/2 17/17/2
f 22/22/2 2/2/2 1/1/2
f 1/1/2 38/38/2 22/22/2
f 40/40/10 41/41/10 9/9/10
f 9/9/10 12/12/10 40/40/10
f 25/25/11 42/42/11 34/34/11
f 34/34/11 24/24/11 25/25/11
f 43/43/1 26/26/1 21/21/1
f 21/21/1 35/35/1 43/43/1
f 5/5/3 4/4/3 28/28/3
f 28/28/3 36/36/3 5/5/3
f 43/43/10 1/1/10 6/6/10
f 6/6/10 37/37/10 43/43/10
f 37/37/10 42/42/10 43/43/10
f 37/37/10 34/34/10 42/42/10
f 1/1/10 43/43/10 35/35/10
f 35/35/10 38/38/10 1/1/10
f 35/35/10 34/34/10 38/38/10
f 34/34/10 37/37/10 38/38/10
f 44/44/2 7/7/2 15/15/2
f 15/15/2 41/41/2 44/44/2
f 15/15/2 9/9/2 41/41/2
f 22/22/11 38/38/11 29/29/11
f 29/29/11 30/30/11 22/22/11
f 44/44/3 45/45/3 14/14/3
f 14/14/3 7/7/3 44/44/3
f 13/13/4 14/14/4 45/45/4
f 45/45/4 40/40/4 13/13/4
f 40/40/4 12/12/4 13/13/4
f 18/18/1 46/46/1 32/32/1
f 32/32/1 19/19/1 18/18/1
f 44/44/11 47/47/11 20/20/11
f 20/20/11 17/17/11 44/44/11
f 17/17/11 45/45/11 44/44/11
f 17/17/11 40/40/11 45/45/11
f 47/47/11 44/44/11 41/41/11
f 41/41/11 39/39/11 47/47/11
f 41/41/11 40/40/11 39/39/11
f 40/40/11 17/17/11 39/39/11
f 32/32/12 46/46/12 47/47/12
f 47/47/12 33/33/12 32/32/12
f 47/47/12 39/39/13 33/33/12
f 11/11/14 10/10/14 16/16/15
f 11/11/14 16/16/15 30/30/15
f 30/30/15 31/31/14 11/11/14
f 16/16/15 22/22/16 30/30/15
f 43/43/2 27/27/2 26/26/2
f 25/25/2 27/27/2 43/43/2
f 43/43/2 42/42/2 25/25/2
