# Blender v2.79 (sub 0) OBJ File: ''
# www.blender.org
mtllib metalStructureCross.mtl
o metalStructureCross
v -3.072651 9.216754 -5.000000
v -4.096860 9.216754 -5.000000
v -4.096860 10.016754 -5.000000
v 3.072650 9.216754 -5.000000
v 4.096859 10.016754 -5.000000
v 4.096859 9.216754 -5.000000
v -4.096860 0.016754 -4.096861
v -4.096860 0.816754 -4.096861
v -4.096860 0.816754 -3.072652
v -4.096860 0.016753 4.096859
v -4.096860 0.816753 3.072650
v -4.096860 0.816753 4.096859
v 3.072650 0.816753 4.096859
v 4.096859 0.816753 4.096859
v 4.096859 0.016753 4.096859
v -3.072651 0.816753 4.096859
v 3.072650 9.216752 5.000000
v 4.096859 9.216752 5.000000
v 4.096859 10.016752 5.000000
v -4.096860 10.016752 5.000000
v -4.096860 9.216752 5.000000
v -3.072651 9.216752 5.000000
v 4.096859 10.016752 4.096860
v -4.096860 10.016752 4.096860
v -5.000000 10.016752 4.096860
v -4.096860 10.016754 -4.096860
v -5.000000 10.016754 -4.096860
v 5.000000 10.016754 -4.096860
v 5.000000 10.016752 4.096860
v 4.096859 10.016754 -4.096860
v -5.000000 9.216754 -4.096860
v -5.000000 9.216754 -3.072651
v -5.000000 9.216752 3.072651
v -5.000000 9.216752 4.096860
v 5.000000 9.216754 -4.096860
v 5.000000 0.816753 3.072650
v 5.000000 0.816754 -3.072652
v 4.801311 0.816754 -3.072652
v 4.801311 0.816754 -2.853173
v 4.096859 0.816753 3.072650
v 4.295558 0.816754 -2.853173
v 4.295558 0.816754 -3.072652
v 4.096859 0.816754 -3.072652
v 2.853172 0.816753 4.295557
v 3.072650 0.816753 4.295557
v 2.853172 0.816753 4.801309
v -3.072651 0.816753 4.999999
v 3.072650 0.816753 4.801309
v 3.072650 0.816753 4.999999
v -4.096860 0.016752 4.999999
v 4.096859 0.016752 4.999999
v 4.096859 0.816753 4.999999
v -4.096860 0.816753 4.999999
v -4.096860 9.216754 -4.096860
v -4.096860 9.216754 -3.072651
v -4.096860 9.216752 3.072651
v -4.096860 9.216752 4.096860
v -5.000000 0.816754 -4.096861
v -5.000000 0.016754 -4.096861
v -5.000000 0.016753 4.096859
v -5.000000 0.816754 -3.072652
v -5.000000 0.816753 3.072650
v -5.000000 0.816753 4.096859
v 4.295558 9.216753 2.772644
v 4.295558 9.216752 3.072651
v 4.096859 9.216752 3.072651
v 4.096859 9.216754 -3.072651
v 4.801311 9.216753 2.772644
v 5.000000 9.216754 -3.072651
v 4.801311 9.216752 3.072651
v 5.000000 9.216752 3.072651
v -4.295558 0.816753 2.853171
v -4.295558 0.816753 3.072650
v -4.801311 0.816753 2.853171
v -4.801311 0.816753 3.072650
v 5.000000 9.216752 4.096860
v -4.295558 9.216753 -2.772644
v -4.801311 9.216753 -2.772644
v -4.801311 9.216754 -3.072651
v -4.295558 9.216754 -3.072651
v 5.000000 0.016754 -4.096861
v 5.000000 0.816754 -4.096861
v 5.000000 0.016753 4.096859
v 5.000000 0.816753 4.096859
v -3.072651 9.216752 4.096860
v 3.072650 9.216752 4.096860
v 4.096859 9.216752 4.096860
v 3.072650 9.216754 -4.096860
v 4.096859 9.216754 -4.096860
v -3.072651 9.216754 -4.096860
v 4.096859 0.816754 -4.096861
v 4.096859 0.016754 -4.096861
v -4.096860 0.016754 -5.000001
v -4.096860 0.816754 -5.000001
v -2.772645 9.216752 4.801311
v -2.772645 9.216752 4.295558
v -3.072651 9.216752 4.801311
v -3.072651 9.216752 4.295558
v 4.096859 0.016754 -5.000001
v 4.096859 0.816754 -5.000001
v -3.072651 0.816754 -5.000001
v 3.072650 0.816754 -5.000001
v 3.072650 0.816754 -4.096861
v -2.853172 0.816754 -4.801313
v -3.072651 0.816754 -4.801313
v -2.853172 0.816754 -4.295560
v -3.072651 0.816754 -4.096861
v -3.072651 0.816754 -4.295560
v 3.072650 9.216754 -4.295558
v 2.772644 9.216754 -4.295558
v 2.772644 9.216754 -4.801311
v 3.072650 9.216754 -4.801311
v 3.072650 1.226823 4.801309
v 3.072650 1.226824 4.295557
v -3.072651 8.916754 4.801311
v -3.072651 8.916754 4.295558
v -4.801311 1.226824 3.072650
v -4.295558 1.226824 3.072650
v 4.801311 1.226825 -3.072652
v 4.295558 1.226825 -3.072652
v -4.295558 8.916756 -3.072651
v -4.801311 8.916756 -3.072651
v 3.072650 8.916756 -4.801311
v 3.072650 8.916756 -4.295558
v -3.072651 1.226825 -4.801313
v -3.072651 1.226825 -4.295560
v 4.295558 8.916754 3.072651
v 4.801311 8.916754 3.072651
vt 31.782080 36.220470
vt 35.814419 36.220470
vt 35.814419 39.370079
vt 7.588006 36.220470
vt 3.555662 39.370079
vt 3.555662 36.220470
vt -3.555652 0.000005
vt -3.555652 3.149608
vt -7.588006 3.149608
vt -35.814419 0.000005
vt -31.782080 3.149608
vt -35.814419 3.149608
vt 7.588006 3.149608
vt 3.555662 3.149608
vt 3.555662 0.000005
vt 31.782080 3.149608
vt 35.814419 3.149608
vt 35.814419 0.000005
vt -7.588006 36.220470
vt -3.555652 36.220470
vt -3.555652 39.370079
vt -35.814419 39.370079
vt -35.814419 36.220470
vt -31.782080 36.220470
vt -3.555652 35.814419
vt -35.814419 35.814419
vt -39.370079 35.814419
vt -35.814419 3.555662
vt -35.814419 0.000005
vt -39.370079 3.555662
vt -3.555652 0.000005
vt 0.000005 3.555662
vt -3.555652 3.555662
vt 3.555662 39.370079
vt 3.555662 36.220470
vt 7.588006 36.220470
vt 35.814419 39.370079
vt 31.782080 36.220470
vt 35.814419 36.220470
vt -2.514232 39.370079
vt -2.514232 36.220470
vt 2.514232 36.220470
vt 2.514232 39.370079
vt 0.000005 31.782080
vt 0.000005 7.588006
vt 0.782252 7.588006
vt 0.782252 8.452076
vt 3.555662 31.782080
vt 2.773414 8.452076
vt 2.773414 7.588006
vt 3.555662 7.588006
vt 8.452076 36.596668
vt 7.588006 36.596668
vt 7.588006 35.814419
vt 31.782080 35.814419
vt 8.452076 38.587841
vt 31.782080 39.370079
vt 7.588006 38.587841
vt 7.588006 39.370079
vt -35.814419 0.000005
vt -3.555652 0.000005
vt -3.555652 3.149608
vt -35.814419 3.149608
vt -7.588006 3.149608
vt -31.782080 3.149608
vt -3.555652 36.220470
vt -3.555652 39.370079
vt -35.814419 39.370079
vt -7.588006 36.220470
vt -31.782080 36.220470
vt -35.814419 36.220470
vt 3.555662 3.149608
vt 3.555662 0.000005
vt 35.814419 0.000005
vt 7.588006 3.149608
vt 31.782080 3.149608
vt 35.814419 3.149608
vt -2.773414 30.600981
vt -2.773414 31.782080
vt -3.555652 31.782080
vt -3.555652 7.588006
vt -0.782243 30.600981
vt 0.000005 7.588006
vt -0.782243 31.782080
vt 0.000005 31.782080
vt 35.814419 31.782080
vt 35.814419 7.588006
vt 39.370079 7.588006
vt 36.596668 30.918011
vt 36.596668 31.782080
vt 38.587841 30.918011
vt 39.370079 31.782080
vt 38.587841 31.782080
vt -2.514232 0.000005
vt 2.514232 0.000005
vt 2.514232 3.149608
vt -2.514232 3.149608
vt -3.555652 36.220470
vt -3.555652 39.370079
vt -35.814419 39.370079
vt -7.588006 36.220470
vt -31.782080 36.220470
vt -35.814419 36.220470
vt -35.814419 7.588006
vt -35.814419 31.782080
vt -39.370079 31.782080
vt -36.596668 8.769107
vt -38.587830 8.769107
vt -38.587830 7.588006
vt -39.370079 7.588006
vt -36.596668 7.588006
vt -25.324619 36.220470
vt -25.324619 39.370079
vt -30.353081 39.370079
vt -30.353081 36.220470
vt -3.555652 0.000005
vt -3.555652 3.149608
vt -7.588006 3.149608
vt -35.814419 0.000005
vt -31.782080 3.149608
vt -35.814419 3.149608
vt 31.782080 36.220470
vt 35.814419 36.220470
vt 35.814419 39.370079
vt 7.588006 36.220470
vt 3.555662 39.370079
vt 3.555662 36.220470
vt -7.588006 36.220470
vt -3.555652 36.220470
vt -3.555652 39.370079
vt -31.782080 36.220470
vt -35.814419 39.370079
vt -35.814419 36.220470
vt 3.555662 3.149608
vt 3.555662 0.000005
vt 35.814419 0.000005
vt 7.588006 3.149608
vt 31.782080 3.149608
vt 35.814419 3.149608
vt -25.324619 0.000005
vt -25.324619 3.149608
vt -30.353081 3.149608
vt -30.353081 0.000005
vt 25.324619 0.000005
vt 30.353081 0.000005
vt 30.353081 3.149608
vt 25.324619 3.149608
vt -7.588006 35.814419
vt -7.588006 39.370079
vt -31.782080 39.370079
vt -30.600981 38.587841
vt -30.600981 36.596668
vt -31.782080 38.587841
vt -31.782080 35.814419
vt -31.782080 36.596668
vt 3.555662 3.555662
vt 35.814419 0.000005
vt 3.555662 0.000005
vt 35.814419 3.555662
vt 39.370079 3.555662
vt 35.814419 39.370079
vt 39.370079 35.814419
vt 3.555662 39.370079
vt 0.000005 35.814419
vt 0.000005 3.555662
vt 3.555662 35.814419
vt -2.514232 36.220470
vt 2.514232 36.220470
vt 2.514232 39.370079
vt -2.514232 39.370079
vt 25.324619 36.220470
vt 30.353081 39.370079
vt 30.353081 36.220470
vt 25.324619 39.370079
vt 3.555662 39.370079
vt 3.555662 36.220470
vt 7.588006 36.220470
vt 35.814419 39.370079
vt 31.782080 36.220470
vt 35.814419 36.220470
vt -2.514232 3.149608
vt -2.514232 0.000005
vt 2.514232 0.000005
vt 2.514232 3.149608
vt 35.814419 3.149608
vt 3.555662 3.149608
vt 31.782080 3.149608
vt 7.588006 3.149608
vt 7.588006 3.555662
vt 7.588006 0.000005
vt 31.782080 0.000005
vt 30.918011 0.782252
vt 31.782080 0.782252
vt 30.918011 2.773414
vt 31.782080 3.555662
vt 31.782080 2.773414
vt -7.588006 2.773414
vt -7.588006 3.555662
vt -31.782080 3.555662
vt -8.769107 2.773414
vt -8.769107 0.782252
vt -31.782080 0.000005
vt -7.588006 0.000005
vt -7.588006 0.782252
vt -31.782080 3.149608
vt -35.814419 3.149608
vt -35.814419 0.000005
vt -7.588006 3.149608
vt -3.555652 3.149608
vt -3.555652 0.000005
vt 38.587841 4.764059
vt 38.587841 3.149608
vt 39.370079 3.149608
vt 39.370079 36.220470
vt 36.596668 4.764059
vt 35.814419 36.220470
vt 36.596668 3.149608
vt 35.814419 3.149608
vt -38.587830 35.039379
vt -38.587830 36.220470
vt -39.370079 36.220470
vt -39.370079 3.149608
vt -36.596668 35.039379
vt -35.814419 3.149608
vt -36.596668 36.220470
vt -35.814419 36.220470
vt 38.587841 3.149608
vt 39.370079 3.149608
vt 39.370079 36.220470
vt 38.587841 4.764059
vt 36.596668 4.764059
vt 35.814419 36.220470
vt 35.814419 3.149608
vt 36.596668 3.149608
vt -0.782243 3.149608
vt 0.000005 3.149608
vt 0.000005 36.220470
vt -0.782243 4.764059
vt -2.773414 4.764059
vt -3.555652 36.220470
vt -3.555652 3.149608
vt -2.773414 3.149608
vt -39.370079 3.149608
vt -35.814419 3.149608
vt -35.814419 36.220470
vt -36.596668 35.039379
vt -36.596668 36.220470
vt -38.587830 35.039379
vt -39.370079 36.220470
vt -38.587830 36.220470
vt 0.000005 36.220470
vt 0.000005 3.149608
vt 3.555662 3.149608
vt 0.782252 35.039379
vt 2.773414 35.039379
vt 2.773414 36.220470
vt 3.555662 36.220470
vt 0.782252 36.220470
vt 0.000005 3.149608
vt 0.000005 36.220470
vt -3.555652 36.220470
vt -0.782243 4.764059
vt -2.773414 4.764059
vt -2.773414 3.149608
vt -3.555652 3.149608
vt -0.782243 3.149608
vt 0.000005 3.149608
vt 3.555662 3.149608
vt 3.555662 36.220470
vt 2.773414 35.039379
vt 2.773414 36.220470
vt 0.782252 35.039379
vt 0.000005 36.220470
vt 0.782252 36.220470
vt 0.000005 35.814419
vt 30.353081 3.149608
vt 25.324619 3.149608
vt 25.324619 0.000005
vt 30.353081 3.149608
vt 25.324619 3.149608
vt 25.324619 0.000005
vt 30.353081 3.149608
vt 25.324619 3.149608
vt 25.324619 0.000005
vt 30.353081 3.149608
vt 25.324619 3.149608
vt 25.324619 0.000005
vt 25.324619 3.149608
vt 25.324619 0.000005
vt 25.324619 3.149608
vt 25.324619 0.000005
vt 25.324619 3.149608
vt 25.324619 0.000005
vt 25.324619 3.149608
vt 25.324619 0.000005
vt 30.353081 3.149608
vt 25.324619 0.000005
vt 35.814419 35.814419
vt 30.918011 2.773414
vt 31.782080 2.773414
vt 31.782080 3.555662
vt 30.918011 2.773414
vt 31.782080 2.773414
vt 31.782080 3.555662
vt 31.782080 2.773414
vt 31.782080 3.555662
vt 31.782080 2.773414
vt 31.782080 3.555662
vt 30.918011 2.773414
vt 31.782080 2.773414
vt 31.782080 3.555662
vt 30.918011 2.773414
vt 31.782080 2.773414
vt 31.782080 3.555662
vt 30.918011 2.773414
vt 31.782080 2.773414
vt 31.782080 3.555662
vt 30.918011 2.773414
vt 30.918011 2.773414
vt 31.782080 2.773414
vt 31.782080 2.773414
vt 31.782080 3.555662
vt 30.918011 2.773414
vt 31.782080 2.773414
vt 30.918011 2.773414
vt 31.782080 2.773414
vt 31.782080 3.555662
vt 30.918011 2.773414
vt 31.782080 2.773414
vt 31.782080 3.555662
vt 30.918011 2.773414
vt 31.782080 2.773414
vt 30.918011 2.773414
vt 31.782080 2.773414
vt 30.918011 2.773414
vt 31.782080 2.773414
vt 31.782080 3.555662
vt 30.918011 2.773414
vt 31.782080 2.773414
vt 31.782080 3.555662
vt 31.782080 2.773414
vt 31.782080 3.555662
vt 31.782080 2.773414
vt 31.782080 3.555662
vt 30.918011 2.773414
vt 31.782080 3.555662
vt 30.918011 2.773414
vt 31.782080 2.773414
vt 31.782080 3.555662
vt 0.000005 3.149608
vt -0.782243 4.764059
vt -0.782243 3.149608
vt 0.000005 3.149608
vt -0.782243 4.764059
vt -0.782243 3.149608
vt -0.782243 4.764059
vt -0.782243 3.149608
vt 0.000005 3.149608
vt -0.782243 4.764059
vt 0.000005 3.149608
vt -0.782243 3.149608
vt 0.000005 3.149608
vt -0.782243 4.764059
vt -0.782243 4.764059
vt -0.782243 3.149608
vt -0.782243 4.764059
vt -0.782243 3.149608
vt 0.000005 3.149608
vt -0.782243 4.764059
vt 0.000005 3.149608
vt -0.782243 4.764059
vt -0.782243 3.149608
vt 0.000005 3.149608
vt 0.782252 35.039379
vt 0.782252 36.220470
vt 0.000005 36.220470
vt 0.782252 35.039379
vt 0.782252 36.220470
vt 0.000005 36.220470
vt 0.782252 35.039379
vt 0.782252 36.220470
vt 0.000005 36.220470
vt 0.782252 35.039379
vt 0.782252 36.220470
vt 0.000005 36.220470
vt 0.782252 36.220470
vt 0.000005 36.220470
vt 0.782252 36.220470
vt 0.000005 36.220470
vt 0.000005 36.220470
vt 0.782252 35.039379
vt 0.782252 36.220470
vt 0.782252 35.039379
vt 0.782252 36.220470
vt 0.782252 35.039379
vt 0.782252 36.220470
vt 0.782252 35.039379
vt 0.000005 36.220470
vn -0.0039 0.0039 -1.0000
vn 1.0000 0.0039 0.0000
vn -0.0039 0.0039 1.0000
vn -0.0039 1.0000 0.0000
vn 0.4674 0.8416 -0.2706
vn -1.0000 0.0039 0.0000
vn 0.7098 0.0039 -0.7044
vn -0.7098 0.0039 0.7044
vn 0.0014 0.0054 -1.0000
vn -0.0039 -1.0000 -0.0000
vn 0.7098 0.0039 0.7044
vn -0.7098 0.0039 -0.7044
vn -0.8279 0.2961 0.4764
vn -0.0040 -1.0000 0.0000
vn -0.2700 0.9241 0.2706
vn -0.0039 -1.0000 0.0001
vn -0.0040 0.0039 -1.0000
vn -0.0040 0.0039 1.0000
vn 0.6732 0.7395 0.0000
vn 0.0000 0.3331 -0.9429
vn -0.0039 -1.0000 -0.0001
vn -0.0039 -1.0000 -0.0002
vn -0.0039 -0.5922 -0.8058
vn -0.0039 0.5922 0.8058
vn -0.0039 0.5921 0.8058
vn -0.8039 0.5922 -0.0553
vn 0.8039 -0.5922 -0.0553
vn -0.0039 0.5922 -0.8058
vn -0.0039 -0.5922 0.8058
vn -0.0039 -0.5921 0.8058
vn -0.8039 -0.5922 -0.0553
vn 0.8039 0.5922 -0.0553
usemtl metal
s 1
f 1/1/1 2/2/1 3/3/1
f 3/3/1 4/4/1 1/1/1
f 4/4/1 3/3/1 5/5/1
f 5/5/1 6/6/1 4/4/1
f 7/7/2 8/8/2 9/9/2
f 9/9/2 10/10/2 7/7/2
f 9/9/2 11/11/2 10/10/2
f 11/11/2 12/12/2 10/10/2
f 13/13/1 14/14/1 15/15/1
f 15/15/1 16/16/1 13/13/1
f 12/17/1 16/16/1 15/15/1
f 15/15/1 10/18/1 12/17/1
f 17/19/3 18/20/3 19/21/3
f 17/19/3 19/21/3 20/22/3
f 17/19/3 20/22/3 21/23/3
f 21/23/3 22/24/3 17/19/3
f 23/25/4 20/22/4 19/21/4
f 20/22/4 23/25/4 24/26/4
f 20/22/4 24/26/4 25/27/4
f 25/27/4 24/26/4 26/28/4
f 25/27/4 3/29/4 27/30/4
f 19/21/4 5/31/4 23/25/5
f 26/28/4 5/31/4 3/29/4
f 19/21/4 28/32/4 5/31/4
f 30/33/4 5/31/4 26/28/4
f 27/34/6 31/35/6 32/36/6
f 32/36/6 25/37/6 27/34/6
f 32/36/6 33/38/6 25/37/6
f 33/38/6 34/39/6 25/37/6
f 28/40/7 35/41/7 6/42/7
f 6/42/8 28/40/8 5/43/8
f 36/44/4 37/45/4 38/46/4
f 38/46/4 39/47/4 36/44/4
f 40/48/4 36/44/4 39/47/4
f 39/47/4 41/49/4 40/48/4
f 41/49/4 42/50/4 40/48/4
f 42/50/4 43/51/4 40/48/4
f 44/52/4 45/53/4 13/54/4
f 13/54/4 16/55/4 44/52/4
f 16/55/4 46/56/4 44/52/4
f 46/56/4 16/55/4 47/57/4
f 48/58/4 46/56/4 47/57/4
f 47/57/4 49/59/4 48/58/4
f 50/60/3 51/61/3 52/62/3
f 52/62/3 53/63/3 50/60/3
f 52/62/3 49/64/3 53/63/3
f 49/64/3 47/65/9 53/63/3
f 54/66/2 26/67/2 24/68/2
f 24/68/2 55/69/2 54/66/2
f 24/68/2 56/70/2 55/69/2
f 24/68/2 57/71/2 56/70/2
f 58/72/6 59/73/6 60/74/6
f 60/74/6 61/75/6 58/72/6
f 60/74/6 62/76/6 61/75/6
f 60/74/6 63/77/6 62/76/6
f 64/78/10 65/79/10 66/80/10
f 64/78/10 66/80/10 67/81/10
f 68/82/10 64/78/10 67/81/10
f 68/82/10 67/81/10 69/83/10
f 70/84/10 68/82/10 69/83/10
f 69/83/10 71/85/10 70/84/10
f 11/86/4 9/87/4 61/88/4
f 61/88/4 72/89/4 11/86/4
f 72/89/4 73/90/4 11/86/4
f 61/88/4 74/91/4 72/89/4
f 74/91/4 61/88/4 62/92/4
f 62/92/4 75/93/4 74/91/4
f 60/94/8 50/95/8 53/96/8
f 53/96/7 60/94/7 63/97/7
f 35/98/2 28/99/2 29/100/2
f 29/100/2 69/101/2 35/98/2
f 29/100/2 71/102/2 69/101/2
f 29/100/2 76/103/2 71/102/2
f 55/104/10 56/105/10 33/106/10
f 33/106/10 77/107/10 55/104/10
f 33/106/10 78/108/10 77/107/10
f 33/106/10 79/109/10 78/108/10
f 33/106/10 32/110/10 79/109/10
f 55/104/10 77/107/10 80/111/10
f 76/112/11 29/113/11 19/114/11
f 19/114/11 18/115/11 76/112/11
f 81/116/2 82/117/2 37/118/2
f 37/118/2 83/119/2 81/116/2
f 37/118/2 36/120/2 83/119/2
f 36/120/2 84/121/2 83/119/2
f 85/122/1 57/123/1 24/124/1
f 24/124/1 86/125/1 85/122/1
f 86/125/1 24/124/1 23/126/1
f 23/126/1 87/127/1 86/125/1
f 88/128/3 89/129/3 30/130/3
f 30/130/3 90/131/3 88/128/3
f 90/131/3 30/130/3 26/132/3
f 26/132/3 54/133/3 90/131/3
f 91/134/6 92/135/6 15/136/6
f 15/136/6 43/137/6 91/134/6
f 15/136/6 40/138/6 43/137/6
f 15/136/6 14/139/6 40/138/6
f 83/140/11 84/141/11 52/142/11
f 52/142/12 83/140/12 51/143/12
f 93/144/12 59/145/12 58/146/12
f 58/146/11 93/144/11 94/147/11
f 86/148/10 17/149/10 22/150/10
f 22/150/10 95/151/10 86/148/10
f 95/151/10 96/152/10 86/148/10
f 22/150/10 97/153/10 95/151/10
f 85/154/10 86/148/10 96/152/10
f 96/152/10 98/155/10 85/154/10
f 92/156/13 93/157/10 99/158/10
f 93/157/10 92/156/13 7/159/10
f 93/157/10 7/159/10 59/160/10
f 59/160/10 50/161/10 60/162/10
f 99/158/10 51/163/14 92/156/13
f 83/164/10 99/158/10 81/165/10
f 92/156/13 51/163/14 15/166/15
f 34/167/8 21/168/8 20/169/8
f 20/169/7 34/167/7 25/170/7
f 2/171/11 27/172/11 31/173/11
f 27/172/11 2/171/11 3/174/11
f 30/175/6 89/176/6 67/177/6
f 67/177/6 23/178/6 30/175/6
f 67/177/6 66/179/6 23/178/6
f 66/179/6 87/180/6 23/178/6
f 82/181/7 81/182/7 99/183/7
f 99/183/8 82/181/8 100/184/8
f 99/158/1 93/157/1 94/185/1
f 94/185/1 100/186/1 99/158/1
f 94/185/1 101/187/1 100/186/1
f 101/187/1 102/188/1 100/186/1
f 103/189/4 102/190/4 101/191/4
f 101/191/4 104/192/4 103/189/4
f 101/191/4 105/193/4 104/192/4
f 103/189/4 104/192/4 106/194/4
f 106/194/4 107/195/4 103/189/4
f 106/194/4 108/196/4 107/195/4
f 109/197/10 88/198/10 90/199/10
f 90/199/10 110/200/16 109/197/10
f 90/199/10 111/201/10 110/200/16
f 111/201/10 90/199/10 1/202/10
f 111/201/10 1/202/10 4/203/10
f 4/203/10 112/204/10 111/201/10
f 107/205/3 8/206/3 7/207/3
f 7/207/3 103/208/3 107/205/3
f 91/209/3 103/208/3 7/207/3
f 7/207/3 92/210/3 91/209/3
usemtl pipe
f 63/97/8 53/96/8 21/168/8
f 21/168/8 34/167/8 63/97/8
f 100/186/1 102/188/1 4/4/1
f 4/4/1 6/6/1 100/186/1
f 94/147/12 58/146/12 31/173/12
f 31/173/12 2/171/12 94/147/12
f 33/38/6 62/76/6 63/77/6
f 63/77/6 34/39/6 33/38/6
f 66/179/6 40/138/6 14/139/6
f 14/139/6 87/180/6 66/179/6
f 14/14/1 13/13/1 86/125/1
f 86/125/1 87/127/1 14/14/1
f 88/128/3 103/208/3 91/209/3
f 91/209/3 89/129/3 88/128/3
f 89/176/6 91/134/6 43/137/6
f 43/137/6 67/177/6 89/176/6
f 84/141/11 76/112/11 18/115/11
f 18/115/11 52/142/11 84/141/11
f 85/122/1 16/16/1 12/17/1
f 12/17/1 57/123/1 85/122/1
f 8/8/2 54/66/2 55/69/2
f 55/69/2 9/9/2 8/8/2
f 53/63/3 47/65/9 22/24/3
f 22/24/3 21/23/3 53/63/3
f 113/211/6 48/212/6 49/213/6
f 113/211/6 49/213/6 17/214/6
f 114/215/6 113/211/6 17/214/6
f 114/215/6 17/214/6 86/216/6
f 45/217/6 114/215/6 86/216/6
f 86/216/6 13/218/6 45/217/6
f 36/120/2 71/102/2 76/103/2
f 76/103/2 84/121/2 36/120/2
f 101/187/1 94/185/1 2/2/1
f 2/2/1 1/1/1 101/187/1
f 8/206/3 107/205/3 90/131/3
f 90/131/3 54/133/3 8/206/3
f 11/11/2 56/70/2 57/71/2
f 57/71/2 12/12/2 11/11/2
f 115/219/2 97/220/2 22/221/2
f 115/219/2 22/221/2 47/222/2
f 116/223/2 115/219/2 47/222/2
f 116/223/2 47/222/2 16/224/2
f 98/225/2 116/223/2 16/224/2
f 16/224/2 85/226/2 98/225/2
f 31/35/6 58/72/6 61/75/6
f 61/75/6 32/36/6 31/35/6
f 75/227/1 62/228/1 33/229/1
f 33/229/1 117/230/17 75/227/1
f 33/229/1 118/231/1 117/230/17
f 118/231/1 33/229/1 56/232/1
f 118/231/1 56/232/1 11/233/1
f 11/233/1 73/234/1 118/231/1
f 100/184/7 6/42/7 35/41/7
f 35/41/7 82/181/7 100/184/7
f 38/235/3 37/236/3 69/237/3
f 69/237/3 119/238/18 38/235/3
f 69/237/3 120/239/3 119/238/18
f 120/239/3 69/237/3 67/240/3
f 120/239/3 67/240/3 43/241/3
f 43/241/3 42/242/3 120/239/3
f 61/243/3 9/244/3 55/245/3
f 55/245/3 121/246/3 61/243/3
f 55/245/3 80/247/3 121/246/3
f 61/243/3 121/246/3 122/248/3
f 122/248/3 32/249/3 61/243/3
f 122/248/3 79/250/3 32/249/3
f 82/117/2 35/98/2 69/101/2
f 69/101/2 37/118/2 82/117/2
f 49/64/3 52/62/3 18/20/3
f 18/20/3 17/19/3 49/64/3
f 4/251/6 102/252/6 103/253/6
f 103/253/6 123/254/6 4/251/6
f 103/253/6 124/255/6 123/254/6
f 103/253/6 109/256/6 124/255/6
f 103/253/6 88/257/6 109/256/6
f 4/251/6 123/254/6 112/258/6
f 101/259/2 1/260/2 90/261/2
f 90/261/2 125/262/2 101/259/2
f 90/261/2 126/263/2 125/262/2
f 90/261/2 108/264/2 126/263/2
f 90/261/2 107/265/2 108/264/2
f 101/259/2 125/262/2 105/266/2
f 36/267/1 40/268/1 66/269/1
f 66/269/1 127/270/1 36/267/1
f 66/269/1 65/271/1 127/270/1
f 36/267/1 127/270/1 128/272/1
f 128/272/1 71/273/1 36/267/1
f 128/272/1 70/274/1 71/273/1
usemtl defaultMat
f 25/27/10 3/29/10 26/28/10
f 28/32/10 29/275/10 19/21/10
f 23/25/19 30/33/19 5/31/19
f 87/276/20 18/277/21 17/278/10
f 17/279/10 86/280/10 87/281/20
f 71/282/10 76/283/10 18/284/21
f 18/285/21 70/286/10 71/287/10
f 18/285/21 68/288/10 70/289/10
f 18/285/21 65/290/10 68/291/10
f 18/285/21 66/292/22 65/293/10
f 18/285/21 87/294/20 66/295/22
f 68/296/10 65/290/10 64/297/10
f 59/160/4 10/298/4 7/159/4
f 59/160/4 50/161/4 10/298/4
f 10/298/4 50/161/4 51/163/4
f 99/158/4 51/163/4 83/164/4
f 15/166/4 10/298/4 51/163/4
f 79/299/6 122/300/6 74/301/6
f 74/302/6 78/303/6 79/304/6
f 74/302/6 117/305/6 78/306/6
f 74/302/6 75/307/6 117/308/6
f 72/309/23 74/310/23 122/311/23
f 122/312/23 121/313/23 72/314/23
f 117/315/24 118/316/24 77/317/24
f 77/318/24 78/303/25 117/308/24
f 121/319/2 80/320/2 77/317/2
f 77/318/2 72/321/2 121/322/2
f 77/318/2 118/316/2 72/314/2
f 118/323/2 73/324/2 72/314/2
f 123/325/1 104/326/1 105/327/1
f 105/328/1 125/329/1 123/330/1
f 125/331/1 111/332/1 123/330/1
f 111/333/1 112/334/1 123/330/1
f 108/335/3 106/336/3 124/337/3
f 124/338/3 126/339/3 108/340/3
f 124/338/3 110/341/3 126/342/3
f 124/338/3 109/343/3 110/344/3
f 111/333/26 125/329/26 126/342/26
f 126/345/26 110/341/26 111/346/26
f 104/347/27 123/348/27 124/337/27
f 124/338/27 106/336/27 104/349/27
f 120/350/6 42/351/6 41/352/6
f 41/353/6 64/354/6 120/355/6
f 41/353/6 127/356/6 64/357/6
f 127/358/6 65/359/6 64/357/6
f 38/360/2 119/238/2 68/361/2
f 68/362/2 39/363/2 38/235/2
f 68/362/2 128/364/2 39/365/2
f 68/362/2 70/366/2 128/367/2
f 119/368/28 120/369/28 64/357/28
f 64/370/28 68/371/28 119/372/28
f 41/353/29 39/363/30 128/367/29
f 128/373/29 127/356/29 41/352/29
f 115/374/31 116/375/31 44/376/31
f 44/377/31 46/378/31 115/379/31
f 45/380/1 44/381/1 116/382/1
f 116/383/1 114/384/1 45/385/1
f 116/383/1 96/386/1 114/387/1
f 116/383/1 98/388/1 96/389/1
f 115/374/3 46/378/3 48/390/3
f 48/391/3 113/392/3 115/379/3
f 113/393/3 95/394/3 115/379/3
f 95/395/3 97/396/3 115/379/3
f 114/397/32 96/386/32 95/398/32
f 95/395/32 113/392/32 114/387/32
