# Blender v2.79 (sub 0) OBJ File: ''
# www.blender.org
mtllib meteorFullRound.mtl
o meteorFullRound
v -2.136197 0.916717 3.700002
v 2.136197 0.916717 3.700002
v 2.886749 2.766716 5.000001
v -2.886749 2.766716 5.000001
v -2.136197 0.066716 0.000005
v -1.068101 0.066716 1.850003
v -4.272389 0.916718 0.000005
v -4.272389 9.016718 0.000006
v -5.773502 7.166719 0.000006
v -2.886749 7.166718 5.000002
v -2.136197 9.016717 3.700004
v -2.136197 9.016719 -3.700002
v -2.886749 7.166720 -5.000002
v -2.136197 9.866720 0.000006
v -1.068101 9.866720 -1.850003
v -2.886749 2.766718 -5.000002
v -5.773502 2.766717 0.000005
v -2.136197 0.916719 -3.700003
v -1.068101 0.066716 -1.850005
v 2.136197 0.916719 -3.700003
v 4.272389 0.916718 0.000005
v 2.136197 0.066716 0.000005
v 1.068101 0.066716 -1.850005
v 1.068101 9.866720 1.850005
v 2.136197 9.866720 0.000006
v 1.068101 9.866720 -1.850003
v -1.068101 9.866720 1.850005
v 2.136197 9.016719 -3.700002
v 2.886749 7.166720 -5.000002
v 4.272389 9.016718 0.000006
v 2.136197 9.016717 3.700004
v 2.886749 2.766718 -5.000002
v 1.068101 0.066716 1.850003
v 5.773502 2.766717 0.000005
v 5.773502 7.166719 0.000006
v 2.886749 7.166718 5.000002
vt -8.410216 -4.670778
vt 8.410216 -4.670778
vt 11.365160 4.231129
vt -11.365160 4.231129
vt -4.205105 -1.435826
vt 4.205116 -1.435826
vt 8.410216 6.579641
vt -8.410216 6.579641
vt -8.410216 4.670778
vt -11.365160 -4.231129
vt 11.365160 -4.231129
vt 8.410216 4.670778
vt -8.410216 4.670778
vt -11.365160 -4.231129
vt 11.365160 -4.231129
vt 8.410216 4.670778
vt 4.205116 1.435826
vt -4.205105 1.435826
vt -8.410216 -6.579641
vt 8.410216 -6.579641
vt -11.365160 8.661425
vt -11.365160 -8.661413
vt 11.365160 -8.661413
vt 11.365160 8.661425
vt -8.410216 6.579641
vt -4.205105 -1.435826
vt 4.205116 -1.435826
vt 8.410216 6.579641
vt 8.410216 6.579641
vt -8.410216 6.579641
vt -4.205105 -1.435826
vt 4.205116 -1.435826
vt -4.205105 7.283461
vt -8.410216 0.000005
vt -4.205105 -7.283461
vt 4.205116 -7.283461
vt 4.205116 7.283461
vt 8.410216 0.000005
vt -4.205105 1.435826
vt -8.410216 -6.579641
vt 8.410216 -6.579641
vt 4.205116 1.435826
vt -11.365160 -4.231129
vt 11.365160 -4.231129
vt 8.410216 4.670778
vt -8.410216 4.670778
vt -4.205105 1.435826
vt -8.410216 -6.579641
vt 8.410216 -6.579641
vt 4.205116 1.435826
vt -8.410216 -6.579641
vt 8.410216 -6.579641
vt 4.205116 1.435826
vt -4.205105 1.435826
vt -11.365160 -8.661413
vt 11.365160 -8.661413
vt 11.365160 8.661425
vt -11.365160 8.661425
vt 4.205116 -1.435826
vt 8.410216 6.579641
vt -8.410216 6.579641
vt -4.205105 -1.435826
vt -8.410216 -4.670778
vt 8.410216 -4.670778
vt 11.365160 4.231129
vt -11.365160 4.231129
vt 8.410216 -4.670778
vt 11.365160 4.231129
vt -11.365160 4.231129
vt -8.410216 -4.670778
vt -11.365160 8.661425
vt -11.365160 -8.661413
vt 11.365160 -8.661413
vt 11.365160 8.661425
vt 11.365160 4.231129
vt -11.365160 4.231129
vt -8.410216 -4.670778
vt 8.410216 -4.670778
vt 11.365160 -4.231129
vt 8.410216 4.670778
vt -8.410216 4.670778
vt -11.365160 -4.231129
vt 8.410216 6.579641
vt -8.410216 6.579641
vt -4.205105 -1.435826
vt 4.205116 -1.435826
vt -11.365160 -4.231129
vt 11.365160 -4.231129
vt 8.410216 4.670778
vt -8.410216 4.670778
vt 11.365160 -8.661413
vt 11.365160 8.661425
vt -11.365160 8.661425
vt -11.365160 -8.661413
vt 11.365160 -8.661413
vt 11.365160 8.661425
vt -11.365160 8.661425
vt -11.365160 -8.661413
vt 8.410216 -4.670778
vt 11.365160 4.231129
vt -11.365160 4.231129
vt -8.410216 -4.670778
vt -11.365160 4.231129
vt -8.410216 -4.670778
vt 8.410216 -4.670778
vt 11.365160 4.231129
vt 4.205116 -7.283461
vt 8.410216 0.000005
vt 4.205116 7.283461
vt -4.205105 7.283461
vt -4.205105 -7.283461
vt -8.410216 0.000005
vt -11.365160 -4.231129
vt 11.365160 -4.231129
vt 8.410216 4.670778
vt -8.410216 4.670778
vt 4.205116 -1.435826
vt 8.410216 6.579641
vt -8.410216 6.579641
vt -4.205105 -1.435826
vt -8.410216 -6.579641
vt 8.410216 -6.579641
vt 4.205116 1.435826
vt -4.205105 1.435826
vt 8.410216 -6.579641
vt 4.205116 1.435826
vt -4.205105 1.435826
vt -8.410216 -6.579641
vt -11.365160 -8.661413
vt 11.365160 -8.661413
vt 11.365160 8.661425
vt -11.365160 8.661425
vn -0.0039 -0.5765 0.8171
vn -0.3647 -0.9059 0.2153
vn -0.7098 0.5765 0.4048
vn -0.7098 0.5765 -0.4048
vn -0.3647 0.9059 -0.2153
vn -0.8667 0.0039 -0.4989
vn -0.8667 0.0040 -0.4989
vn -0.3647 -0.9059 -0.2153
vn 0.3647 -0.9059 -0.2153
vn -0.0039 1.0000 -0.0000
vn -0.0039 0.9059 -0.4235
vn -0.0039 0.5765 -0.8171
vn 0.3647 0.9059 -0.2153
vn -0.0039 0.9059 0.4235
vn -0.0039 0.0039 -1.0000
vn -0.0039 -0.9059 0.4235
vn -0.0039 -0.5765 -0.8171
vn 0.7098 -0.5765 0.4048
vn -0.8667 0.0039 0.4989
vn -0.7098 -0.5765 -0.4048
vn 0.7098 0.5765 0.4048
vn -0.0039 -0.9059 -0.4235
vn 0.7098 0.5765 -0.4048
vn 0.8667 0.0039 -0.4989
vn 0.8667 0.0040 -0.4989
vn 0.8667 0.0039 0.4989
vn 0.7098 -0.5765 -0.4048
vn -0.7098 -0.5765 0.4048
vn -0.0039 -1.0000 -0.0000
vn -0.0039 0.5765 0.8171
vn 0.3647 -0.9059 0.2153
vn 0.3647 0.9059 0.2153
vn -0.3647 0.9059 0.2153
vn -0.0039 0.0039 1.0000
usemtl rock
s 1
f 1/1/1 2/2/1 3/3/1
f 3/3/1 4/4/1 1/1/1
f 5/5/2 6/6/2 1/7/2
f 1/7/2 7/8/2 5/5/2
f 8/9/3 9/10/3 10/11/3
f 10/11/3 11/12/3 8/9/3
f 12/13/4 13/14/4 9/15/4
f 9/15/4 8/16/4 12/13/4
f 14/17/5 15/18/5 12/19/5
f 12/19/5 8/20/5 14/17/5
f 13/21/6 16/22/6 17/23/6
f 17/23/6 9/24/7 13/21/6
f 18/25/8 19/26/8 5/27/8
f 5/27/8 7/28/8 18/25/8
f 20/29/9 21/30/9 22/31/9
f 22/31/9 23/32/9 20/29/9
f 24/33/10 25/34/10 26/35/10
f 26/35/10 15/36/10 24/33/10
f 15/36/10 27/37/10 24/33/10
f 15/36/10 14/38/10 27/37/10
f 26/39/11 28/40/11 12/41/11
f 12/41/11 15/42/11 26/39/11
f 29/43/12 13/44/12 12/45/12
f 12/45/12 28/46/12 29/43/12
f 25/47/13 30/48/13 28/49/13
f 28/49/13 26/50/13 25/47/13
f 11/51/14 31/52/14 24/53/14
f 24/53/14 27/54/14 11/51/14
f 32/55/15 16/56/15 13/57/15
f 13/57/15 29/58/15 32/55/15
f 33/59/16 2/60/16 1/61/16
f 1/61/16 6/62/16 33/59/16
f 20/63/17 18/64/17 16/65/17
f 16/65/17 32/66/17 20/63/17
f 21/67/18 34/68/18 3/69/18
f 3/69/18 2/70/18 21/67/18
f 9/71/19 17/72/19 4/73/19
f 4/73/19 10/74/19 9/71/19
f 17/75/20 16/76/20 18/77/20
f 18/77/20 7/78/20 17/75/20
f 35/79/21 30/80/21 31/81/21
f 31/81/21 36/82/21 35/79/21
f 18/83/22 20/84/22 23/85/22
f 23/85/22 19/86/22 18/83/22
f 35/87/23 29/88/23 28/89/23
f 28/89/23 30/90/23 35/87/23
f 32/91/24 29/92/24 35/93/24
f 35/93/24 34/94/25 32/91/24
f 34/95/26 35/96/26 36/97/26
f 36/97/26 3/98/26 34/95/26
f 20/99/27 32/100/27 34/101/27
f 34/101/27 21/102/27 20/99/27
f 17/103/28 7/104/28 1/105/28
f 1/105/28 4/106/28 17/103/28
f 23/107/29 22/108/29 33/109/29
f 33/109/29 6/110/29 23/107/29
f 6/110/29 19/111/29 23/107/29
f 6/110/29 5/112/29 19/111/29
f 10/113/30 36/114/30 31/115/30
f 31/115/30 11/116/30 10/113/30
f 22/117/31 21/118/31 2/119/31
f 2/119/31 33/120/31 22/117/31
f 31/121/32 30/122/32 25/123/32
f 25/123/32 24/124/32 31/121/32
f 11/125/33 27/126/33 14/127/33
f 14/127/33 8/128/33 11/125/33
f 4/129/34 3/130/34 36/131/34
f 36/131/34 10/132/34 4/129/34
