# Blender v2.79 (sub 0) OBJ File: ''
# www.blender.org
mtllib pipeOpening.mtl
o pipeOpening
v 2.448003 2.452004 2.051201
v 2.448003 2.452004 -1.835760
v 2.151954 3.166735 -1.835760
v 2.151954 3.166735 2.051201
v 2.151954 3.166735 -1.848797
v 1.731002 4.183001 -5.148113
v 2.448003 2.452005 -5.148113
v 1.731002 4.183001 -1.848797
v 2.448003 2.452003 4.851887
v 1.731002 4.182999 4.851887
v 1.731002 4.183000 2.051201
v -2.448003 2.452004 -1.835760
v -1.731002 0.721007 -1.835761
v -1.731002 0.721006 2.051200
v -2.448003 2.452004 2.051201
v -2.448003 2.452005 -5.148113
v -1.731002 0.721007 -5.148114
v -1.731002 0.721006 4.851886
v -2.448003 2.452003 4.851887
v -0.000005 4.900002 -1.835760
v -0.000005 4.900003 -5.148113
v -1.731002 4.183001 -5.148113
v -1.731002 4.183001 -1.835760
v -0.000005 0.004005 -1.835761
v -0.000005 0.004005 2.051200
v -0.000005 0.004006 -5.148114
v -0.000005 0.004004 4.851886
v -2.151954 3.166735 -1.835760
v -2.151954 3.166735 2.051201
v -2.151954 3.166735 2.064237
v -1.731002 4.182999 4.851887
v -1.731002 4.183000 2.064237
v -0.000005 4.900001 4.851887
v -0.000005 4.900002 2.051201
v 1.731002 0.721006 2.051200
v 1.731002 0.721007 -1.835761
v 1.731002 0.721007 -5.148114
v 1.731002 0.721006 4.851886
v -0.000005 0.458423 -5.148114
v -1.409679 1.042329 -5.148114
v -1.993587 2.452005 -5.148113
v -1.409679 3.861679 -5.148113
v -0.000005 4.445596 -5.148113
v 1.409680 1.042329 -5.148114
v 1.993587 2.452005 -5.148113
v 1.409680 3.861679 -5.148113
v -0.000005 0.458421 4.851886
v 1.409680 1.042327 4.851886
v 1.993587 2.452003 4.851887
v 1.409680 3.861677 4.851887
v -0.000005 4.445594 4.851887
v -1.409679 1.042327 4.851886
v -1.993587 2.452003 4.851887
v -1.409679 3.861677 4.851887
v -1.731002 4.183000 2.051201
v 1.731002 4.183001 -1.835760
v -0.000005 0.458422 -1.835761
v 1.409680 1.042328 -1.835761
v 1.993587 2.452004 -1.835760
v 1.764085 3.006079 -1.835760
v -1.409679 1.042328 -1.835761
v -1.993587 2.452004 -1.835760
v -1.764085 3.006079 -1.835760
v 1.409680 3.861678 -1.835760
v -0.000005 4.445595 -1.835760
v -1.409679 3.861678 -1.835760
v -0.000005 0.458421 2.051200
v -1.409679 1.042328 2.051201
v -1.993587 2.452004 2.051201
v -1.764085 3.006079 2.051201
v 1.409680 1.042328 2.051201
v 1.993587 2.452004 2.051201
v 1.764085 3.006079 2.051201
v -1.409679 3.861678 2.051201
v -0.000005 4.445594 2.051201
v 1.409680 3.861678 2.051201
vt -28.343750 12.749080
vt -28.343750 15.794820
vt -39.370079 12.749080
vt -28.343750 20.125530
vt -39.370079 20.125530
vt -13.040740 15.794820
vt -13.040740 12.749080
vt -12.989420 15.794820
vt 0.000005 20.125530
vt 0.000005 12.749080
vt -12.989420 20.125530
vt 28.343760 12.749080
vt 28.343760 20.125530
vt 13.040740 20.125530
vt 13.040740 12.749080
vt 0.000005 20.125530
vt 0.000005 12.749080
vt 39.370079 12.749080
vt 39.370079 20.125530
vt 13.040740 -10.810160
vt 0.000005 -10.810160
vt 0.000005 -18.186600
vt 13.040740 -18.186600
vt 13.040740 25.563061
vt 13.040740 18.186609
vt 28.343760 18.186609
vt 0.000005 25.563061
vt 0.000005 18.186609
vt 39.370079 18.186609
vt 39.370079 25.563061
vt 28.343760 25.563061
vt 28.343760 -2.317199
vt 28.343760 0.728543
vt 13.040740 0.728543
vt 39.370079 -2.317199
vt 0.000005 5.059257
vt 0.000005 -2.317199
vt 13.040740 -2.317199
vt 13.040740 5.059257
vt 28.395069 0.728543
vt 39.370079 5.059257
vt 28.395069 5.059257
vt -39.370079 25.563061
vt -39.370079 18.186609
vt -28.343750 18.186609
vt -28.343750 25.563061
vt -28.343750 -2.317199
vt -13.040740 -2.317199
vt -13.040740 5.059257
vt -28.343750 5.059257
vt 0.000005 5.059257
vt 0.000005 -2.317199
vt -39.370079 -2.317199
vt -39.370079 5.059257
vt -13.040740 -10.810160
vt -28.343750 -10.810160
vt -28.343750 -18.186600
vt -13.040740 -18.186600
vt 0.000005 -18.186600
vt 0.000005 -10.810160
vt -39.370079 -10.810160
vt -39.370079 -18.186600
vt 19.685040 1.789036
vt 19.685040 0.000005
vt 26.499990 2.822844
vt 25.234940 4.087889
vt 29.322840 9.637795
vt 27.533800 9.637795
vt 26.499990 16.452749
vt 25.234940 15.187710
vt 19.685040 17.486561
vt 19.685040 19.275591
vt 12.870090 2.822844
vt 14.135130 4.087889
vt 10.047250 9.637795
vt 11.836290 9.637795
vt 12.870090 16.452749
vt 14.135130 15.187710
vt -19.685040 1.789036
vt -19.685040 0.000005
vt -12.870090 2.822844
vt -14.135130 4.087889
vt -10.047250 9.637795
vt -11.836280 9.637795
vt -12.870090 16.452749
vt -14.135130 15.187710
vt -19.685040 17.486561
vt -19.685040 19.275591
vt -26.499990 2.822844
vt -25.234949 4.087889
vt -29.322840 9.637795
vt -27.533800 9.637795
vt -26.499990 16.452749
vt -25.234949 15.187710
vt 39.370079 -10.810160
vt 28.343760 -10.810160
vt 28.343760 -18.186600
vt 28.395069 -18.186600
vt 39.370079 -18.186600
vt -12.989420 18.186609
vt 0.000005 25.563061
vt -13.040740 25.563061
vt 0.000005 18.186609
vt -13.040740 18.186609
vt -19.685040 1.789036
vt -19.685040 0.000005
vt -12.870090 2.822844
vt -14.135130 4.087889
vt -10.047250 9.637795
vt -11.836280 9.637795
vt -11.212790 12.451700
vt -12.739840 11.819180
vt -26.499990 2.822844
vt -25.234949 4.087889
vt -29.322840 9.637795
vt -27.533800 9.637795
vt -28.157280 12.451700
vt -26.630251 11.819180
vt -14.135130 15.187710
vt -12.870090 16.452749
vt -19.685040 17.486561
vt -19.685040 19.275591
vt -25.234949 15.187710
vt -26.499990 16.452749
vt 19.685040 1.789036
vt 19.685040 0.000005
vt 26.499990 2.822844
vt 25.234940 4.087889
vt 29.322840 9.637795
vt 27.533800 9.637795
vt 28.157280 12.451700
vt 26.630251 11.819180
vt 12.870090 2.822844
vt 14.135130 4.087889
vt 10.047250 9.637795
vt 11.836290 9.637795
vt 11.212800 12.451700
vt 12.739840 11.819180
vt 25.234940 15.187710
vt 26.499990 16.452749
vt 19.685040 17.486561
vt 19.685040 19.275591
vt 14.135130 15.187710
vt 12.870090 16.452749
vt 28.343760 -5.594216
vt 13.040740 -5.594216
vt 13.040740 -7.247067
vt 28.343760 -7.247067
vt -28.343750 30.778990
vt -28.343750 29.126141
vt -13.040740 29.126141
vt -13.040740 30.778990
vn 0.9239 0.3804 -0.0415
vn -0.9239 -0.3804 -0.0415
vn -0.3804 0.9239 -0.0415
vn 0.3804 -0.9239 -0.0415
vn -0.3804 -0.9239 -0.0415
vn 0.3804 0.9239 -0.0415
vn -0.9239 0.3804 -0.0415
vn -0.8791 0.3760 0.2930
vn -0.9044 0.3799 0.1942
vn -0.9205 0.3798 0.0915
vn 0.9239 -0.3804 -0.0415
vn 0.9239 -0.3803 -0.0415
vn -0.0036 0.0036 -1.0000
vn -0.0036 0.0036 1.0000
usemtl pipe
s 1
f 1/1/1 4/2/1 9/3/1
f 4/2/1 11/4/1 10/5/1
f 1/1/2 3/6/2 2/7/2
f 3/6/2 1/1/2 4/2/2
f 5/8/2 2/7/2 3/6/2
f 6/9/2 2/7/2 5/8/2
f 2/7/2 6/9/2 7/10/2
f 6/9/2 5/8/2 8/11/2
f 10/5/2 4/2/2 9/3/2
f 14/12/2 15/13/2 12/14/2
f 13/15/2 12/14/2 16/16/2
f 12/14/1 14/12/1 13/15/1
f 16/16/1 13/15/1 17/17/1
f 15/13/1 18/18/1 14/12/1
f 18/18/1 15/13/1 19/19/1
f 20/20/3 21/21/3 22/22/3
f 22/22/4 20/20/4 23/23/4
f 13/24/5 24/25/5 25/26/5
f 17/27/5 26/28/5 24/25/5
f 25/26/5 27/29/5 18/30/5
f 25/26/6 13/24/6 14/31/6
f 24/25/6 17/27/6 13/24/6
f 18/30/6 25/26/6 14/31/6
f 15/32/7 29/33/7 28/34/7
f 29/33/7 15/32/7 19/35/7
f 22/36/7 16/37/7 12/38/7
f 12/38/8 28/34/9 23/39/10
f 28/34/11 15/32/11 12/38/11
f 19/35/11 29/33/12 30/40/11
f 30/40/11 31/41/11 19/35/11
f 31/41/11 30/40/11 32/42/11
f 12/38/11 22/36/11 23/39/11
f 33/43/6 10/44/6 11/45/6
f 11/45/6 34/46/6 33/43/6
f 35/47/11 36/48/11 2/49/11
f 2/49/11 1/50/11 35/47/11
f 7/51/11 2/49/11 36/48/11
f 36/48/11 37/52/11 7/51/11
f 38/53/11 35/47/11 1/50/11
f 1/50/7 38/53/7 9/54/7
f 36/55/4 35/56/4 25/57/4
f 25/57/4 24/58/4 36/55/4
f 36/55/4 24/58/4 26/59/4
f 26/59/3 36/55/3 37/60/3
f 25/57/3 38/61/3 35/56/3
f 38/61/3 25/57/3 27/62/3
f 39/63/13 26/64/13 17/65/13
f 17/65/13 40/66/13 39/63/13
f 17/65/13 16/67/13 40/66/13
f 16/67/13 41/68/13 40/66/13
f 16/67/13 22/69/13 41/68/13
f 22/69/13 42/70/13 41/68/13
f 22/69/13 43/71/13 42/70/13
f 22/69/13 21/72/13 43/71/13
f 37/73/13 26/64/13 39/63/13
f 39/63/13 44/74/13 37/73/13
f 44/74/13 7/75/13 37/73/13
f 44/74/13 45/76/13 7/75/13
f 45/76/13 6/77/13 7/75/13
f 43/71/13 21/72/13 6/77/13
f 45/76/13 46/78/13 6/77/13
f 46/78/13 43/71/13 6/77/13
f 47/79/14 27/80/14 38/81/14
f 38/81/14 48/82/14 47/79/14
f 38/81/14 9/83/14 48/82/14
f 9/83/14 49/84/14 48/82/14
f 9/83/14 10/85/14 49/84/14
f 10/85/14 50/86/14 49/84/14
f 10/85/14 51/87/14 50/86/14
f 10/85/14 33/88/14 51/87/14
f 18/89/14 27/80/14 47/79/14
f 47/79/14 52/90/14 18/89/14
f 52/90/14 19/91/14 18/89/14
f 52/90/14 53/92/14 19/91/14
f 53/92/14 31/93/14 19/91/14
f 51/87/14 33/88/14 31/93/14
f 53/92/14 54/94/14 31/93/14
f 54/94/14 51/87/14 31/93/14
f 33/95/3 34/96/3 55/97/3
f 55/97/3 32/98/3 33/95/3
f 33/95/3 32/98/3 31/99/3
f 8/100/6 21/101/6 20/102/6
f 8/100/5 21/101/5 6/103/5
f 20/102/5 8/100/5 56/104/5
f 57/105/14 24/106/14 36/107/14
f 36/107/14 58/108/14 57/105/14
f 36/107/14 2/109/14 58/108/14
f 2/109/14 59/110/14 58/108/14
f 2/109/14 3/111/14 59/110/14
f 3/111/14 60/112/14 59/110/14
f 13/113/14 24/106/14 57/105/14
f 57/105/14 61/114/14 13/113/14
f 61/114/14 12/115/14 13/113/14
f 61/114/14 62/116/14 12/115/14
f 62/116/14 28/117/14 12/115/14
f 62/116/14 63/118/14 28/117/14
f 64/119/14 60/112/14 3/111/14
f 3/111/14 56/120/14 64/119/14
f 56/120/14 65/121/14 64/119/14
f 56/120/14 20/122/14 65/121/14
f 28/117/14 63/118/14 66/123/14
f 66/123/14 23/124/14 28/117/14
f 66/123/14 65/121/14 23/124/14
f 65/121/14 20/122/14 23/124/14
f 67/125/13 25/126/13 14/127/13
f 14/127/13 68/128/13 67/125/13
f 14/127/13 15/129/13 68/128/13
f 15/129/13 69/130/13 68/128/13
f 15/129/13 29/131/13 69/130/13
f 29/131/13 70/132/13 69/130/13
f 35/133/13 25/126/13 67/125/13
f 67/125/13 71/134/13 35/133/13
f 71/134/13 1/135/13 35/133/13
f 71/134/13 72/136/13 1/135/13
f 72/136/13 4/137/13 1/135/13
f 72/136/13 73/138/13 4/137/13
f 74/139/13 70/132/13 29/131/13
f 29/131/13 55/140/13 74/139/13
f 55/140/13 75/141/13 74/139/13
f 55/140/13 34/142/13 75/141/13
f 4/137/13 73/138/13 76/143/13
f 76/143/13 11/144/13 4/137/13
f 76/143/13 75/141/13 11/144/13
f 75/141/13 34/142/13 11/144/13
f 4/145/3 3/146/3 60/147/3
f 60/147/3 73/148/3 4/145/3
f 29/149/6 70/150/6 63/151/6
f 63/151/6 28/152/6 29/149/6
