# Blender v2.79 (sub 0) OBJ File: ''
# www.blender.org
mtllib spaceCraft5.mtl
o spaceCraft5_8angles
v 7.183996 1.281531 -3.097100
v 7.183996 1.281533 -10.576290
v 6.654492 1.281533 -10.576290
v 6.654492 1.281531 -3.097100
v 7.183996 0.860736 -10.997090
v 6.654492 0.860736 -10.997090
v 7.183996 0.694034 -10.997090
v 6.654492 0.694034 -10.997090
v 6.654492 0.694032 4.802907
v 7.183996 0.694032 4.802907
v 7.183996 0.987781 4.802907
v 6.654492 0.987781 4.802907
v 7.183996 0.987781 3.361116
v 6.654492 0.987781 3.361116
v 7.183996 1.281530 3.361116
v 7.183996 1.281531 0.852903
v 6.654492 1.281531 0.852903
v 6.654492 1.281530 3.361116
v 7.183996 0.694034 -7.047088
v 7.183996 0.694033 -3.097100
v 6.654492 0.694033 -3.097100
v 6.654492 0.694034 -7.047088
v 7.183996 0.694032 0.852903
v 6.654492 0.694032 0.852903
v -4.022999 3.369029 -3.097100
v -4.749997 2.642031 -3.097100
v -4.749997 2.642030 0.852903
v -4.022999 3.369028 0.852903
v -2.774995 0.694033 -3.097100
v -4.749997 0.694033 -3.097100
v -2.774995 2.269041 -3.097100
v -2.774995 3.369029 -3.097100
v -4.749997 0.694032 0.852903
v -2.774995 0.694032 0.852903
v -2.774995 2.269040 0.852903
v -2.774995 3.369028 0.852903
v 2.103505 0.294040 -12.400000
v 2.103505 0.926032 -12.400000
v 2.103505 1.226031 -9.897087
v 2.103505 0.294040 -9.897087
v 8.184006 0.294040 -10.997090
v 5.124995 0.294040 -10.997090
v 5.124995 0.694034 -10.997090
v 8.184006 0.694034 -10.997090
v -4.749997 0.294038 0.852903
v -2.774995 0.294038 0.852903
v -4.749997 0.294039 -3.097100
v -2.774995 0.294039 -3.097100
v -2.774995 0.294038 2.827905
v -2.103498 0.294040 -9.897087
v 2.775002 0.294039 -3.097100
v 2.775002 0.294038 0.852903
v 2.775002 0.294038 2.827905
v -2.103498 0.294040 -12.400000
v 8.597076 0.294039 -3.097100
v 8.597076 0.294038 0.852903
v 5.124995 0.294039 -7.047088
v 5.124995 0.694034 -7.047088
v 1.309422 4.644036 0.756387
v 1.309422 4.644036 -0.755621
v -0.000005 4.644036 -1.511609
v -0.000005 4.644035 1.512392
v -1.309432 4.644036 -0.755621
v -1.309432 4.644036 0.756387
v 5.124995 0.694033 -3.097100
v 2.775002 2.269041 -3.097100
v 5.124995 1.281531 -3.097100
v 5.124995 1.678064 -3.097100
v 9.074999 0.771961 -3.097100
v 9.074999 1.678064 -3.097100
v 8.184006 0.694034 -7.047088
v 8.184006 0.294039 -7.047088
v -2.103498 0.926032 -12.400000
v -2.103498 0.926031 -9.897087
v -0.000005 4.244025 1.800382
v 1.558843 4.244025 0.900383
v -1.558852 4.244025 0.900383
v 2.775002 2.269040 0.852903
v 2.775002 2.269040 2.827905
v 9.074999 1.678063 0.852903
v 5.124995 1.678063 0.852903
v -2.774995 2.269040 2.827905
v 9.074999 0.771961 0.852903
v -1.558852 4.244025 -0.899617
v 1.558843 4.244025 -0.899617
v -0.000005 4.244026 -1.799616
v 5.124995 1.281531 0.852903
v 5.124995 0.694032 0.852903
v 2.775002 4.244025 -0.134589
v 2.775002 3.806528 -3.097099
v 1.387498 4.244026 -3.097099
v -1.387492 4.244026 -3.097099
v -2.774995 3.806528 -3.097099
v -2.774995 4.244025 -0.134589
v -2.103498 2.158039 -9.897087
v -2.317957 0.751075 3.902907
v 2.317964 0.751075 3.902907
v 2.317964 3.786987 3.902908
v -2.317957 3.786987 3.902908
v 2.103505 2.158039 -9.897087
v 2.103505 1.558039 -12.400000
v -2.103498 1.558039 -12.400000
v 2.775002 4.244025 2.827906
v -2.774995 4.244025 2.827906
v 5.124995 0.860736 -10.997090
v 5.124995 1.281533 -10.576290
v 5.124995 0.987781 3.361116
v 5.124995 0.987781 4.802907
v -3.051502 0.017531 4.091904
v -3.051502 4.520532 4.091905
v 3.051508 0.017531 4.091904
v 3.051508 0.017531 4.802907
v -3.051502 0.017531 4.802907
v 5.124995 0.694032 4.802907
v 5.124995 1.281530 3.361116
v -2.317957 3.786987 4.802907
v -2.317957 0.751075 4.802907
v 3.051508 4.520532 4.091905
v 3.051508 4.520531 4.802908
v 2.317964 3.786987 4.802907
v 2.317964 0.751075 4.802907
v -3.051502 4.520531 4.802908
vt -4.153944 -4.442297
vt 6.408390 -9.680498
vt 8.725292 -4.442297
vt -8.725281 -4.442297
vt -6.408379 -9.680498
vt 4.153944 -4.442297
vt -5.630335 -5.190835
vt -24.004850 -26.509649
vt -2.050542 -9.662061
vt -9.125825 1.799377
vt 9.125837 1.799377
vt 9.125837 13.751820
vt -9.125825 13.751820
vt 2.050542 -9.662061
vt 24.004860 -26.509649
vt 5.630347 -5.190835
vt -5.462589 -7.096333
vt -8.281496 -35.099331
vt 8.281508 -35.099331
vt 5.462601 -7.096333
vt 48.818901 0.000006
vt 48.818901 2.488193
vt 38.964931 3.669294
vt 38.964931 0.000006
vt -32.220470 0.000006
vt -20.177160 0.000006
vt -20.177160 1.574808
vt -32.220470 1.574808
vt -26.198820 1.574808
vt -28.283461 1.574808
vt -18.700781 1.574808
vt -18.700781 0.000006
vt -10.925200 0.000006
vt -10.925200 1.574808
vt -18.700781 -12.193280
vt -10.925200 -12.193280
vt -10.925200 3.357907
vt -18.700781 3.357907
vt -10.925200 11.133490
vt -8.281496 -38.964931
vt 8.281508 -48.818901
vt 8.281508 -38.964931
vt 10.925210 -12.193280
vt 10.925210 3.357907
vt 10.925210 11.133490
vt -8.281496 -48.818901
vt 33.846741 -12.193280
vt 33.846741 3.357907
vt -43.295650 1.574808
vt -43.295650 0.000006
vt -27.744459 0.000006
vt -27.744459 1.574808
vt -5.155241 2.977906
vt -5.155241 -2.974857
vt 0.000006 -5.951232
vt 0.000006 5.954281
vt 5.155241 -2.974857
vt 5.155241 2.977906
vt -12.193280 1.574808
vt -12.193280 0.000006
vt 3.357907 0.000006
vt 3.357907 1.574808
vt -20.177160 1.574808
vt -33.846729 0.000006
vt -10.925200 0.000006
vt -10.925200 7.775593
vt -20.177160 3.887799
vt -26.198820 3.887799
vt -20.177160 5.448913
vt -28.283461 3.887799
vt -26.198820 1.574808
vt -28.283461 1.574808
vt -35.728352 1.881621
vt -35.728352 5.448913
vt 10.925210 1.574808
vt 10.925210 0.000006
vt 18.700790 0.000006
vt 18.700790 1.574808
vt 26.198820 1.574808
vt 32.220470 1.574808
vt 28.283470 1.574808
vt 20.177170 1.574808
vt 20.177170 0.000006
vt 32.220470 0.000006
vt -48.818901 2.488193
vt -48.818901 0.000006
vt -38.964931 0.000006
vt -38.964931 2.488193
vt -37.962490 2.488193
vt -37.962490 0.000006
vt -11.060620 0.000006
vt -11.060620 7.775593
vt -11.060620 1.574808
vt -3.544066 9.948121
vt 3.542553 9.948121
vt 2.975625 11.803990
vt -2.977138 11.803990
vt -3.542542 9.948121
vt 3.544078 9.948121
vt 2.977149 11.803990
vt -2.975613 11.803990
vt -3.357895 0.000006
vt -3.357895 7.775593
vt -11.133480 7.775593
vt -11.133480 0.000006
vt -35.728352 3.357907
vt -35.728352 -12.193280
vt -20.177160 -12.193280
vt -20.177160 3.357907
vt 3.357907 1.574808
vt 3.357907 0.000006
vt 11.133490 0.000006
vt 3.357907 7.775593
vt 11.133490 7.775593
vt 37.962490 0.000006
vt 37.962490 3.669294
vt 11.060630 7.775593
vt 11.060630 0.000006
vt 12.193290 26.594259
vt -3.357895 26.594259
vt -3.357895 23.933260
vt 12.193290 23.933260
vt -2.974857 11.804680
vt -3.541785 9.948819
vt 3.544835 9.948819
vt 2.977906 11.804680
vt -3.544066 9.949506
vt 3.542553 9.949506
vt 2.975625 11.805370
vt -2.977138 11.805370
vt 43.295658 0.000006
vt 43.295658 1.574808
vt 27.744459 1.574808
vt 27.744459 0.000006
vt 12.193290 1.881621
vt 12.193290 5.448913
vt -3.357895 5.448913
vt -3.357895 1.881621
vt -3.544823 9.948819
vt 3.541797 9.948819
vt 2.974868 11.804680
vt -2.977894 11.804680
vt -8.281496 0.000006
vt 8.281508 0.000006
vt 8.281508 2.488193
vt -8.281496 2.488193
vt 10.925210 0.000006
vt 33.846741 0.000006
vt 35.728352 1.881621
vt 28.283470 1.574808
vt 28.283470 3.887799
vt 35.728352 5.448913
vt 26.198820 3.887799
vt 20.177170 3.887799
vt 20.177170 1.574808
vt 10.925210 7.775593
vt 26.198820 1.574808
vt 20.177170 5.448913
vt -3.542542 9.949506
vt 3.544078 9.949506
vt 2.977149 11.805370
vt -2.975613 11.805370
vt 32.220470 -43.295650
vt 32.220470 -27.744459
vt 20.177170 -27.744459
vt 20.177170 -43.295650
vt -3.357895 -18.238970
vt 12.193290 -18.238970
vt 12.193290 -8.698930
vt -3.357895 -8.698930
vt -32.220470 -27.744459
vt -32.220470 -43.295650
vt -28.283461 -43.295650
vt -28.283461 -27.744459
vt -28.283461 -12.193280
vt -28.283461 -41.638981
vt -26.198820 -41.638981
vt -26.198820 -12.193280
vt -28.283461 -29.037001
vt -26.198820 -29.037001
vt -26.198820 -26.694120
vt -28.283461 -26.694120
vt -26.198820 2.231126
vt -28.283461 2.231126
vt 26.198820 1.574808
vt 28.283470 1.574808
vt 28.283470 2.731303
vt 26.198820 2.731303
vt -28.283461 18.909081
vt -28.283461 13.232740
vt -26.198820 13.232740
vt -26.198820 18.909081
vt -28.283461 13.232740
vt -28.283461 3.357907
vt -26.198820 3.357907
vt -26.198820 13.232740
vt 26.198820 2.731303
vt 28.283470 2.731303
vt 28.283470 3.887799
vt 26.198820 3.887799
vt 28.283470 -27.744459
vt 28.283470 -12.193280
vt 26.198820 -12.193280
vt 26.198820 -27.744459
vt 28.283470 3.357907
vt 28.283470 18.909081
vt 26.198820 18.909081
vt 26.198820 3.357907
vt -12.193280 -2.639120
vt -12.193280 -6.686884
vt 3.357907 -6.686884
vt 3.357907 -2.639120
vt 18.700790 9.244104
vt 10.925210 7.775593
vt 10.925210 12.106310
vt 15.838600 12.106310
vt -3.357895 1.574808
vt -3.357895 3.887799
vt -13.232730 3.887799
vt -13.232730 2.731303
vt -18.909081 1.574808
vt -18.909081 2.731303
vt -12.193280 9.244104
vt 3.357907 9.244104
vt -18.700781 9.244104
vt -10.925200 7.775593
vt -10.925200 12.106310
vt -15.838590 12.106310
vt 10.925210 3.357907
vt 10.925210 -12.193280
vt 15.838600 -12.193280
vt 15.838600 3.357907
vt 43.295658 1.574808
vt 43.295658 2.231126
vt 41.638981 3.887799
vt 27.744459 1.574808
vt 12.193290 3.887799
vt 12.193290 1.574808
vt 3.357907 0.000006
vt 3.357907 1.574808
vt -12.193280 1.574808
vt 3.357907 0.000006
vt 3.357907 1.574808
vt -12.193280 1.574808
vt 3.357907 0.000006
vt 3.357907 1.574808
vt -12.193280 1.574808
vt 3.357907 0.000006
vt 3.357907 1.574808
vt -12.193280 1.574808
vt 3.357907 1.574808
vt -12.193280 1.574808
vt 18.700790 0.000006
vt 18.700790 1.574808
vt 10.925210 1.574808
vt 18.700790 0.000006
vt 18.700790 1.574808
vt 10.925210 1.574808
vt 18.700790 0.000006
vt 18.700790 1.574808
vt 18.700790 0.000006
vt 18.700790 1.574808
vt 10.925210 1.574808
vt 18.700790 0.000006
vt 18.700790 1.574808
vt 10.925210 1.574808
vt 18.700790 1.574808
vt 10.925210 1.574808
vt 18.700790 1.574808
vt 10.925210 1.574808
vt 18.700790 0.000006
vt 18.700790 1.574808
vt 18.700790 1.574808
vt 10.925210 1.574808
vt 18.700790 0.000006
vt 18.700790 1.574808
vt 18.700790 0.000006
vt 18.700790 1.574808
vt 18.700790 1.574808
vt 10.925210 1.574808
vt 10.925210 1.574808
vt 10.925210 1.574808
vt 18.700790 0.000006
vt -11.060620 0.000006
vt -11.060620 1.574808
vt -11.060620 7.775593
vt -11.060620 0.000006
vt -11.060620 1.574808
vt -11.060620 7.775593
vt 2.975625 11.803990
vt -2.977138 11.803990
vt -3.544066 9.948121
vt 2.975625 11.803990
vt -2.977138 11.803990
vt -3.544066 9.948121
vt 2.977149 11.803990
vt -2.975613 11.803990
vt -3.542542 9.948121
vt 2.977149 11.803990
vt -2.975613 11.803990
vt -3.542542 9.948121
vt -2.975613 11.803990
vt -3.542542 9.948121
vt -2.975613 11.803990
vt -3.542542 9.948121
vt -2.975613 11.803990
vt -3.542542 9.948121
vt -11.133480 7.775593
vt -11.133480 0.000006
vt -3.357895 0.000006
vt -11.133480 7.775593
vt -11.133480 0.000006
vt -3.357895 0.000006
vt -11.133480 0.000006
vt -3.357895 0.000006
vt -11.133480 7.775593
vt -11.133480 0.000006
vt -3.357895 0.000006
vt -11.133480 7.775593
vt -11.133480 0.000006
vt -3.357895 0.000006
vt -11.133480 7.775593
vt -11.133480 0.000006
vt -3.357895 0.000006
vt -11.133480 7.775593
vt -11.133480 0.000006
vt -3.357895 0.000006
vt -11.133480 7.775593
vt -11.133480 0.000006
vt -3.357895 0.000006
vt -20.177160 -12.193280
vt -20.177160 3.357907
vt -35.728352 3.357907
vt -20.177160 -12.193280
vt -20.177160 3.357907
vt -35.728352 3.357907
vt -20.177160 -12.193280
vt -20.177160 3.357907
vt -35.728352 3.357907
vt -20.177160 -12.193280
vt -20.177160 3.357907
vt -35.728352 3.357907
vt -20.177160 -12.193280
vt -20.177160 3.357907
vt -35.728352 3.357907
vt -20.177160 -12.193280
vt -20.177160 3.357907
vt -35.728352 3.357907
vt -20.177160 3.357907
vt -35.728352 3.357907
vt 18.700790 9.244104
vt 15.838600 12.106310
vt 10.925210 12.106310
vt 18.700790 9.244104
vt 15.838600 12.106310
vt 10.925210 12.106310
vt 18.700790 9.244104
vt 15.838600 12.106310
vt 10.925210 12.106310
vt 18.700790 9.244104
vt 15.838600 12.106310
vt 10.925210 12.106310
vt 15.838600 12.106310
vt 10.925210 12.106310
vt 18.700790 9.244104
vt 15.838600 12.106310
vt 10.925210 12.106310
vt 18.700790 9.244104
vt 15.838600 12.106310
vt 10.925210 12.106310
vt 2.050542 -9.662061
vt 24.004860 -26.509649
vt 5.630347 -5.190835
vt 2.050542 -9.662061
vt 24.004860 -26.509649
vt 5.630347 -5.190835
vt -3.357895 23.933260
vt 12.193290 23.933260
vt 12.193290 26.594259
vt -3.357895 23.933260
vt 12.193290 23.933260
vt 12.193290 26.594259
vt 8.281508 -35.099331
vt 5.462601 -7.096333
vt -5.462589 -7.096333
vt 8.281508 -35.099331
vt 5.462601 -7.096333
vt -5.462589 -7.096333
vt 8.281508 -35.099331
vt 5.462601 -7.096333
vt -5.462589 -7.096333
vt 8.281508 -35.099331
vt 5.462601 -7.096333
vt -5.462589 -7.096333
vt 5.462601 -7.096333
vt -5.462589 -7.096333
vt 8.281508 -35.099331
vt 8.281508 -35.099331
vt 5.462601 -7.096333
vt -5.462589 -7.096333
vt 8.281508 -35.099331
vt 5.462601 -7.096333
vt -5.462589 -7.096333
vt 8.281508 -35.099331
vt 5.462601 -7.096333
vt -5.462589 -7.096333
vt 8.281508 -35.099331
vt 5.462601 -7.096333
vt -5.462589 -7.096333
vt 2.975625 11.805370
vt -2.977138 11.805370
vt -3.544066 9.949506
vt 2.975625 11.805370
vt -2.977138 11.805370
vt -3.544066 9.949506
vt 2.975625 11.805370
vt -2.977138 11.805370
vt -3.544066 9.949506
vt 2.975625 11.805370
vt -2.977138 11.805370
vt -3.544066 9.949506
vt 2.975625 11.805370
vt -2.977138 11.805370
vt -3.544066 9.949506
vt 2.975625 11.805370
vt -2.977138 11.805370
vt -3.544066 9.949506
vt 2.975625 11.805370
vt -2.977138 11.805370
vt -3.544066 9.949506
vt 27.744459 1.574808
vt 27.744459 0.000006
vt 43.295658 0.000006
vt 27.744459 1.574808
vt 27.744459 0.000006
vt 43.295658 0.000006
vt 27.744459 1.574808
vt 27.744459 0.000006
vt 43.295658 0.000006
vt 27.744459 1.574808
vt 27.744459 0.000006
vt 43.295658 0.000006
vt 27.744459 0.000006
vt 43.295658 0.000006
vt 43.295658 0.000006
vt 3.357907 1.574808
vt 3.357907 9.244104
vt -12.193280 9.244104
vt 3.357907 1.574808
vt 3.357907 9.244104
vt -12.193280 9.244104
vt 8.281508 2.488193
vt -8.281496 2.488193
vt -8.281496 0.000006
vt 8.281508 2.488193
vt -8.281496 2.488193
vt -8.281496 0.000006
vt 8.281508 2.488193
vt -8.281496 2.488193
vt -8.281496 2.488193
vt -8.281496 0.000006
vt 8.281508 2.488193
vt -8.281496 2.488193
vt -8.281496 0.000006
vt 8.281508 2.488193
vt -8.281496 2.488193
vt -8.281496 0.000006
vt -8.281496 0.000006
vt 8.281508 2.488193
vt 2.977149 11.805370
vt -2.975613 11.805370
vt -3.542542 9.949506
vt 2.977149 11.805370
vt -2.975613 11.805370
vt -3.542542 9.949506
vn 0.0431 0.9991 -0.0000
vn 0.2941 0.9373 -0.1872
vn 0.1216 0.9765 -0.1781
vn -0.1216 0.9765 -0.1781
vn -0.2941 0.9373 -0.1872
vn -0.0431 0.9991 0.0000
vn -0.0196 0.9686 -0.2477
vn -0.0039 0.0039 1.0000
vn 0.0196 0.9686 -0.2478
vn 1.0000 0.0039 0.0000
vn -0.0039 0.0039 -1.0000
vn 0.0014 0.0054 1.0000
vn -0.0039 -1.0000 0.0000
vn 0.3240 -0.1665 -0.9313
vn -0.0039 -0.9922 -0.1249
vn -1.0000 0.0039 -0.0000
vn -0.0039 1.0000 0.0000
vn -0.0039 -0.0039 -1.0000
vn -0.9922 0.0039 -0.1250
vn -0.9921 0.0039 -0.1251
vn -0.9922 0.0039 -0.1249
vn 0.4274 0.5294 0.7328
vn 0.4275 0.5294 0.7328
vn -0.4274 0.5294 0.7328
vn -0.4275 0.5294 0.7328
vn 0.9922 0.0039 -0.1249
vn 0.1216 0.9922 -0.0291
vn 0.9922 0.0039 -0.1250
vn 0.7071 -0.7071 -0.0000
vn -0.8490 0.5284 -0.0000
vn -0.8490 0.5283 -0.0000
vn -0.8491 0.5283 0.0000
vn 0.4275 0.5294 -0.7328
vn 0.4274 0.5294 -0.7328
vn 0.8491 0.5283 0.0000
vn 0.8490 0.5284 -0.0000
vn 0.8490 0.5283 0.0000
vn -0.4275 0.5294 -0.7328
vn -0.4274 0.5294 -0.7328
vn 0.2471 0.9686 -0.0269
vn -0.0039 0.7098 -0.7044
vn -0.7071 0.7071 0.0000
vn -0.0039 0.9686 -0.2485
vn -1.0000 0.0039 -0.0002
vn 0.1234 -0.8587 0.4974
vn -0.0039 0.9922 -0.1249
vn -0.0039 -0.9922 -0.1250
vn -0.0039 0.9922 -0.1250
usemtl glass
s 1
f 89/1/1 90/2/2 91/3/3
f 92/4/4 93/5/5 94/6/6
f 92/7/4 95/8/7 93/9/5
f 96/10/8 97/11/8 98/12/8
f 98/12/8 99/13/8 96/10/8
f 90/14/2 100/15/9 91/16/3
f 91/17/3 100/18/9 95/19/7
f 95/19/7 92/20/4 91/17/3
usemtl metal
f 37/21/10 38/22/10 39/23/10
f 39/23/10 40/24/10 37/21/10
f 41/25/11 42/26/11 43/27/11
f 43/27/11 44/28/11 41/25/11
f 43/27/11 8/29/11 44/28/11
f 8/29/11 7/30/12 44/28/11
f 33/31/8 45/32/8 46/33/8
f 46/33/8 34/34/8 33/31/8
f 47/35/13 48/36/13 46/37/14
f 46/37/14 45/38/13 47/35/13
f 49/39/15 48/36/13 50/40/13
f 49/39/15 50/40/13 37/41/13
f 49/39/15 37/41/13 40/42/13
f 49/39/15 40/42/13 51/43/13
f 49/39/15 51/43/13 52/44/13
f 52/44/13 53/45/15 49/39/15
f 49/39/15 46/37/14 48/36/13
f 37/41/13 50/40/13 54/46/13
f 52/44/13 51/43/13 55/47/13
f 55/47/13 56/48/13 52/44/13
f 43/49/16 42/50/16 57/51/16
f 57/51/16 58/52/16 43/49/16
f 59/53/17 60/54/17 61/55/17
f 61/55/17 62/56/17 59/53/17
f 61/55/17 63/57/17 62/56/17
f 63/57/17 64/58/17 62/56/17
f 30/59/16 47/60/16 45/61/16
f 45/61/16 33/62/16 30/59/16
f 65/63/11 55/64/11 51/65/11
f 51/65/11 66/66/11 65/63/11
f 66/66/11 67/67/11 65/63/11
f 66/66/11 4/68/11 67/67/11
f 66/66/11 68/69/11 4/68/11
f 68/69/11 1/70/11 4/68/11
f 55/64/11 65/63/11 21/71/11
f 55/64/11 21/71/11 20/72/11
f 20/72/11 69/73/11 55/64/11
f 20/72/11 1/70/11 69/73/11
f 1/70/11 70/74/11 69/73/11
f 1/70/11 68/69/11 70/74/11
f 29/75/11 48/76/11 47/77/11
f 47/77/11 30/78/11 29/75/11
f 22/79/18 71/80/8 19/81/18
f 71/80/8 22/79/18 58/82/8
f 71/80/8 58/82/8 57/83/8
f 57/83/8 72/84/8 71/80/8
f 73/85/16 54/86/16 50/87/16
f 50/87/16 74/88/16 73/85/16
f 74/89/16 50/90/16 48/91/19
f 48/91/19 31/92/20 74/89/16
f 48/91/19 29/93/21 31/92/20
f 75/94/22 76/95/22 59/96/23
f 59/96/23 62/97/22 75/94/22
f 77/98/24 75/99/25 62/100/24
f 62/100/24 64/101/24 77/98/24
f 52/102/10 78/103/10 79/104/26
f 79/104/26 53/105/26 52/102/10
f 80/106/17 70/107/17 68/108/27
f 68/108/27 81/109/27 80/106/17
f 34/110/16 46/111/16 49/112/21
f 49/112/21 35/113/16 34/110/16
f 49/112/21 82/114/21 35/113/16
f 40/115/10 39/116/10 66/117/28
f 66/117/28 51/118/28 40/115/10
f 69/119/29 83/120/29 56/121/29
f 56/121/29 55/122/29 69/119/29
f 63/123/30 84/124/31 77/125/30
f 77/125/30 64/126/32 63/123/30
f 85/127/33 86/128/34 61/129/34
f 61/129/34 60/130/34 85/127/33
f 41/131/10 44/132/10 71/133/10
f 71/133/10 72/134/10 41/131/10
f 69/135/10 70/136/10 80/137/10
f 80/137/10 83/138/10 69/135/10
f 76/139/35 85/140/36 60/141/36
f 60/141/36 59/142/37 76/139/35
f 37/143/11 54/144/11 73/145/11
f 73/145/11 38/146/11 37/143/11
f 52/147/8 56/148/8 83/149/8
f 83/149/8 23/150/8 52/147/8
f 83/149/8 16/151/8 23/150/8
f 83/149/8 80/152/8 16/151/8
f 80/152/8 17/153/8 16/151/8
f 80/152/8 87/154/8 17/153/8
f 52/147/8 23/150/8 88/155/8
f 88/155/8 78/156/8 52/147/8
f 88/155/8 87/154/8 78/156/8
f 23/150/8 24/157/8 88/155/8
f 87/154/8 81/158/8 78/156/8
f 87/154/8 80/152/8 81/158/8
f 86/159/38 84/160/39 63/161/39
f 63/161/39 61/162/39 86/159/38
f 41/163/13 72/164/13 57/165/13
f 57/165/13 42/166/13 41/163/13
f 81/167/27 68/168/27 66/169/40
f 66/169/40 78/170/40 81/167/27
f 71/171/17 44/172/17 7/173/17
f 7/173/17 19/174/17 71/171/17
usemtl pipe
f 1/175/17 2/176/17 3/177/17
f 3/177/17 4/178/17 1/175/17
f 5/179/41 6/180/41 3/181/41
f 3/181/41 2/182/41 5/179/41
f 7/30/12 8/29/11 6/183/11
f 6/183/11 5/184/11 7/30/12
f 9/185/8 10/186/8 11/187/8
f 11/187/8 12/188/8 9/185/8
f 11/189/17 13/190/17 14/191/17
f 14/191/17 12/192/17 11/189/17
f 15/193/17 16/194/17 17/195/17
f 17/195/17 18/196/17 15/193/17
f 14/197/8 13/198/8 15/199/8
f 15/199/8 18/200/8 14/197/8
f 19/201/13 20/202/13 21/203/13
f 21/203/13 22/204/13 19/201/13
f 23/205/13 10/206/13 9/207/13
f 9/207/13 24/208/13 23/205/13
f 25/209/42 26/210/42 27/211/42
f 27/211/42 28/212/42 25/209/42
f 29/75/11 30/78/11 26/213/11
f 26/213/11 31/214/11 29/75/11
f 26/213/11 32/215/11 31/214/11
f 26/213/11 25/216/11 32/215/11
f 23/217/10 16/218/10 15/219/10
f 15/219/10 13/220/10 23/217/10
f 13/220/10 10/221/10 23/217/10
f 13/220/10 11/222/10 10/221/10
f 26/223/16 30/59/16 33/62/16
f 33/62/16 27/224/16 26/223/16
f 27/225/8 33/31/8 34/34/8
f 34/34/8 35/226/8 27/225/8
f 35/226/8 36/227/8 27/225/8
f 36/227/8 28/228/8 27/225/8
f 36/229/17 32/230/17 25/231/17
f 25/231/17 28/232/17 36/229/17
f 7/233/10 5/234/10 2/235/10
f 2/235/10 19/236/10 7/233/10
f 2/235/10 1/237/10 19/236/10
f 1/237/10 20/238/10 19/236/10
usemtl defaultMat
f 100/239/9 101/240/43 102/241/43
f 102/242/43 95/243/7 100/244/9
f 95/245/16 74/246/16 31/247/20
f 31/248/20 93/249/44 95/250/16
f 31/248/20 32/251/45 93/252/44
f 78/253/10 66/254/10 90/255/10
f 90/256/10 89/257/10 78/258/10
f 89/259/10 103/260/26 78/258/10
f 103/261/26 79/262/26 78/258/10
f 103/261/46 89/257/1 91/263/3
f 91/264/3 85/265/17 103/266/46
f 91/264/3 86/267/17 85/268/17
f 91/264/3 92/269/4 86/270/17
f 92/271/4 84/272/17 86/270/17
f 92/271/4 94/273/6 84/274/17
f 94/275/6 77/276/17 84/274/17
f 75/277/17 104/278/46 103/266/46
f 103/261/46 76/279/17 75/280/17
f 103/261/46 85/265/17 76/281/17
f 75/277/17 77/276/17 104/282/46
f 77/283/17 94/273/6 104/282/46
f 6/284/41 105/285/41 106/286/41
f 106/287/41 3/288/41 6/289/41
f 12/290/17 14/291/17 107/292/17
f 107/293/17 108/294/17 12/295/17
f 36/296/16 35/297/16 82/298/21
f 93/299/44 32/300/45 36/301/16
f 36/296/16 94/302/16 93/303/44
f 36/296/16 104/304/19 94/305/16
f 36/296/16 82/306/21 104/307/19
f 82/308/21 49/309/21 109/310/21
f 109/311/21 104/312/19 82/313/21
f 109/311/21 110/314/21 104/315/19
f 111/316/47 112/317/13 113/318/13
f 113/319/13 109/320/47 111/321/47
f 53/322/15 111/323/47 109/310/47
f 109/311/47 49/309/15 53/324/15
f 114/325/8 9/326/8 12/327/8
f 12/328/8 108/329/8 114/330/8
f 18/331/17 17/332/17 87/333/17
f 87/334/17 115/335/17 18/336/17
f 96/337/10 99/338/10 116/339/10
f 116/340/10 117/341/10 96/342/10
f 79/343/26 103/344/26 118/345/26
f 118/346/26 53/347/26 79/348/26
f 118/346/26 111/349/26 53/350/26
f 4/351/17 3/352/17 106/353/17
f 106/354/17 67/355/17 4/356/17
f 105/357/16 43/358/16 58/359/16
f 58/360/16 106/361/16 105/362/16
f 58/360/16 67/355/16 106/353/16
f 58/360/16 65/363/16 67/364/16
f 38/365/11 73/366/11 102/367/11
f 102/368/11 101/369/11 38/370/11
f 111/371/26 118/372/26 119/373/10
f 119/374/10 112/375/10 111/376/26
f 107/377/8 14/378/8 18/379/8
f 18/380/8 115/381/8 107/382/8
f 98/383/13 120/384/13 116/385/13
f 116/386/13 99/387/13 98/388/13
f 22/389/13 21/390/13 65/391/13
f 65/392/13 58/393/13 22/394/13
f 98/383/16 97/395/16 121/396/16
f 121/397/16 120/384/16 98/388/16
f 39/398/10 100/399/10 90/400/10
f 90/401/10 66/402/10 39/403/10
f 102/404/16 73/405/16 74/406/16
f 74/407/16 95/408/16 102/409/16
f 121/410/17 97/411/17 96/412/17
f 96/413/17 117/414/17 121/415/17
f 38/416/10 101/417/10 100/418/10
f 100/419/10 39/420/10 38/421/10
f 110/422/48 118/423/46 103/424/46
f 103/425/46 104/426/46 110/427/48
f 119/428/17 118/423/46 110/427/48
f 110/422/48 122/429/17 119/430/17
f 110/431/21 109/432/21 113/433/16
f 113/434/16 122/435/16 110/436/21
f 87/437/16 88/438/16 114/439/16
f 114/440/16 107/441/16 87/442/16
f 114/440/16 108/443/16 107/444/16
f 87/437/16 107/441/16 115/445/16
f 8/446/11 43/447/11 105/448/11
f 105/449/11 6/450/11 8/451/11
f 121/452/8 113/453/8 112/454/8
f 112/455/8 119/456/8 121/457/8
f 119/458/8 120/459/8 121/457/8
f 119/458/8 116/460/8 120/461/8
f 117/462/8 122/463/8 113/464/8
f 113/465/8 121/466/8 117/467/8
f 117/462/8 116/460/8 122/468/8
f 116/469/8 119/456/8 122/468/8
f 24/470/13 9/471/13 114/472/13
f 114/473/13 88/474/13 24/475/13
