# Blender v2.79 (sub 0) OBJ File: ''
# www.blender.org
mtllib stationLarge.mtl
o stationLarge
v 2.715963 -0.004109 -2.944440
v 2.715963 -0.004110 2.710719
v 1.771120 -0.004110 3.655561
v -2.784034 -0.004109 -2.944440
v -2.784034 -0.004110 3.655561
v 1.867522 0.395893 -2.095999
v 2.715963 0.395892 2.710719
v 2.715963 0.395893 -2.944440
v -2.784034 0.395893 -2.944440
v -0.515730 0.395893 -2.296000
v -1.433633 0.395893 -2.296000
v -1.433633 0.395893 -2.095999
v -1.935593 0.395893 -2.095999
v -1.935593 0.395892 0.581915
v -1.935593 0.395892 2.807121
v 1.867522 0.395892 2.807121
v 1.771120 0.395892 3.655561
v 1.867522 0.395893 -0.642192
v 1.867522 0.395892 -0.417732
v 1.867522 0.395892 -0.042198
v 1.867522 0.395892 0.182270
v 1.867522 0.395892 0.581915
v -2.784034 0.395892 3.655561
v -0.515730 0.395893 -2.095999
v 1.867522 1.395887 2.807121
v -1.935593 1.395887 2.807121
v -1.935593 1.395888 0.581915
v 1.867522 1.395888 0.581915
v 0.867518 1.395887 2.081913
v 0.867518 1.395888 0.581915
v -0.935597 1.395888 0.581915
v -0.935597 1.395887 2.081913
v 1.367520 1.395887 2.081913
v 1.367520 1.395888 0.581915
v -1.435592 1.395887 2.081913
v -1.435592 1.395888 0.581915
v 1.367520 2.195892 1.681911
v 1.367520 2.195892 0.581915
v 0.867518 2.195892 0.581915
v 0.867518 2.195892 1.681911
v 0.867518 1.795889 2.081913
v 1.367520 1.795889 2.081913
v -0.935597 2.195892 1.681911
v -0.935597 2.195892 0.581915
v -1.435592 2.195892 0.581915
v -1.435592 2.195892 1.681911
v -1.435592 1.795889 2.081913
v -0.935597 1.795889 2.081913
v 1.366354 3.895890 -0.180687
v 1.366354 3.895890 -0.880690
v 0.760134 3.895890 -1.230691
v 0.760134 3.895890 0.169314
v 0.153914 3.895890 -0.880690
v 0.153914 3.895890 -0.180687
v 1.366354 2.695893 -0.880690
v 1.366354 2.695893 -0.180687
v 0.760134 2.695893 -1.230691
v 0.153914 2.695893 -0.880690
v 0.153914 2.695893 -0.180687
v 0.760134 2.695893 0.169314
v 1.196612 4.195890 -0.278690
v 1.196612 4.195890 -0.782687
v 0.760134 4.195890 -1.034693
v 0.760134 4.195890 -0.026692
v 0.323656 4.195890 -0.782687
v 0.323656 4.195890 -0.278690
v -0.515730 2.695893 -1.643292
v -0.515730 2.243187 -2.095998
v -1.433633 2.243187 -2.095998
v -1.433633 2.695893 -1.643292
v -1.433633 2.243187 -2.295999
v -0.515730 2.243187 -2.295999
v -0.515730 2.895894 -1.643292
v -0.515730 2.895894 -0.000187
v -0.515730 2.695893 -0.000187
v -1.433633 2.895894 -1.643292
v -1.433633 2.895894 -0.000187
v -1.433633 2.695893 -0.000187
v 1.867522 2.695893 0.171615
v 1.867522 2.695893 0.581915
v -1.935593 2.243187 -2.095998
v -1.935593 2.695893 -1.643292
v -1.935593 2.695893 0.581915
v 1.867522 2.695893 -0.642192
v 1.867522 2.695893 -1.643292
v 1.867522 2.695893 -0.417731
v 1.867522 2.695893 -0.031534
v 1.867522 2.243187 -2.095998
v 2.049086 0.395892 -0.417732
v 2.049086 5.761106 -0.417731
v 1.867522 5.851890 -0.417731
v 1.958304 5.851890 -0.417731
v 2.049086 0.395893 -0.642192
v 2.049086 5.761106 -0.642192
v 1.867522 5.851890 -0.642192
v 1.958304 5.851890 -0.642192
v 1.974642 8.145890 0.146356
v 1.974642 8.145890 -0.006280
v 1.867522 8.145890 -0.006280
v 1.867522 8.145890 0.146356
v 2.049086 0.395892 0.182270
v 2.049086 0.395892 -0.042198
vt -3.340319 1.574806
vt -2.625500 1.574806
vt -2.625500 22.697701
vt -3.340319 10.629920
vt -3.340319 23.055120
vt -2.982916 23.055120
vt -9.063951 1.574806
vt -9.063951 22.697701
vt -9.947678 22.697701
vt -9.947678 1.574806
vt 2.625495 1.574806
vt 3.340326 1.574806
vt 3.340326 10.629920
vt 2.625495 22.697701
vt 3.340326 23.055120
vt 2.982911 23.055120
vt 9.063958 10.629920
vt 9.063958 1.574806
vt 9.947672 1.574806
vt 9.947672 10.629920
vt 9.063958 23.055120
vt 9.947672 23.055120
vt 2.982911 9.947672
vt 2.982911 9.063958
vt 3.340326 9.063958
vt 3.340326 9.947672
vt -9.063951 17.906210
vt -9.063951 18.411659
vt -9.947678 18.411659
vt -9.947678 17.906210
vt 2.918575 12.168490
vt 2.918575 11.567550
vt 3.340326 11.567550
vt 3.340326 12.168490
vt -3.340319 1.517746
vt -2.625500 1.517746
vt -2.918580 32.029881
vt -3.340319 10.572950
vt -3.340319 32.029881
vt 2.625495 1.627740
vt 3.340326 1.627740
vt 3.340326 10.682950
vt 2.918575 32.139870
vt 3.340326 32.139870
vt -12.309880 1.599943
vt -11.426150 1.599943
vt -11.567550 32.113171
vt -12.168480 32.113171
vt 11.468120 10.629920
vt 11.426160 1.574806
vt 12.309890 1.574806
vt 12.267910 10.629920
vt 11.567550 32.086609
vt 12.168490 32.086609
vt -12.309880 1.574806
vt -12.267920 10.629920
vt -13.883270 10.629920
vt -13.883270 1.574806
vt -13.883270 5.511813
vt 16.336990 8.618172
vt 18.313219 8.618172
vt 18.313219 11.138730
vt 16.336990 11.138730
vt -14.376210 5.511813
vt -7.277326 5.511813
vt -7.277326 8.661417
vt -14.376210 8.661417
vt -16.344709 8.661417
vt -18.313219 10.629920
vt -18.313219 5.511813
vt -16.344709 5.511813
vt -3.340319 10.629920
vt -5.308823 8.661417
vt -5.308823 5.511813
vt -3.340319 5.511813
vt 3.340326 8.847615
vt 3.340326 1.574806
vt 13.883280 1.574806
vt 5.122632 10.629920
vt 13.883280 10.629920
vt 13.883280 5.511813
vt 7.700123 6.747041
vt 3.340326 9.063958
vt 3.340326 5.122632
vt 12.723190 5.122632
vt 5.313435 8.125001
vt 3.340326 9.947672
vt 3.340326 11.468120
vt 3.340326 12.267910
vt 3.340326 13.883280
vt 10.086800 8.125001
vt 5.313435 10.880910
vt 7.700123 12.258860
vt 18.313219 13.883280
vt 10.086800 10.880910
vt 12.723190 11.591530
vt 16.336990 11.591530
vt 18.313219 5.122632
vt 16.336990 5.122632
vt 3.340326 11.138730
vt 3.340326 8.618172
vt 12.723190 8.618172
vt 12.723190 11.138730
vt 3.340326 1.574806
vt 12.723190 1.574806
vt 12.723190 8.847615
vt 3.340326 8.847615
vt 16.336990 1.574806
vt 18.313219 1.574806
vt 18.313219 8.847615
vt 16.336990 8.847615
vt -3.340319 1.574806
vt -3.340319 8.847615
vt -5.122624 10.629920
vt -9.063951 1.574806
vt -9.063951 10.629920
vt -9.947678 1.574806
vt -9.947678 10.629920
vt -11.468120 10.629920
vt -11.426150 1.574806
vt -0.000003 -0.000003
vt -0.000003 22.264410
vt -3.719850 25.984240
vt -21.653549 -0.000003
vt -21.653549 25.984240
vt 3.340326 3.340326
vt -0.000003 22.264410
vt -0.000003 -0.000003
vt 21.653549 -0.000003
vt 12.723190 2.552922
vt 16.336990 2.552922
vt 16.336990 3.340326
vt 18.313219 3.340326
vt 18.313219 13.883280
vt 18.313219 22.643930
vt 3.340326 22.643930
vt 3.719857 25.984240
vt 3.340326 9.063958
vt 3.340326 9.947672
vt 3.340326 11.426160
vt 3.340326 12.309890
vt 3.340326 13.883280
vt 21.653549 25.984240
vt 12.723190 3.340326
vt -0.000003 1.574806
vt -22.264400 1.574806
vt -22.264400 -0.000003
vt -21.653549 1.574806
vt -21.653549 -0.000003
vt -3.719850 -0.000003
vt -3.719850 1.574806
vt -0.000003 1.574806
vt -0.000003 -0.000003
vt 25.984240 -0.000003
vt 25.984240 1.574806
vt 21.653549 -0.000003
vt 21.653549 1.574806
vt -15.743310 -0.000003
vt -15.743310 1.574806
vt -21.003969 1.574806
vt -21.003969 -0.000003
vt 21.653549 1.574806
vt -0.000003 1.574806
vt -0.000003 -0.000003
vt 21.653549 1.574806
vt -0.000003 1.574806
vt -0.000003 -0.000003
vt 21.653549 1.574806
vt -0.000003 1.574806
vt -0.000003 -0.000003
vt -7.277326 8.661417
vt -3.340319 10.629920
vt -18.313219 10.629920
vt -7.277326 8.661417
vt -3.340319 10.629920
vt -18.313219 10.629920
vt 13.883280 1.574806
vt 13.883280 5.511813
vt 13.883280 10.629920
vt 13.883280 5.511813
vt 13.883280 10.629920
vt 13.883280 1.574806
vt 13.883280 5.511813
vt 13.883280 5.511813
vt 13.883280 10.629920
vt 13.883280 1.574806
vt 13.883280 5.511813
vt 13.883280 5.511813
vt 13.883280 10.629920
vt 13.883280 1.574806
vt 13.883280 5.511813
vt 13.883280 1.574806
vt 13.883280 5.511813
vt 13.883280 10.629920
vt 13.883280 1.574806
vt 13.883280 5.511813
vt 13.883280 10.629920
vt 13.883280 1.574806
vt 13.883280 5.511813
vt 13.883280 10.629920
vt 13.883280 1.574806
vt 13.883280 5.511813
vt 13.883280 10.629920
vt 13.883280 10.629920
vt 13.883280 5.511813
vt 13.883280 10.629920
vt 13.883280 10.629920
vt 13.883280 1.574806
vt 13.883280 1.574806
vt 13.883280 5.511813
vt 13.883280 10.629920
vt 13.883280 1.574806
vt 13.883280 5.511813
vt 13.883280 10.629920
vt 13.883280 10.629920
vt 13.883280 5.511813
vt 13.883280 10.629920
vt 13.883280 10.629920
vt 13.883280 1.574806
vt 13.883280 5.511813
vt 13.883280 10.629920
vt 13.883280 1.574806
vt 13.883280 5.511813
vt 13.883280 1.574806
vt 13.883280 10.629920
vt 13.883280 1.574806
vt 13.883280 10.629920
vt 13.883280 1.574806
vt 13.883280 5.511813
vt 13.883280 10.629920
vt 13.883280 1.574806
vt 13.883280 5.511813
vt 13.883280 10.629920
vt 13.883280 5.511813
vt 13.883280 10.629920
vt 13.883280 1.574806
vt 13.883280 5.511813
vt 13.883280 1.574806
vt 13.883280 5.511813
vt 13.883280 10.629920
vt 13.883280 5.511813
vt 13.883280 1.574806
vt 13.883280 5.511813
vt 13.883280 10.629920
vt 13.883280 5.511813
vt 13.883280 10.629920
vt 13.883280 10.629920
vt 13.883280 1.574806
vt 13.883280 5.511813
vt 13.883280 1.574806
vt 13.883280 1.574806
vt 13.883280 10.629920
vt 13.883280 1.574806
vt 13.883280 5.511813
vt 13.883280 10.629920
vt 13.883280 1.574806
vt 13.883280 5.511813
vt 13.883280 10.629920
vt 13.883280 5.511813
vt 13.883280 10.629920
vt 13.883280 1.574806
vt 13.883280 5.511813
vt 13.883280 10.629920
vt 13.883280 1.574806
vt 13.883280 5.511813
vt 13.883280 5.511813
vt 13.883280 1.574806
vt 13.883280 10.629920
vt 13.883280 10.629920
vt 13.883280 1.574806
vt 13.883280 10.629920
vt 13.883280 5.511813
vt 13.883280 1.574806
vt 12.723190 8.618172
vt 12.723190 11.138730
vt 3.340326 11.138730
vt 12.723190 8.618172
vt 12.723190 11.138730
vt 3.340326 11.138730
vt 18.313219 8.847615
vt 16.336990 8.847615
vt 16.336990 1.574806
vt 18.313219 8.847615
vt 16.336990 8.847615
vt 16.336990 1.574806
vt 18.313219 8.847615
vt 16.336990 8.847615
vt 16.336990 1.574806
vt 18.313219 8.847615
vt 16.336990 8.847615
vt 16.336990 1.574806
vt 18.313219 8.847615
vt 16.336990 8.847615
vt 16.336990 8.847615
vt 16.336990 1.574806
vt 18.313219 8.847615
vt 16.336990 8.847615
vt 16.336990 8.847615
vt 16.336990 1.574806
vt 16.336990 1.574806
vt 18.313219 8.847615
vt 16.336990 8.847615
vt 16.336990 1.574806
vt 18.313219 8.847615
vt 18.313219 8.847615
vt 16.336990 8.847615
vt 16.336990 8.847615
vt 18.313219 8.847615
vt 16.336990 8.847615
vt 18.313219 8.847615
vt 16.336990 1.574806
vt 16.336990 1.574806
vn -0.0039 0.0039 1.0000
vn 1.0000 0.0039 0.0000
vn -0.0039 0.0039 -1.0000
vn -1.0000 0.0039 0.0000
vn -0.0039 1.0000 0.0000
vn 0.7071 0.7071 0.0000
vn 0.9999 0.0118 -0.0000
vn 0.1233 0.0043 -0.9924
vn -0.0039 0.7098 -0.7044
vn 0.0466 0.0044 -0.9989
vn -0.0039 -1.0000 -0.0000
vn 0.0581 -0.9983 -0.0000
vn -1.0000 -0.0039 -0.0000
vn 0.9239 -0.0000 0.3827
vn 0.9239 -0.2706 -0.2706
vn -0.2820 -0.8461 -0.4522
vn -0.9239 0.2706 -0.2706
vn -0.9239 -0.0000 0.3827
vn -0.9239 0.0000 -0.3827
vn 0.7098 0.0039 0.7044
vn -0.0039 0.7098 0.7044
vn 0.4980 0.0039 -0.8671
vn -0.4980 0.0039 -0.8671
vn -0.4980 0.0039 0.8671
vn 0.4980 0.0039 0.8671
vn 0.8666 0.4903 -0.0927
vn 0.8667 0.4902 -0.0927
vn 0.4353 0.4902 0.7551
vn 0.4353 0.4902 -0.7551
vn -0.8667 0.4902 -0.0927
vn -0.8666 0.4903 -0.0927
vn -0.4353 0.4902 -0.7551
vn -0.4353 0.4902 0.7551
usemtl glass
s 1
f 19/1/1 89/2/1 90/3/1
f 90/3/1 86/4/1 19/1/1
f 90/3/1 91/5/1 86/4/1
f 90/3/1 92/6/1 91/5/1
f 93/7/2 94/8/2 90/9/2
f 90/9/2 89/10/2 93/7/2
f 93/11/3 18/12/3 84/13/3
f 84/13/3 94/14/3 93/11/3
f 84/13/3 95/15/3 94/14/3
f 95/15/3 96/16/3 94/14/3
f 84/17/4 18/18/4 19/19/4
f 19/19/4 86/20/4 84/17/4
f 95/21/4 84/17/4 86/20/4
f 86/20/4 91/22/4 95/21/4
f 92/23/5 96/24/5 95/25/5
f 95/25/5 91/26/5 92/23/5
f 94/27/6 96/28/6 92/29/6
f 92/29/6 90/30/6 94/27/6
f 97/31/5 98/32/5 99/33/5
f 99/33/5 100/34/5 97/31/5
f 21/35/1 101/36/1 97/37/1
f 97/37/1 79/38/1 21/35/1
f 97/37/1 100/39/1 79/38/1
f 102/40/3 20/41/3 87/42/3
f 87/42/3 98/43/3 102/40/3
f 87/42/3 99/44/3 98/43/3
f 101/45/7 102/46/7 98/47/7
f 98/47/7 97/48/7 101/45/7
f 87/49/4 20/50/4 21/51/4
f 21/51/4 79/52/4 87/49/4
f 99/53/4 87/49/4 79/52/4
f 79/52/4 100/54/4 99/53/4
usemtl metal
f 21/55/2 79/56/2 80/57/2
f 80/57/2 22/58/2 21/55/2
f 80/57/2 28/59/8 22/58/2
f 69/60/9 81/61/9 82/62/9
f 82/62/9 70/63/9 69/60/9
f 31/64/1 30/65/1 39/66/1
f 39/66/1 44/67/1 31/64/1
f 39/66/1 45/68/1 44/67/1
f 45/68/1 39/66/1 83/69/1
f 45/68/1 83/69/1 27/70/1
f 27/70/1 36/71/1 45/68/1
f 39/66/1 80/72/1 83/69/1
f 80/72/1 39/66/1 38/73/1
f 80/72/1 38/73/1 34/74/1
f 34/74/1 28/75/1 80/72/1
f 81/76/4 13/77/4 14/78/4
f 14/78/4 82/79/4 81/76/4
f 14/78/4 83/80/4 82/79/4
f 14/78/4 27/81/10 83/80/4
f 57/82/5 84/83/5 85/84/5
f 85/84/5 67/85/5 57/82/5
f 57/82/5 55/86/5 84/83/5
f 55/86/5 86/87/5 84/83/5
f 55/86/5 87/88/5 86/87/5
f 55/86/5 79/89/5 87/88/5
f 55/86/5 80/90/5 79/89/5
f 67/85/5 58/91/5 57/82/5
f 80/90/5 55/86/5 56/92/5
f 80/90/5 56/92/5 60/93/5
f 60/93/5 83/94/5 80/90/5
f 60/93/5 59/95/5 83/94/5
f 59/95/5 75/96/5 83/94/5
f 59/95/5 58/91/5 75/96/5
f 58/91/5 67/85/5 75/96/5
f 75/96/5 78/97/5 83/94/5
f 78/97/5 82/98/5 83/94/5
f 78/97/5 70/99/5 82/98/5
f 85/100/9 88/101/9 68/102/9
f 68/102/9 67/103/9 85/100/9
f 6/104/3 24/105/3 68/106/3
f 68/106/3 88/107/3 6/104/3
f 12/108/3 13/109/3 81/110/3
f 81/110/3 69/111/3 12/108/3
f 6/112/2 88/113/2 85/114/2
f 85/114/2 18/115/2 6/112/2
f 85/114/2 84/116/2 18/115/2
f 19/117/2 86/118/2 87/119/2
f 87/119/2 20/120/2 19/117/2
usemtl pipe
f 1/121/11 2/122/11 3/123/11
f 3/123/11 4/124/11 1/121/11
f 3/123/11 5/125/11 4/124/11
f 6/126/5 7/127/5 8/128/5
f 8/128/5 9/129/5 6/126/5
f 9/129/5 10/130/5 6/126/5
f 9/129/5 11/131/5 10/130/5
f 9/129/5 12/132/5 11/131/5
f 9/129/5 13/133/5 12/132/5
f 9/129/5 14/134/5 13/133/5
f 9/129/5 15/135/5 14/134/5
f 7/127/5 6/126/5 16/136/5
f 16/136/5 17/137/5 7/127/5
f 16/136/5 15/135/5 17/137/5
f 6/126/5 18/138/12 16/136/5
f 18/138/12 19/139/13 16/136/5
f 19/139/14 20/140/15 16/136/16
f 20/140/15 21/141/17 16/136/16
f 21/141/18 22/142/17 16/136/19
f 15/135/5 23/143/5 17/137/5
f 15/135/5 9/129/5 23/143/5
f 6/126/5 10/130/5 24/144/5
f 1/121/2 8/145/2 7/146/2
f 7/146/2 2/147/2 1/121/2
f 23/148/1 5/149/1 3/150/1
f 3/150/1 17/151/1 23/148/1
f 9/152/4 4/153/4 5/154/4
f 5/154/4 23/155/4 9/152/4
f 1/121/3 4/156/3 9/157/3
f 9/157/3 8/145/3 1/121/3
f 2/158/20 7/159/20 17/160/20
f 17/160/20 3/161/20 2/158/20
usemtl defaultMat
f 15/162/1 16/163/1 25/164/1
f 25/165/1 26/166/1 15/167/1
f 27/168/10 14/169/4 15/167/4
f 15/162/4 26/166/4 27/170/10
f 22/171/2 28/172/8 25/173/2
f 25/174/2 16/175/2 22/176/2
f 29/177/5 30/178/5 31/179/5
f 29/177/5 32/180/5 26/181/5
f 33/182/5 29/183/5 26/181/5
f 33/182/5 26/184/5 25/185/5
f 34/186/5 33/187/5 25/185/5
f 29/177/5 31/188/5 32/189/5
f 32/190/5 35/191/5 26/181/5
f 35/192/5 27/81/5 26/181/5
f 35/192/5 36/193/5 27/194/5
f 25/195/5 28/196/5 34/197/5
f 37/198/5 38/199/5 39/200/5
f 39/201/5 40/202/5 37/203/5
f 39/201/4 30/178/4 29/204/4
f 29/177/4 40/202/4 39/200/4
f 29/177/4 41/205/4 40/206/4
f 29/177/1 33/187/1 42/207/1
f 42/208/1 41/205/1 29/204/1
f 43/209/5 44/210/5 45/211/5
f 45/212/5 46/213/5 43/214/5
f 45/212/4 36/193/4 35/215/4
f 35/192/4 46/213/4 45/211/4
f 35/192/4 47/216/4 46/217/4
f 35/192/1 32/180/1 48/218/1
f 48/219/1 47/216/1 35/215/1
f 34/186/2 38/199/2 37/203/2
f 37/198/2 33/187/2 34/197/2
f 37/198/2 42/220/2 33/221/2
f 31/222/2 44/210/2 43/214/2
f 43/209/2 32/180/2 31/179/2
f 43/209/2 48/223/2 32/189/2
f 47/224/21 48/223/21 43/214/21
f 43/209/21 46/213/21 47/225/21
f 41/226/21 42/220/21 37/203/21
f 37/198/21 40/202/21 41/227/21
f 49/228/5 50/229/5 51/230/5
f 51/231/5 52/232/5 49/233/5
f 51/231/5 53/234/5 52/235/5
f 53/236/5 54/237/5 52/235/5
f 55/238/2 50/229/2 49/233/2
f 49/228/2 56/239/2 55/240/2
f 55/238/22 57/241/22 51/230/22
f 51/231/22 50/229/22 55/240/22
f 57/242/23 58/243/23 53/244/23
f 53/236/23 51/245/23 57/246/23
f 53/236/4 58/243/4 59/247/4
f 59/248/4 54/237/4 53/244/4
f 59/248/24 60/249/24 52/235/24
f 52/250/24 54/237/24 59/247/24
f 60/251/25 56/239/25 49/233/25
f 49/228/25 52/232/25 60/252/25
f 61/253/5 62/254/5 63/255/5
f 63/256/5 64/257/5 61/258/5
f 63/256/5 65/259/5 64/260/5
f 65/261/5 66/262/5 64/260/5
f 49/228/26 50/229/27 62/263/27
f 62/264/27 61/265/27 49/233/26
f 52/250/28 49/266/28 61/258/28
f 61/253/28 64/257/28 52/235/28
f 50/267/29 51/245/29 63/255/29
f 63/256/29 62/254/29 50/268/29
f 65/261/30 53/234/30 54/269/30
f 54/270/30 66/262/31 65/271/30
f 51/231/32 53/234/32 65/271/32
f 65/261/32 63/272/32 51/230/32
f 54/270/33 52/232/33 64/260/33
f 64/273/33 66/262/33 54/269/33
f 67/274/9 68/275/9 69/276/9
f 69/277/9 70/278/9 67/279/9
f 10/280/3 11/281/3 71/282/3
f 71/283/3 72/284/3 10/285/3
f 68/286/2 10/287/2 72/288/2
f 72/289/2 73/290/2 68/291/2
f 73/292/2 67/293/2 68/291/2
f 73/292/2 74/294/2 67/295/2
f 74/296/2 75/297/2 67/295/2
f 10/280/2 68/298/2 24/299/2
f 74/296/5 73/290/5 76/300/5
f 76/301/5 77/302/5 74/303/5
f 71/283/4 11/281/4 12/108/4
f 12/304/4 69/111/4 71/282/4
f 69/305/4 76/306/4 71/282/4
f 69/305/4 70/307/4 76/300/4
f 70/308/4 78/309/4 76/300/4
f 78/310/4 77/302/4 76/300/4
f 78/310/1 75/297/1 74/303/1
f 74/296/1 77/302/1 78/311/1
f 73/292/9 72/284/9 71/282/9
f 71/283/9 76/306/9 73/312/9
